<?xml version="1.0" standalone="no"?>
<!DOCTYPE svg PUBLIC "-//W3C//DTD SVG 1.1//EN" "http://www.w3.org/Graphics/SVG/1.1/DTD/svg11.dtd">
<svg xmlns="http://www.w3.org/2000/svg">
<defs >
<font id="Brygada1918" horiz-adv-x="570" ><font-face
    font-family="Brygada 1918 Medium"
    units-per-em="1000"
    panose-1="0 0 0 0 0 0 0 0 0 0"
    ascent="920"
    descent="-250"
    alphabetic="0" />
<glyph unicode=" " horiz-adv-x="223" />
<glyph unicode="!" horiz-adv-x="199" d="M85 187L43 610Q40 642 58 661T100 680Q124 680 142 661T157 610L115 187H85ZM100 -10Q75 -10 57 8T38 52Q38 78 56 96T100 114Q125 114 143 96T162 52Q162 27 144 9T100 -10Z" />
<glyph unicode="&quot;" horiz-adv-x="365" d="M103 680Q118 680 132 672T155 647T159 609L118 396H88L47 609Q43 630 51 646T73 671T103 680ZM262 680Q278 680 292 672T314 647T318 609L277 396H247L206 609Q202 630 210 646T232 671T262 680Z" />
<glyph unicode="#" horiz-adv-x="714" d="M350 672H397L147 1H100L350 672ZM566 672H613L363 1H316L566 672ZM688 437H92L108 481H704L688 437ZM605 207H10L26 251H621L605 207Z" />
<glyph unicode="$" horiz-adv-x="603" d="M302 -100L303 770H338L337 -100H302ZM171 530Q171 495 191 471T245 431T319 401T398 371T472 331T526 272T546 183Q546 122 517 79T437 13T318 -10Q268 -10 226 3T147 39L127 1H92Q90 35 84 73T71 150T57 219L90 229Q122
153 163 110T246 48T324 30Q355 30 387 42T440 79T462 145Q462 184 442 209T388 253T315 286T235 317T162 356T108 411T87 493Q87 551 116 593T195 657T308 680Q351 680 386 668T455 631L475 670H510Q514 619 522 569T541 471L508 461Q482 536 445 574T370 626T301
640Q244 640 208 610T171 530Z" />
<glyph unicode="%" horiz-adv-x="860" d="M185 266Q141 266 106 292T50 365T29 473Q29 534 49 580T105 653T185 680Q229 680 264 654T319 581T340 473Q340 412 320 366T264 293T185 266ZM189 290Q214 290 229 313T251 376T258 461Q258 554 237 605T180 656Q155
656 140 633T117 571T110 485Q110 392 131 341T189 290ZM254 0L558 670H606L302 0H254ZM676 -10Q632 -10 597 16T541 89T520 197Q520 258 540 304T596 377T676 404Q720 404 755 378T810 305T831 197Q831 136 811 90T755 17T676 -10ZM680 14Q705 14 720 37T742 100T749
185Q749 278 728 329T671 380Q646 380 631 357T608 295T601 209Q601 116 622 65T680 14Z" />
<glyph unicode="&amp;" horiz-adv-x="738" d="M569 35H701V0H558L569 35ZM299 400Q343 427 360 469T377 546Q377 593 354 618T296 643Q259 643 239 616T219 554Q219 519 240 487T303 407L675 0H534L229 335Q173 397 148 440T123 528Q123 573 145 607T207 661T299
680Q347 680 384 664T442 618T464 549Q464 516 449 485T403 426T326 374L299 400ZM459 375H682V340H622L617 335Q617 294 604 247T563 155T495 72T400 13T276 -10Q208 -10 153 11T66 74T34 174Q34 224 58 261T125 325T222 369L242 345Q190 320 167 279T143 185Q143
118 183 76T304 33Q368 33 417 62T496 137T533 236T521 340H459V375Z" />
<glyph unicode="&apos;" horiz-adv-x="206" d="M103 680Q118 680 132 672T155 647T159 609L118 396H88L47 609Q43 630 51 646T73 671T103 680Z" />
<glyph unicode="(" horiz-adv-x="307" d="M75 240Q75 380 114 506T225 747L262 730Q198 626 159 503T120 240H75ZM225 -267Q154 -151 115 -25T75 240H120Q120 101 159 -22T262 -250L225 -267Z" />
<glyph unicode=")" horiz-adv-x="307" d="M217 240Q217 380 178 503T75 730L112 747Q183 632 222 506T262 240H217ZM112 -267L75 -250Q139 -146 178 -23T217 240H262Q262 101 223 -25T112 -267Z" />
<glyph unicode="*" horiz-adv-x="486" d="M251 491L243 496L293 649Q299 669 318 677T353 675Q369 665 372 646T360 611L251 491ZM134 298Q117 308 115 327T127 362L235 483L243 478L194 324Q187 303 169 296T134 298ZM77 449Q56 444 41 455T25 487Q25 507 40
518T77 525L235 491V483L77 449ZM352 298Q335 289 317 296T292 324L243 478L251 483L359 362Q374 347 372 328T352 298ZM243 478L235 483V491L243 496L251 491V483L243 478ZM235 491L126 611Q111 627 114 646T133 675Q149 685 168 677T193 649L243 496L235 491ZM409
449L251 483V491L409 525Q430 530 445 519T461 487Q461 467 446 456T409 449Z" />
<glyph unicode="+" horiz-adv-x="510" d="M25 337H485V302H25V337ZM273 550V90H238V550H273Z" />
<glyph unicode="," horiz-adv-x="204" d="M103 114Q136 114 153 92T170 35Q170 -8 157 -45T120 -114T68 -175L41 -152Q75 -116 96 -79T119 -9Q115 -10 111 -10T103 -10Q79 -10 61 8T42 52Q42 78 60 96T103 114Z" />
<glyph unicode="-" horiz-adv-x="385" d="M40 305H345V240H40V305Z" />
<glyph unicode="." horiz-adv-x="199" d="M100 -10Q75 -10 57 8T38 52Q38 78 56 96T100 114Q125 114 143 96T162 52Q162 27 144 9T100 -10Z" />
<glyph unicode="/" horiz-adv-x="392" d="M20 -60L324 730H372L68 -60H20Z" />
<glyph unicode="0" horiz-adv-x="594" d="M297 -10Q228 -10 171 31T79 150T45 335Q45 443 79 520T170 638T297 680Q367 680 424 639T515 520T549 335Q549 228 515 151T424 32T297 -10ZM305 30Q352 30 381 66T424 167T438 317Q438 425 420 496T367 604T289 640Q242
640 213 604T170 503T156 353Q156 245 175 174T227 66T305 30Z" />
<glyph unicode="1" horiz-adv-x="500" d="M213 0V561Q194 540 163 519T101 481L83 515Q100 523 124 539T175 576T225 622T263 670H318V0H213ZM83 0V35H207L213 41H318L325 35H449V0H83Z" />
<glyph unicode="2" horiz-adv-x="593" d="M498 196H533L489 0H47Q47 57 71 102T133 184T213 255T294 324T356 400T380 493Q380 559 345 599T253 640Q202 640 166 619T114 557L56 507Q56 548 80 587T153 653T275 680Q313 680 351 672T420 643T471 588T491 505Q491
449 470 409T414 338T337 282T253 230T174 170T116 92H302Q360 92 398 99T460 128T498 196ZM117 437Q92 437 74 455T56 507L114 557Q134 558 147 550T169 528T177 497Q177 472 160 455T117 437Z" />
<glyph unicode="3" horiz-adv-x="564" d="M269 -10Q203 -10 154 10T76 65T48 139L114 89Q139 57 178 44T260 30Q339 30 376 67T414 175Q414 220 395 254T333 307T224 327V359Q273 359 326 351T424 321T497 265T526 178Q526 132 505 97T448 38T366 2T269 -10ZM114
89L48 139Q48 172 66 190T109 209Q134 209 152 192T170 148Q170 124 154 107T114 89ZM120 447Q95 447 77 465T59 517L117 567Q136 568 150 560T172 538T181 507Q181 482 163 465T120 447ZM224 337V362Q255 362 283 370T334 397T370 443T383 511Q383 575 348 607T253
640Q205 640 169 620T117 567L59 517Q59 554 83 591T156 654T277 680Q316 680 354 671T423 643T474 594T493 523Q493 477 471 442T410 384T323 350T224 337Z" />
<glyph unicode="4" horiz-adv-x="638" d="M45 177L99 212H567V177H45ZM45 177V207L389 670H467V41L473 35H547V0H281V35H356L362 41V567H359L99 217V212L45 177Z" />
<glyph unicode="5" horiz-adv-x="577" d="M257 -10Q188 -10 141 13T69 73T44 149L110 99Q128 68 166 49T248 30Q332 30 369 78T407 203Q407 283 370 334T261 386Q217 386 175 366T105 307L75 315L105 670H494V578H140L125 380Q144 396 180 411T279 426Q352 426
405 399T488 324T518 214Q518 149 486 98T394 19T257 -10ZM110 99L44 149Q44 182 62 200T105 219Q130 219 148 202T166 158Q166 134 150 117T110 99Z" />
<glyph unicode="6" horiz-adv-x="578" d="M296 -10Q250 -10 205 7T124 64T67 165T45 316Q45 431 79 512T177 636T324 680Q379 680 422 661T491 610T517 537Q517 507 499 489T456 470Q431 470 414 488T396 532Q396 550 407 566T446 590Q429 615 395 627T326 640Q234
640 195 557T156 321Q156 213 175 149T227 58T300 30Q354 30 388 71T423 197Q423 282 388 322T302 362Q258 362 217 333T138 241V300Q164 344 208 373T316 403Q354 403 392 392T461 356T513 293T533 204Q533 134 499 86T410 14T296 -10Z" />
<glyph unicode="7" horiz-adv-x="558" d="M502 670Q502 616 487 570T449 482T401 395T355 302T323 193T318 60Q320 29 304 10T261 -10Q234 -10 219 9T204 60Q204 126 224 182T274 288T338 385T402 479T448 578H270Q213 578 175 572T114 545T77 478L44 488L85 670H502Z" />
<glyph unicode="8" horiz-adv-x="557" d="M272 -10Q234 -10 195 -2T121 27T66 80T45 162Q45 214 68 251T127 315T202 355L252 340Q211 325 174 303T114 247T90 168Q90 128 107 102T152 60T209 37T268 30Q309 30 344 44T401 84T423 150Q423 187 404 212T352 255T281
288T203 319T132 358T80 414T60 495Q60 554 90 595T171 658T281 680Q334 680 379 663T452 611T481 522Q481 471 452 431T360 356L303 366Q375 401 405 438T436 519Q436 562 413 588T355 627T283 640Q223 640 186 611T149 531Q149 495 168 471T220 430T291 399T369
368T440 328T492 269T512 181Q512 135 496 102T455 48T398 14T333 -4T272 -10Z" />
<glyph unicode="9" horiz-adv-x="578" d="M261 -10Q207 -10 163 9T94 60T68 132Q68 162 86 180T130 199Q155 199 172 181T190 137Q190 119 178 103T140 79Q157 54 190 42T259 30Q321 30 356 70T407 185T422 367Q422 476 403 535T351 617T278 640Q224 640 190 599T155
474Q155 390 190 349T276 308Q320 308 362 337T439 429V370Q414 326 370 297T262 267Q225 267 187 278T116 314T65 376T45 465Q45 535 79 583T168 655T281 680Q328 680 373 665T454 615T511 521T533 372Q533 252 500 167T407 36T261 -10Z" />
<glyph unicode=":" horiz-adv-x="199" d="M100 -10Q75 -10 57 8T38 52Q38 78 56 96T100 114Q125 114 143 96T162 52Q162 27 144 9T100 -10ZM100 331Q75 331 57 349T38 393Q38 419 56 437T100 455Q125 455 143 437T162 393Q162 368 144 350T100 331Z" />
<glyph unicode=";" horiz-adv-x="204" d="M68 -175L41 -152Q75 -116 96 -79T119 -9Q115 -10 111 -10T103 -10Q79 -10 61 8T42 52Q42 78 60 96T103 114Q136 114 153 92T170 35Q170 -8 157 -45T120 -114T68 -175ZM100 331Q75 331 57 349T38 393Q38 418 56 436T100
455Q125 455 143 437T162 393Q162 368 144 350T100 331Z" />
<glyph unicode="&lt;" horiz-adv-x="505" d="M480 537V494L85 322V317L480 145V102L25 302V337L480 537Z" />
<glyph unicode="=" horiz-adv-x="510" d="M25 417H485V382H25V417ZM25 257H485V222H25V257Z" />
<glyph unicode="&gt;" horiz-adv-x="505" d="M25 537L480 337V302L25 102V145L421 317V322L25 494V537Z" />
<glyph unicode="?" horiz-adv-x="459" d="M215 187Q196 237 200 274T222 340T261 398T299 457T315 531Q315 577 291 608T209 639Q177 639 149 626T104 590T84 535L38 527Q38 566 62 600T131 657T234 679Q283 679 326 664T395 618T422 539Q422 495 402 461T353
396T297 335T254 268T245 187H215ZM230 -10Q205 -10 187 8T168 52Q168 78 186 96T230 114Q255 114 273 96T292 52Q292 27 274 9T230 -10ZM98 457Q74 457 56 476T38 527L93 577Q113 579 127 571T150 548T159 518Q159 492 142 475T98 457Z" />
<glyph unicode="@" horiz-adv-x="932" d="M484 -169Q403 -169 325 -143T185 -65T85 63T48 241Q48 336 82 416T180 556T328 647T512 680Q588 680 655 658T774 593T855 485T884 338Q884 269 866 214T816 118T744 57T662 35Q645 35 626 40T590 57T563 94T551 155L589
450H674L635 162Q629 115 641 93T679 70Q711 70 737 101T779 188T795 316Q795 417 761 489T662 601T505 640Q416 640 349 609T236 524T167 401T144 254Q144 166 171 96T247 -25T360 -102T497 -129Q561 -129 620 -110T729 -58L748 -89Q698 -123 633 -146T484 -169ZM430
35Q384 35 347 58T288 123T266 223Q266 294 294 347T368 430T469 460Q529 460 562 420T595 282Q595 209 575 153T518 66T430 35ZM443 70Q474 70 501 94T544 165T561 276Q561 347 540 386T480 425Q448 425 422 400T379 328T362 212Q362 147 383 109T443 70Z" />
<glyph unicode="A" horiz-adv-x="705" d="M12 0V35H70L316 670H391L627 35H693V0H441V35H504L511 41L324 557H319L120 41L126 35H209V0H12ZM173 235V270H478V235H173Z" />
<glyph unicode="B" horiz-adv-x="683" d="M414 343V354Q482 355 535 335T619 278T650 189Q650 137 626 101T565 43T484 11T400 0H45V35H120L126 41V629L120 635H45V670H362Q406 670 450 662T530 637T589 589T612 512Q612 447 558 404T414 343ZM237 635L231 629V345L186
363H337Q383 363 420 375T479 419T501 503Q501 547 479 576T419 620T337 635H237ZM375 35Q421 35 457 49T516 96T538 181Q538 225 516 258T456 309T375 328H186L231 347V41L237 35H375Z" />
<glyph unicode="C" horiz-adv-x="685" d="M392 36Q457 36 516 68T630 164L657 141Q604 71 534 31T372 -10H371Q302 -10 243 15T140 87T72 195T48 330Q48 407 74 471T148 582T257 654T389 680Q440 680 480 667T555 632L575 670H610Q614 619 621 568T639 470L606
460Q587 514 561 549T504 604T444 632T386 640Q316 640 265 601T187 494T159 337Q159 250 186 182T266 75T392 36Z" />
<glyph unicode="D" horiz-adv-x="751" d="M363 670Q438 670 500 649T607 586T678 485T703 347Q703 271 677 207T604 97T496 26T363 0H45V35H120L126 41V629L120 635H45V670H363ZM354 35Q425 35 478 71T562 175T592 335Q592 423 561 491T472 597T339 635H237L231
629V41L237 35H354Z" />
<glyph unicode="E" horiz-adv-x="632" d="M561 190H596L553 0H45V35H120L126 41V629L120 635H45V670H543L579 510L546 500Q529 553 504 582T440 623T346 635H237L231 629V346L186 365H322Q365 365 389 388T417 475H452V220H417Q414 283 390 306T322 330H186L231
350V41L237 35H356Q439 35 487 73T561 190Z" />
<glyph unicode="F" horiz-adv-x="576" d="M45 0V35H120L126 41V629L120 635H45V670H515L551 510L518 500Q502 553 476 582T412 623T318 635H237L231 629V300L186 345H335Q378 345 402 368T429 455H464V200H429Q426 263 402 286T335 310H186L231 355V41L237 35H348V0H45Z" />
<glyph unicode="G" horiz-adv-x="740" d="M471 320H710V285H656L649 279V0H614L566 72H561Q535 45 508 27T447 0T368 -10H367Q297 -10 239 15T138 87T72 195T48 329Q48 407 74 471T147 582T257 654T394 680Q450 680 493 666T568 632L587 670H622Q626 619 633 568T651
470L618 460Q594 530 556 569T475 624T391 640Q317 640 265 601T186 492T159 336Q159 249 185 181T260 75T379 36Q429 36 468 57T531 119T554 222V279L548 285H471V320Z" />
<glyph unicode="H" horiz-adv-x="777" d="M465 0V35H540L546 41V629L540 635H465V670H731V635H657L651 629V41L657 35H731V0H465ZM45 0V35H120L126 41V629L120 635H45V670H311V635H237L231 629V41L237 35H311V0H45ZM207 330V365H577V330H207Z" />
<glyph unicode="I" horiz-adv-x="392" d="M329 635H255L248 629V41L255 35H329V0H63V35H137L143 41V629L137 635H63V670H329V635Z" />
<glyph unicode="J" horiz-adv-x="430" d="M133 635V670H399V635H324L319 629V161Q319 110 304 77T264 25T210 -2T150 -10Q108 -10 77 6T28 50T10 107Q10 139 29 157T73 176Q99 176 116 159T133 117Q133 96 121 81T89 60T47 65L64 83Q75 60 91 45T138 29Q166 29
190 52T214 132L213 629L207 635H133Z" />
<glyph unicode="K" horiz-adv-x="712" d="M167 268L548 629L542 635H436V670H672V635H617L227 268H167ZM45 0V35H120L126 41V629L120 635H45V670H311V635H237L231 629V41L237 35H311V0H45ZM429 0V35H503L509 41L291 352L370 423L642 35H712V0H429Z" />
<glyph unicode="L" horiz-adv-x="597" d="M547 210H582L535 0H45V35H120L126 41V629L120 635H45V670H311V635H237L231 629V41L237 35H340Q422 35 472 81T547 210Z" />
<glyph unicode="M" horiz-adv-x="911" d="M395 0L180 553H175L130 629L124 635H45V670H253L463 127H468L680 670V529H675L470 0H395ZM45 0V35H124L130 41V629L175 553V41L182 35H263V0H45ZM600 0V35H674L680 41V670H866V635H790L785 630V41L792 35H866V0H600Z" />
<glyph unicode="N" horiz-adv-x="748" d="M569 0L176 527H171L126 629L120 635H45V670H201L594 143H599V0H569ZM45 0V35H120L126 41V629L171 527V41L177 35H258V0H45ZM717 670V635H650L644 629V0H599V629L593 635H512V670H717Z" />
<glyph unicode="O" horiz-adv-x="745" d="M372 680Q468 680 541 636T655 514T697 335Q697 261 672 198T603 89T499 16T372 -10Q277 -10 204 34T89 156T48 335Q48 409 72 472T141 581T245 654T372 680ZM382 30Q447 30 492 68T562 174T586 333Q586 420 560 489T484
599T362 640Q299 640 253 602T183 496T159 337Q159 250 185 181T261 71T382 30Z" />
<glyph unicode="P" horiz-adv-x="615" d="M45 0V35H120L126 41V629L120 635H45V670H350Q394 670 438 661T518 632T577 576T600 488Q600 437 576 400T515 338T434 302T350 290H186L231 300V41L237 35H348V0H45ZM231 314L186 325H325Q371 325 407 338T466 384T488
480Q488 534 466 568T406 618T325 635H237L231 629V314Z" />
<glyph unicode="Q" horiz-adv-x="745" d="M613 -77L640 -100Q621 -130 597 -145T540 -160Q496 -160 465 -139T412 -84T374 -13T342 58T311 113T272 135Q255 135 241 123T218 101L191 124Q210 154 233 169T291 184Q335 184 365 163T418 108T457 37T489 -34T520
-89T559 -111Q576 -111 590 -99T613 -77ZM372 680Q468 680 541 636T655 514T697 335Q697 261 672 198T603 89T499 16T372 -10Q277 -10 204 34T89 156T48 335Q48 409 72 472T141 581T245 654T372 680ZM382 30Q447 30 492 68T562 174T586 333Q586 420 560 489T484
599T362 640Q299 640 253 602T183 496T159 337Q159 250 185 181T261 71T382 30Z" />
<glyph unicode="R" horiz-adv-x="707" d="M422 0V35H497L503 41L300 323H424L635 35H707V0H422ZM350 670Q394 670 438 661T518 633T577 580T600 498Q600 451 576 416T515 357T434 322T350 310H186L231 355V41L237 35H311V0H45V35H120L126 41V629L120 635H45V670H350ZM231
300L186 345H325Q371 345 407 357T466 401T488 490Q488 539 466 571T406 619T325 635H237L231 629V300Z" />
<glyph unicode="S" horiz-adv-x="603" d="M171 530Q171 495 191 471T245 431T319 401T398 371T472 331T526 272T546 183Q546 122 517 79T437 13T318 -10Q268 -10 226 3T147 39L127 1H92Q90 35 84 73T71 150T57 219L90 229Q122 153 163 110T246 48T324 30Q355 30
387 42T440 79T462 145Q462 184 442 209T388 253T315 286T235 317T162 356T108 411T87 493Q87 551 116 593T195 657T308 680Q351 680 386 668T455 631L475 670H510Q514 619 522 569T541 471L508 461Q482 536 445 574T370 626T301 640Q244 640 208 610T171 530Z"
/>
<glyph unicode="T" horiz-adv-x="621" d="M569 670L606 506L573 496Q557 550 531 580T464 622T362 635V41L368 35H443V0H177V35H251L257 41V635Q197 635 156 623T89 580T46 496L13 506L50 670H569Z" />
<glyph unicode="U" horiz-adv-x="726" d="M489 635V670H694V635H628L621 629V245Q621 166 590 109T505 21T381 -10Q291 -10 231 22T142 110T112 233V629L106 635H32V670H298V635H223L217 629V247Q217 187 236 141T295 67T393 40Q444 40 485 64T551 134T576 245V629L570
635H489Z" />
<glyph unicode="V" horiz-adv-x="687" d="M473 670H676V635H617L390 0H315L79 635H13V670H269V635H202L196 629L381 117H386L564 629L558 635H473V670Z" />
<glyph unicode="W" horiz-adv-x="989" d="M280 0L82 635H15V670H267V635H204L198 629L349 142H354L480 559L459 635H396V670H647V635H580L574 629L718 142H723L865 629L859 635H774V670H975V635H915L730 0H651L508 475H503L359 0H280Z" />
<glyph unicode="X" horiz-adv-x="670" d="M588 35H654V0H387V35H454L460 41L97 635H30V670H298V635H232L226 629L588 35ZM333 352L511 629L504 635H419V670H625V635H567L384 352H333ZM331 352L130 41L137 35H229V0H15V35H74L280 352H331Z" />
<glyph unicode="Y" horiz-adv-x="648" d="M9 635V670H272V635H205L199 629L360 340H365L527 629L521 635H436V670H639V635H580L382 281V41L389 35H463V0H197V35H271L277 41V281L76 635H9Z" />
<glyph unicode="Z" horiz-adv-x="584" d="M22 0V30L402 629L396 635H264Q209 635 171 623T107 582T65 500L32 510L68 670H530V640L149 41L156 35H329Q412 35 460 73T533 190H568L525 0H22Z" />
<glyph unicode="[" horiz-adv-x="305" d="M260 695H150L145 690V-210L150 -215H260V-250H100V730H260V695Z" />
<glyph unicode="\" horiz-adv-x="392" d="M372 -60H324L20 730H68L372 -60Z" />
<glyph unicode="]" horiz-adv-x="305" d="M45 695V730H205V-250H45V-215H155L160 -210V690L155 695H45Z" />
<glyph unicode="^" horiz-adv-x="526" d="M480 248H437L265 644H260L88 248H45L245 703H280L480 248Z" />
<glyph unicode="_" horiz-adv-x="405" d="M0 0H405V-35H0V0Z" />
<glyph unicode="`" horiz-adv-x="136" d="M0 720H102L136 548H106L0 720Z" />
<glyph unicode="a" horiz-adv-x="535" d="M437 -10Q403 -10 379 4T345 48V301Q345 363 323 398T243 433Q214 433 190 427T143 406Q159 397 166 384T173 353Q173 330 157 315T118 299Q95 299 80 315T64 359Q64 387 81 408T127 444T191 467T261 475Q310 475 350
461T415 413T440 316V83Q440 69 446 56T472 42Q485 42 495 51T516 73L543 50Q531 33 517 19T483 -2T437 -10ZM202 -10Q123 -10 79 29T34 124Q34 181 78 219T202 258Q254 258 289 241T345 200V154Q316 186 285 199T225 212Q180 212 155 188T129 124Q129 85 154 61T225
36Q253 36 284 48T345 93V48Q324 24 289 7T202 -10Z" />
<glyph unicode="b" horiz-adv-x="599" d="M343 475Q404 475 451 445T526 361T553 234Q553 161 526 106T452 21T343 -10Q282 -10 244 17T187 84L142 0H92V689L85 695H16V730Q42 730 70 730T126 732T180 736L187 730V381Q206 416 246 445T343 475ZM325 37Q378 37
412 80T447 222Q447 320 413 373T325 427Q287 427 251 401T187 310V155Q215 91 251 64T325 37Z" />
<glyph unicode="c" horiz-adv-x="505" d="M282 -10Q217 -10 164 19T79 102T47 229Q47 307 81 361T172 445T296 475Q344 475 384 459T448 414T472 348Q472 321 457 305T418 289Q396 289 380 304T363 343Q363 360 373 375T409 396Q389 417 361 428T296 440Q243 440
212 414T165 341T150 238Q150 173 169 127T223 57T299 32Q342 32 380 57T450 125L477 102Q453 69 426 44T363 5T282 -10Z" />
<glyph unicode="d" horiz-adv-x="613" d="M508 41L514 35H583V0Q557 0 529 0T473 -2T419 -6L413 0V84Q394 49 354 20T256 -10Q195 -10 148 19T74 103T47 230Q47 303 73 358T147 444T256 475Q317 475 355 448T413 381V689L407 695H337V730Q363 730 391 730T448
732T502 736L508 730V41ZM413 155V310Q385 374 349 400T275 427Q221 427 187 384T153 242Q153 144 187 91T275 37Q312 37 348 64T413 155Z" />
<glyph unicode="e" horiz-adv-x="526" d="M302 32Q354 32 391 56T456 109L483 86Q462 61 436 39T372 4T282 -10Q219 -10 166 19T80 102T47 232Q47 307 79 361T165 445T282 475Q345 475 391 451T462 376T488 250H137V285H379Q375 360 352 400T276 440Q232 440 205
414T164 340T150 232Q150 172 170 127T225 57T302 32Z" />
<glyph unicode="f" horiz-adv-x="345" d="M113 462V544Q113 597 130 641T181 713T266 740Q304 740 325 725T354 689T363 652Q363 627 348 611T310 595Q288 595 273 610T257 648Q257 670 273 683T310 697Q323 697 332 691T347 675T353 652H323Q323 663 318 676T301
699T268 709Q244 709 230 693T209 652T202 598T209 542V462H113ZM113 0V423L107 430H214L208 423V0H113ZM38 430V465H333V430H38ZM38 35H107L113 41H208L214 35H321V0H38V35Z" />
<glyph unicode="g" horiz-adv-x="547" d="M261 475Q312 475 360 458T439 405T470 315Q470 261 439 226T360 173T261 155Q212 155 165 172T87 225T57 315Q57 369 87 404T164 457T261 475ZM267 190Q309 190 339 221T370 309Q370 354 353 383T310 426T256 440Q212
440 185 408T157 320Q157 276 173 247T214 204T267 190ZM138 115Q138 91 158 80T213 65T288 58T370 50T445 32T499 -7T520 -78Q520 -160 452 -210T261 -260Q224 -260 186 -254T117 -233T66 -191T47 -125Q47 -83 73 -53T149 -4L176 -13Q152 -34 144 -59T136 -108Q136
-159 170 -192T272 -225Q322 -225 362 -212T427 -173T452 -112Q452 -82 431 -67T376 -45T300 -35T218 -28T143 -13T88 20T67 81Q67 124 91 149T149 191L172 176Q153 163 146 146T138 115ZM340 457Q364 498 397 525T466 552Q496 552 509 536T523 500Q523 480 509
466T475 452Q455 452 442 466T428 500Q428 508 433 518T445 534L444 507Q428 502 408 485T370 436L340 457Z" />
<glyph unicode="h" horiz-adv-x="636" d="M523 41L529 35H598V0H353V35H422L428 41V327Q428 376 411 401T352 427Q313 427 277 400T202 307V41L208 35H277V0H32V35H101L107 41V689L101 695H32V730Q58 730 85 730T141 732T196 736L202 730V372Q230 417 272 446T381
475Q434 475 465 458T509 411T523 345V41Z" />
<glyph unicode="i" horiz-adv-x="321" d="M38 0V35H107L113 41V423L107 430H38V465Q64 465 92 465T148 467T202 471L208 465V41L214 35H283V0H38ZM156 563Q132 563 113 581T94 625Q94 651 113 669T156 687Q182 687 200 669T218 625Q218 600 200 582T156 563Z" />
<glyph unicode="j" horiz-adv-x="310" d="M59 -260Q20 -260 -2 -245T-33 -208T-42 -172Q-42 -147 -27 -131T11 -115Q34 -115 49 -130T65 -168Q65 -188 52 -201T19 -216Q26 -222 34 -225T55 -229Q75 -229 88 -219T109 -191T118 -146T113 -87V423L107 430H38V465Q64
465 92 465T148 467T202 471L208 465V-64Q208 -116 192 -161T143 -233T59 -260ZM156 563Q132 563 113 581T94 625Q94 651 113 669T156 687Q182 687 200 669T218 625Q218 600 200 582T156 563Z" />
<glyph unicode="k" horiz-adv-x="588" d="M338 314L519 35H582V0H343V35H394L400 41L259 256L338 314ZM141 178L405 423L399 430H290V465H547V430H472L202 178H141ZM202 41L208 35H277V0H32V35H101L107 41V689L101 695H32V730Q58 730 85 730T141 732T196 736L202 730V41Z" />
<glyph unicode="l" horiz-adv-x="314" d="M32 0V35H101L107 41V689L101 695H32V730Q58 730 85 730T141 732T196 736L202 730V41L208 35H277V0H32Z" />
<glyph unicode="m" horiz-adv-x="943" d="M837 35H906V0H666V35H729L735 41V327Q735 376 719 401T661 427Q621 427 590 400T519 307V41L525 35H588V0H355V35H418L424 41V327Q424 376 408 401T350 427Q310 427 279 400T208 307V41L214 35H277V0H38V35H107L113 41V423L107
430H38V465Q64 465 90 465T143 467T196 471L202 465V372H208Q236 417 274 446T378 475Q446 475 478 446T518 371Q545 419 585 447T690 475Q742 475 772 458T816 411T830 345V41L837 35Z" />
<glyph unicode="n" horiz-adv-x="642" d="M529 41L535 35H605V0H359V35H428L434 41V327Q434 376 417 401T358 427Q319 427 283 400T208 307V41L214 35H283V0H38V35H107L113 41V423L107 430H38V465Q64 465 90 465T143 467T196 471L202 465V372H208Q236 417 278
446T387 475Q440 475 471 458T515 411T529 345V41Z" />
<glyph unicode="o" horiz-adv-x="565" d="M282 475Q347 475 400 446T486 362T518 232Q518 157 486 103T401 19T282 -10Q218 -10 165 19T79 102T47 232Q47 307 79 361T164 445T282 475ZM287 25Q334 25 361 52T400 125T412 229Q412 292 394 339T346 413T277 440Q232
440 204 413T165 340T153 236Q153 173 171 126T219 52T287 25Z" />
<glyph unicode="p" horiz-adv-x="609" d="M353 475Q415 475 462 445T536 361T563 234Q563 161 536 106T462 21T353 -10Q292 -10 254 17T197 84V-209L203 -215H310V-250H26V-215H96L102 -209V423L96 429H26V464Q52 464 78 464T131 466T184 471L191 464V381H197Q216
416 256 445T353 475ZM335 37Q388 37 422 80T457 222Q457 320 423 373T335 427Q297 427 261 401T197 310V155Q225 91 261 64T335 37Z" />
<glyph unicode="q" horiz-adv-x="602" d="M508 -209L514 -215H583V-250H337V-215H407L413 -209V86Q394 51 354 22T256 -8Q195 -8 148 22T74 105T47 233Q47 306 73 361T147 446T256 477Q317 477 355 450T413 383L456 465H508V-209ZM275 40Q312 40 348 66T413 157V312Q385
376 349 403T275 430Q221 430 187 387T153 245Q153 147 187 94T275 40Z" />
<glyph unicode="r" horiz-adv-x="472" d="M219 356Q246 406 287 440T381 475Q407 475 423 465T447 439T455 405Q455 377 437 358T389 339Q361 339 343 358T324 405Q324 417 330 431T344 453L343 425Q324 419 306 406T266 364T219 283V356ZM219 41L226 35H332V0H49V35H118L124
41V423L118 430H49V465Q75 465 101 465T154 467T207 471L213 465V356H219V41Z" />
<glyph unicode="s" horiz-adv-x="470" d="M139 370Q139 343 159 327T212 300T281 278T350 250T403 205T423 132Q423 82 398 51T335 5T259 -10Q218 -10 185 1T125 28L112 0H74Q68 39 59 80T37 160L70 170Q99 112 133 81T200 37T258 25Q292 25 318 43T345 99Q345
129 325 146T272 175T203 197T133 224T80 267T59 339Q59 385 84 415T148 460T232 475Q266 475 293 467T337 445L346 465H384Q389 429 396 394T414 324L381 314Q356 373 320 406T230 440Q182 440 161 419T139 370Z" />
<glyph unicode="t" horiz-adv-x="366" d="M318 83L345 60Q327 32 301 11T228 -10Q197 -10 169 2T123 43T105 117V423L99 430H15V465Q79 471 119 521T165 670H200V465H335V430H206L200 423V106Q200 73 214 57T252 40Q271 40 287 51T318 83Z" />
<glyph unicode="u" horiz-adv-x="604" d="M499 41L505 35H574V0Q548 0 522 0T469 -2T416 -6L410 0V93H404Q376 47 334 19T227 -10Q176 -10 147 7T104 54T90 120V423L84 430H15V465Q41 465 69 465T125 467T179 471L185 465V138Q185 89 200 63T255 37Q295 37 329
64T404 158V423L398 430H329V465Q355 465 383 465T439 467T493 471L499 465V41Z" />
<glyph unicode="v" horiz-adv-x="521" d="M337 465H520V430H460L300 0H235L58 430H-7V465H234V430H172L166 423L292 106H297L413 423L407 430H337V465Z" />
<glyph unicode="w" horiz-adv-x="782" d="M596 465H780V430H720L574 0H509L395 306H390L272 0H207L54 430H-11V465H229V430H168L161 423L267 118H272L371 373L351 430H305V465H521V430H461L455 423L564 118H569L672 423L666 430H596V465Z" />
<glyph unicode="x" horiz-adv-x="550" d="M278 0V35H345L351 41L79 430H15V465H267V430H205L199 423L471 35H535V0H278ZM16 0V35H72L238 252H289L129 41L136 35H200V0H16ZM265 237L411 423L405 430H345V465H524V430H468L316 237H265Z" />
<glyph unicode="y" horiz-adv-x="520" d="M242 -29L57 430H-9V465H232V430H171L165 423L287 106H292L411 423L405 430H335V465H519V430H459L295 0L242 -29ZM97 -260Q59 -260 38 -245T9 -208T1 -172Q1 -147 16 -131T54 -115Q76 -115 91 -130T107 -168Q107 -190
92 -203T54 -217Q41 -217 32 -211T17 -194T11 -172H41Q41 -183 46 -196T63 -219T98 -229Q130 -229 155 -201T201 -126T242 -29L295 0Q275 -49 256 -95T216 -179T165 -238T97 -260Z" />
<glyph unicode="z" horiz-adv-x="502" d="M435 162H470L433 0H32V26L322 425L317 430H234Q193 430 163 423T112 390T74 310L41 320L74 465H446V437L156 40L161 35H227Q277 35 311 41T368 61T406 100T435 162Z" />
<glyph unicode="{" horiz-adv-x="310" d="M30 239V254Q85 254 103 282T122 347Q122 392 117 431T107 510T102 594Q102 652 143 691T260 730V695Q206 695 177 666T147 589Q147 545 152 506T162 427T167 342Q167 303 149 276T96 239H30ZM260 -250Q185 -250 144 -212T102
-116Q102 -71 107 -32T117 46T122 130Q122 167 104 195T30 224V239H96Q131 230 149 202T167 135Q167 91 162 52T152 -27T147 -111Q147 -158 176 -186T260 -215V-250Z" />
<glyph unicode="|" horiz-adv-x="245" d="M100 -250V750H145V-250H100Z" />
<glyph unicode="}" horiz-adv-x="310" d="M214 239Q179 248 161 275T143 342Q143 387 148 426T158 505T163 589Q163 636 134 665T50 695V730Q125 730 166 691T208 594Q208 550 203 511T193 432T188 347Q188 310 206 282T280 254V239H214ZM50 -250V-215Q104 -215
133 -187T163 -111Q163 -66 158 -27T148 51T143 135Q143 174 161 202T214 239H280V224Q225 224 207 196T188 130Q188 86 193 47T203 -32T208 -116Q208 -174 167 -212T50 -250Z" />
<glyph unicode="~" horiz-adv-x="510" d="M380 371Q421 371 446 347T485 282L450 268Q436 298 420 314T373 330Q349 330 319 321T257 300T192 279T130 270Q90 270 64 294T25 359L60 373Q74 343 90 327T137 311Q158 311 188 320T252 341T320 362T380 371Z" />
<glyph unicode="&#xa0;" horiz-adv-x="223" />
<glyph unicode="&#xa1;" horiz-adv-x="199" d="M100 -215Q76 -215 58 -196T43 -145L85 278H115L157 -145Q160 -176 142 -195T100 -215ZM100 475Q125 475 143 457T162 413Q162 388 144 370T100 351Q75 351 57 369T38 413Q38 438 56 456T100 475Z" />
<glyph unicode="&#xa2;" horiz-adv-x="505" d="M153 -100L354 580H392L191 -100H153ZM299 32Q342 32 380 57T450 125L477 102Q453 69 426 44T363 5T282 -10Q217 -10 164 19T79 103T47 231Q47 304 78 358T163 442T282 472Q328 472 363 458T425 419T477 360L450
337Q418 380 380 405T299 430Q257 430 223 408T170 342T150 232Q150 168 169 123T223 55T299 32Z" />
<glyph unicode="&#xa3;" horiz-adv-x="639" d="M567 196H602L558 0H53V30Q88 51 107 81T134 146T142 219Q142 264 136 302T123 377T116 454Q116 518 137 561T192 631T270 668T357 680Q392 680 417 674T461 657T502 630L523 670H558Q562 619 570 572T588 477L555
467Q542 503 526 531T489 579T447 613T403 633T358 640Q308 640 280 617T240 554T228 466Q228 420 234 386T247 321T254 256Q254 197 230 155T165 92H371Q429 92 467 99T529 128T567 196ZM38 352H522V317H38V352Z" />
<glyph unicode="&#xa4;" horiz-adv-x="557" d="M152 168L72 88L47 113L127 193L152 168ZM282 103Q224 104 177 132T101 208T72 314Q72 372 100 419T176 495T282 524Q340 525 387 496T463 419T492 313Q492 255 464 208T388 132T282 103ZM282 138Q332 137 371 161T435
226T459 315Q460 364 436 403T372 465T282 489Q234 489 194 466T131 403T107 315Q107 266 131 227T194 163T282 138ZM400 466L486 551L511 526L427 442L400 466ZM128 447L47 527L72 552L153 472L128 447ZM426 199L511 113L486 88L401 172L426 199Z" />
<glyph unicode="&#xa5;" horiz-adv-x="648" d="M436 670H639V635H580L382 281V20H277V281L76 635H9V670H272V635H205L199 629L360 340H365L527 629L521 635H436V670ZM197 0V35H271L277 41H382L389 35H463V0H197ZM103 307H587V272H103V307ZM103 197H587V162H103V197Z" />
<glyph unicode="&#xa6;" horiz-adv-x="245" d="M100 460V750H145V460H100ZM100 -250V40H145V-250H100Z" />
<glyph unicode="&#xa7;" horiz-adv-x="464" d="M142 547Q142 510 162 482T213 431T279 384T346 334T397 273T417 191Q417 152 403 125T364 78T306 46T236 25V52Q279 66 306 91T333 162Q333 201 313 230T262 284T196 332T129 383T78 443T58 522Q58 569 81 605T144
661T239 681Q291 681 326 664T379 620T397 559Q397 522 379 507T340 492Q317 492 302 507T286 545Q286 566 302 582T346 597Q333 623 306 634T249 646Q214 646 190 632T154 596T142 547ZM318 -126Q318 -89 298 -61T246 -10T178 37T110 87T58 149T37 230Q37 269
51 296T91 343T149 375T218 396V369Q175 355 148 330T121 259Q121 220 141 191T193 137T261 89T329 38T381 -22T402 -101Q402 -147 379 -183T314 -240T215 -260Q163 -260 128 -243T74 -198T55 -138Q55 -101 74 -86T112 -71Q135 -71 151 -86T167 -124Q167 -145 151
-161T106 -176Q119 -201 147 -213T207 -225Q245 -225 269 -211T306 -175T318 -126Z" />
<glyph unicode="&#xa8;" horiz-adv-x="324" d="M60 567Q36 567 18 585T0 627Q0 652 18 669T60 687Q85 687 102 670T120 627Q120 603 103 585T60 567ZM264 567Q240 567 222 585T204 627Q204 652 222 669T264 687Q289 687 306 670T324 627Q324 603 307 585T264 567Z" />
<glyph unicode="&#xa9;" horiz-adv-x="785" d="M393 -10Q321 -10 259 16T149 90T75 200T48 335Q48 407 74 469T148 579T258 653T393 680Q465 680 527 654T637 580T711 470T738 335Q738 263 712 201T638 91T528 17T393 -10ZM396 144Q338 144 295 170T228 239T204
332Q204 385 229 428T299 497T401 523Q434 523 459 514T507 491L521 516H544Q547 482 551 453T563 391L540 384Q523 428 499 452T449 486T400 496Q356 496 330 472T292 412T279 338Q279 297 293 260T338 200T414 176Q452 176 483 193T550 249L568 233Q533 191 495
168T396 144ZM393 25Q456 25 511 49T609 116T674 215T698 335Q698 398 675 454T609 553T512 620T393 645Q330 645 275 621T177 554T112 455T88 335Q88 272 111 216T177 117T274 50T393 25Z" />
<glyph unicode="&#xaa;" horiz-adv-x="353" d="M328 367L345 354Q334 338 318 326T273 314Q252 314 238 322T215 346Q203 334 183 324T131 314Q84 314 57 337T30 396Q30 433 56 455T131 478Q163 478 183 468T215 445V507Q215 543 203 563T156 583Q136 583 123
580T96 569Q106 563 110 555T115 535Q115 519 105 509T79 498Q64 498 53 509T42 538Q42 562 62 578T112 601T171 609Q202 609 227 601T269 572T285 512V375Q285 367 289 360T304 352Q311 352 317 356T328 367ZM215 375V418Q200 434 184 442T150 450Q126 450 113
435T100 396Q100 372 113 357T150 342Q167 342 183 349T215 375Z" />
<glyph unicode="&#xab;" horiz-adv-x="400" d="M217 410L117 232L217 55L194 39L12 232L194 426L217 410ZM384 410L284 232L384 55L361 39L178 232L361 426L384 410Z" />
<glyph unicode="&#xac;" horiz-adv-x="510" d="M25 337H485V173H450V302H25V337Z" />
<glyph unicode="&#xad;" horiz-adv-x="600" d="M40 305H345V240H40V305Z" />
<glyph unicode="&#xae;" horiz-adv-x="785" d="M393 -10Q321 -10 259 16T149 90T75 200T48 335Q48 407 74 469T148 579T258 653T393 680Q465 680 527 654T637 580T711 470T738 335Q738 263 712 201T638 91T528 17T393 -10ZM393 25Q456 25 511 49T609 116T674 215T698
335Q698 398 675 454T609 553T512 620T393 645Q330 645 275 621T177 554T112 455T88 335Q88 272 111 216T177 117T274 50T393 25ZM205 151V175H255L259 179V488L255 493H205V516H401Q439 516 473 507T530 475T553 417Q553 381 529 357T470 319L575 175H624V151H436V175H484L488
179L395 307H330V179L335 175H385V151H205ZM330 330H384Q427 330 452 350T477 413Q477 450 452 471T384 493H334L330 488V330Z" />
<glyph unicode="&#xaf;" horiz-adv-x="299" d="M0 651H299V597H0V651Z" />
<glyph unicode="&#xb0;" horiz-adv-x="371" d="M185 390Q146 390 115 409T64 460T45 530Q45 569 64 600T114 651T185 670Q224 670 255 651T306 601T325 530Q325 492 306 460T256 409T185 390ZM185 427Q227 427 256 458T285 530Q285 571 256 602T185 633Q143 633
114 602T85 530Q85 489 114 458T185 427Z" />
<glyph unicode="&#xb1;" horiz-adv-x="510" d="M25 337H485V302H25V337ZM273 550V90H238V550H273ZM25 37H485V2H25V37Z" />
<glyph unicode="&#xb2;" horiz-adv-x="349" d="M300 443H321L294 320H22Q22 357 36 385T73 435T120 477T168 517T205 563T220 620Q220 658 201 681T148 704Q119 704 97 691T65 654L26 619Q26 645 41 670T88 711T165 728Q188 728 211 723T255 706T288 674T301 622Q301
584 283 559T237 516T176 480T115 441T68 385H184Q237 385 262 395T300 443ZM68 573Q51 573 39 585T26 619L65 654Q86 657 97 644T109 615Q109 597 98 585T68 573Z" />
<glyph unicode="&#xb3;" horiz-adv-x="350" d="M167 314Q107 314 69 339T31 403L76 368Q90 353 111 346T154 338Q199 338 221 360T244 426Q244 451 234 471T201 504T138 517V535Q188 535 230 524T299 490T325 426Q325 389 303 364T244 327T167 314ZM76 368L31
403Q31 424 43 436T73 449Q90 449 102 437T114 408Q114 391 103 380T76 368ZM138 523V538Q166 538 186 549T217 580T228 627Q228 664 209 684T155 704Q128 704 107 693T74 660L35 625Q35 649 50 672T96 712T172 728Q195 728 219 723T263 707T295 677T308 633Q308
598 285 574T223 538T138 523ZM77 579Q60 579 48 591T35 625L74 660Q95 663 106 650T118 621Q118 603 107 591T77 579Z" />
<glyph unicode="&#xb4;" horiz-adv-x="136" d="M136 720L30 548H0L34 720H136Z" />
<glyph unicode="&#xb5;" horiz-adv-x="615" d="M391 93Q363 47 324 19T242 -10Q212 -10 191 2T157 36T139 84T133 138H78V465H173V138Q173 89 188 63T242 37Q282 37 316 64T391 158V93ZM173 234V-250H78V234H173ZM500 -10Q458 -10 427 13T391 93L390 465H485L486
114Q486 80 495 60T527 40Q538 40 550 47T571 75T580 137H615Q615 60 583 25T500 -10Z" />
<glyph unicode="&#xb6;" horiz-adv-x="511" d="M294 130V290H265Q225 290 182 301T100 337T39 398T15 486Q15 538 37 573T96 630T177 661T265 670H479V635H405L399 629V158L294 130ZM231 -10Q189 -10 157 6T108 50T90 107Q90 139 109 157T154 176Q179 176 196
159T213 117Q213 92 196 75T154 57Q145 57 137 61T122 73T112 87H142Q148 73 157 60T181 38T218 29Q246 29 270 52T294 130L399 158Q399 109 384 77T344 25T290 -2T231 -10Z" />
<glyph unicode="&#xb7;" horiz-adv-x="199" d="M100 291Q75 291 57 309T38 353Q38 378 56 396T100 415Q125 415 143 397T162 353Q162 328 144 310T100 291Z" />
<glyph unicode="&#xb8;" horiz-adv-x="201" d="M12 -188Q32 -201 49 -206T83 -211Q111 -211 121 -199T132 -172Q132 -147 109 -131T43 -103L81 0H121L104 -47Q145 -58 175 -84T205 -152Q205 -193 173 -221T91 -250Q45 -250 0 -220L12 -188Z" />
<glyph unicode="&#xb9;" horiz-adv-x="300" d="M117 330V647Q105 636 89 626T54 605L43 626Q63 635 84 650T126 684T161 722H194V330H117ZM43 320V341H112L117 346H194L198 341H268V320H43Z" />
<glyph unicode="&#xba;" horiz-adv-x="342" d="M172 609Q213 609 246 592T298 541T318 462Q318 392 276 353T172 314Q110 314 68 353T25 462Q25 531 67 570T172 609ZM175 335Q199 335 213 352T233 396T239 456Q239 519 219 553T169 588Q144 588 130 571T109 527T103
467Q103 405 123 370T175 335Z" />
<glyph unicode="&#xbb;" horiz-adv-x="400" d="M183 410L206 426L388 232L206 39L183 55L283 232L183 410ZM16 410L39 426L221 232L39 39L16 55L116 232L16 410Z" />
<glyph unicode="&#xbc;" horiz-adv-x="800" d="M43 272V293H112L117 298V599Q105 588 89 578T54 557L43 578Q63 587 84 602T126 636T161 674H194V298L198 293H268V272H43ZM208 0L512 670H560L256 0H208ZM450 106L483 127H768V106H450ZM450 106V124L665 402H712V26L717
21H756V0H592V21H631L636 26V325H634L483 130V127L450 106Z" />
<glyph unicode="&#xbd;" horiz-adv-x="817" d="M43 272V293H112L117 298V599Q105 588 89 578T54 557L43 578Q63 587 84 602T126 636T161 674H194V298L198 293H268V272H43ZM208 0L512 670H560L256 0H208ZM489 0Q489 37 503 65T540 115T587 157T635 197T672 243T687
300Q687 338 668 361T615 384Q586 384 564 371T532 334L493 299Q493 325 508 350T555 391T632 408Q655 408 678 403T722 386T755 354T768 302Q768 264 750 239T704 196T643 160T582 121T535 65H651Q704 65 729 75T767 123H788L761 0H489ZM535 253Q518 253 506 265T493
299L532 334Q553 337 564 324T576 295Q576 277 565 265T535 253Z" />
<glyph unicode="&#xbe;" horiz-adv-x="843" d="M76 320L31 355Q31 376 43 388T73 401Q90 401 102 389T114 360Q114 343 103 332T76 320ZM77 531Q60 531 48 543T35 577L74 612Q95 615 106 602T118 573Q118 555 107 543T77 531ZM31 355L76 320Q90 305 111 298T154
290Q199 290 221 312T244 378Q244 403 234 423T201 456T138 469V490Q166 490 186 501T217 532T228 579Q228 616 209 636T155 656Q128 656 107 645T74 612L35 577Q35 601 50 624T96 664T172 680Q195 680 219 675T263 659T295 629T308 585Q308 553 289 531T236 495T161
476L160 485Q207 485 244 473T303 438T325 378Q325 341 303 316T244 279T167 266Q107 266 69 291T31 355ZM258 0L562 670H610L306 0H258ZM500 106L533 127H818V106H500ZM500 106V124L715 402H762V26L767 21H806V0H642V21H681L686 26V325H684L533 130V127L500 106Z"
/>
<glyph unicode="&#xbf;" horiz-adv-x="459" d="M245 272Q264 222 259 185T237 119T198 61T160 2T144 -72Q144 -118 169 -149T250 -180Q283 -180 310 -167T356 -131T375 -76L422 -68Q422 -106 398 -141T329 -198T225 -220Q176 -220 134 -205T65 -159T38 -80Q38
-36 58 -2T106 63T162 124T206 191T215 272H245ZM361 2Q386 2 404 -16T422 -68L366 -118Q347 -120 332 -112T309 -89T300 -59Q300 -33 317 -16T361 2ZM230 469Q255 469 273 451T292 407Q292 382 274 364T230 345Q205 345 187 363T168 407Q168 433 186 451T230 469Z"
/>
<glyph unicode="&#xc0;" horiz-adv-x="705" d="M12 0V35H70L316 670H391L627 35H693V0H441V35H504L511 41L324 557H319L120 41L126 35H209V0H12ZM173 235V270H478V235H173ZM208 867H330L386 725H356L208 867Z" />
<glyph unicode="&#xc1;" horiz-adv-x="705" d="M12 0V35H70L316 670H391L627 35H693V0H441V35H504L511 41L324 557H319L120 41L126 35H209V0H12ZM173 235V270H478V235H173ZM505 867L357 725H327L384 867H505Z" />
<glyph unicode="&#xc2;" horiz-adv-x="705" d="M12 0V35H70L316 670H391L627 35H693V0H441V35H504L511 41L324 557H319L120 41L126 35H209V0H12ZM173 235V270H478V235H173ZM471 725L353 781L233 725H203L337 867H368L501 725H471Z" />
<glyph unicode="&#xc3;" horiz-adv-x="705" d="M12 0V35H70L316 670H391L627 35H693V0H441V35H504L511 41L324 557H319L120 41L126 35H209V0H12ZM173 235V270H478V235H173ZM503 853L531 838Q521 778 492 755T429 731Q397 731 367 745T310 774T259 788Q243 788
229 778T204 735L176 750Q185 808 214 832T276 857Q307 857 337 843T396 815T448 801Q463 801 477 811T503 853Z" />
<glyph unicode="&#xc4;" horiz-adv-x="705" d="M12 0V35H70L316 670H391L627 35H693V0H441V35H504L511 41L324 557H319L120 41L126 35H209V0H12ZM173 235V270H478V235H173ZM240 736Q216 736 198 754T180 796Q180 822 198 839T240 857Q265 857 282 840T300 796Q300
772 283 754T240 736ZM465 736Q441 736 423 754T405 796Q405 822 423 839T465 857Q490 857 507 840T525 796Q525 772 508 754T465 736Z" />
<glyph unicode="&#xc5;" horiz-adv-x="705" d="M12 0V35H70L316 670H391L627 35H693V0H441V35H504L511 41L324 557H319L120 41L126 35H209V0H12ZM173 235V270H478V235H173ZM356 645Q312 645 282 670T251 735Q251 775 281 800T356 825Q400 825 430 800T460 735Q460
695 430 670T356 645ZM358 671Q377 671 387 688T398 734Q398 766 386 782T354 798Q335 798 324 782T313 735Q313 704 326 688T358 671Z" />
<glyph unicode="&#xc6;" horiz-adv-x="914" d="M208 270H488V235H208V270ZM843 190H878L835 0H348V35H422L428 41V576H423L105 41L110 35H192V0H-8V35H50L428 670H825L861 510L828 500Q812 553 787 582T723 623T628 635H540L533 629V365H605Q648 365 672 388T699
475H734V220H699Q696 283 672 306T605 330H533V41L540 35H638Q722 35 770 73T843 190Z" />
<glyph unicode="&#xc7;" horiz-adv-x="685" d="M392 36Q457 36 516 68T630 164L657 141Q604 71 534 31T372 -10H371Q302 -10 243 15T140 87T72 195T48 330Q48 407 74 471T148 582T257 654T389 680Q440 680 480 667T555 632L575 670H610Q614 619 621 568T639 470L606
460Q587 514 561 549T504 604T444 632T386 640Q316 640 265 601T187 494T159 337Q159 250 186 182T266 75T392 36ZM377 -250Q331 -250 286 -220L298 -188Q318 -201 335 -206T369 -211Q397 -211 407 -199T418 -172Q418 -147 395 -131T329 -103L367 0H407L374 -89L357
-41Q391 -45 422 -59T472 -96T491 -152Q491 -193 459 -221T377 -250Z" />
<glyph unicode="&#xc8;" horiz-adv-x="632" d="M561 190H596L553 0H45V35H120L126 41V629L120 635H45V670H543L579 510L546 500Q529 553 504 582T440 623T346 635H237L231 629V346L186 365H322Q365 365 389 388T417 475H452V220H417Q414 283 390 306T322 330H186L231
350V41L237 35H356Q439 35 487 73T561 190ZM182 867H304L360 725H330L182 867Z" />
<glyph unicode="&#xc9;" horiz-adv-x="632" d="M561 190H596L553 0H45V35H120L126 41V629L120 635H45V670H543L579 510L546 500Q529 553 504 582T440 623T346 635H237L231 629V346L186 365H322Q365 365 389 388T417 475H452V220H417Q414 283 390 306T322 330H186L231
350V41L237 35H356Q439 35 487 73T561 190ZM478 867L330 725H300L357 867H478Z" />
<glyph unicode="&#xca;" horiz-adv-x="632" d="M561 190H596L553 0H45V35H120L126 41V629L120 635H45V670H543L579 510L546 500Q529 553 504 582T440 623T346 635H237L231 629V346L186 365H322Q365 365 389 388T417 475H452V220H417Q414 283 390 306T322 330H186L231
350V41L237 35H356Q439 35 487 73T561 190ZM445 725L327 781L207 725H177L311 867H342L475 725H445Z" />
<glyph unicode="&#xcb;" horiz-adv-x="632" d="M561 190H596L553 0H45V35H120L126 41V629L120 635H45V670H543L579 510L546 500Q529 553 504 582T440 623T346 635H237L231 629V346L186 365H322Q365 365 389 388T417 475H452V220H417Q414 283 390 306T322 330H186L231
350V41L237 35H356Q439 35 487 73T561 190ZM214 736Q190 736 172 754T154 796Q154 822 172 839T214 857Q239 857 256 840T274 796Q274 772 257 754T214 736ZM439 736Q415 736 397 754T379 796Q379 822 397 839T439 857Q464 857 481 840T499 796Q499 772 482 754T439
736Z" />
<glyph unicode="&#xcc;" horiz-adv-x="392" d="M329 635H255L248 629V41L255 35H329V0H63V35H137L143 41V629L137 635H63V670H329V635ZM52 867H174L230 725H200L52 867Z" />
<glyph unicode="&#xcd;" horiz-adv-x="392" d="M329 635H255L248 629V41L255 35H329V0H63V35H137L143 41V629L137 635H63V670H329V635ZM348 867L200 725H170L227 867H348Z" />
<glyph unicode="&#xce;" horiz-adv-x="392" d="M329 635H255L248 629V41L255 35H329V0H63V35H137L143 41V629L137 635H63V670H329V635ZM314 725L196 781L76 725H46L180 867H211L344 725H314Z" />
<glyph unicode="&#xcf;" horiz-adv-x="392" d="M329 635H255L248 629V41L255 35H329V0H63V35H137L143 41V629L137 635H63V670H329V635ZM84 736Q60 736 42 754T24 796Q24 822 42 839T84 857Q109 857 126 840T144 796Q144 772 127 754T84 736ZM309 736Q285 736 267
754T249 796Q249 822 267 839T309 857Q334 857 351 840T369 796Q369 772 352 754T309 736Z" />
<glyph unicode="&#xd0;" horiz-adv-x="751" d="M45 0V35H120L126 41V629L120 635H45V670H363Q438 670 500 649T607 586T678 485T703 347Q703 271 677 207T604 97T496 26T363 0H45ZM53 317V352H389V317H53ZM237 35H354Q425 35 478 71T562 175T592 335Q592 423 561
491T472 597T339 635H237L231 629V41L237 35Z" />
<glyph unicode="&#xd1;" horiz-adv-x="748" d="M569 0L176 527H171L126 629L120 635H45V670H201L594 143H599V0H569ZM45 0V35H120L126 41V629L171 527V41L177 35H258V0H45ZM717 670V635H650L644 629V0H599V629L593 635H512V670H717ZM528 853L556 838Q546 778 517
755T454 731Q422 731 392 745T335 774T284 788Q268 788 254 778T229 735L201 750Q210 808 239 832T301 857Q332 857 362 843T421 815T473 801Q488 801 502 811T528 853Z" />
<glyph unicode="&#xd2;" horiz-adv-x="745" d="M372 680Q468 680 541 636T655 514T697 335Q697 261 672 198T603 89T499 16T372 -10Q277 -10 204 34T89 156T48 335Q48 409 72 472T141 581T245 654T372 680ZM382 30Q447 30 492 68T562 174T586 333Q586 420 560
489T484 599T362 640Q299 640 253 602T183 496T159 337Q159 250 185 181T261 71T382 30ZM228 867H350L406 725H376L228 867Z" />
<glyph unicode="&#xd3;" horiz-adv-x="745" d="M372 680Q468 680 541 636T655 514T697 335Q697 261 672 198T603 89T499 16T372 -10Q277 -10 204 34T89 156T48 335Q48 409 72 472T141 581T245 654T372 680ZM382 30Q447 30 492 68T562 174T586 333Q586 420 560
489T484 599T362 640Q299 640 253 602T183 496T159 337Q159 250 185 181T261 71T382 30ZM524 867L376 725H346L403 867H524Z" />
<glyph unicode="&#xd4;" horiz-adv-x="745" d="M372 680Q468 680 541 636T655 514T697 335Q697 261 672 198T603 89T499 16T372 -10Q277 -10 204 34T89 156T48 335Q48 409 72 472T141 581T245 654T372 680ZM382 30Q447 30 492 68T562 174T586 333Q586 420 560
489T484 599T362 640Q299 640 253 602T183 496T159 337Q159 250 185 181T261 71T382 30ZM491 725L373 781L253 725H223L357 867H388L521 725H491Z" />
<glyph unicode="&#xd5;" horiz-adv-x="745" d="M372 680Q468 680 541 636T655 514T697 335Q697 261 672 198T603 89T499 16T372 -10Q277 -10 204 34T89 156T48 335Q48 409 72 472T141 581T245 654T372 680ZM382 30Q447 30 492 68T562 174T586 333Q586 420 560
489T484 599T362 640Q299 640 253 602T183 496T159 337Q159 250 185 181T261 71T382 30ZM522 853L550 838Q540 778 511 755T448 731Q416 731 386 745T329 774T278 788Q262 788 248 778T223 735L195 750Q204 808 233 832T295 857Q326 857 356 843T415 815T467 801Q482
801 496 811T522 853Z" />
<glyph unicode="&#xd6;" horiz-adv-x="745" d="M372 680Q468 680 541 636T655 514T697 335Q697 261 672 198T603 89T499 16T372 -10Q277 -10 204 34T89 156T48 335Q48 409 72 472T141 581T245 654T372 680ZM382 30Q447 30 492 68T562 174T586 333Q586 420 560
489T484 599T362 640Q299 640 253 602T183 496T159 337Q159 250 185 181T261 71T382 30ZM260 736Q236 736 218 754T200 796Q200 822 218 839T260 857Q285 857 302 840T320 796Q320 772 303 754T260 736ZM485 736Q461 736 443 754T425 796Q425 822 443 839T485 857Q510
857 527 840T545 796Q545 772 528 754T485 736Z" />
<glyph unicode="&#xd7;" horiz-adv-x="470" d="M25 134L420 530L445 505L50 109L25 134ZM50 531L445 135L420 110L25 506L50 531Z" />
<glyph unicode="&#xd8;" horiz-adv-x="745" d="M225 -100L257 9Q194 32 147 78T74 190T48 335Q48 409 72 472T141 581T245 654T372 680Q393 680 413 678T452 671L481 770H519L488 661Q552 638 599 592T671 480T697 335Q697 261 672 198T603 89T499 16T372 -10Q351
-10 332 -8T292 -1L263 -100H225ZM273 64L438 624Q405 640 362 640Q299 640 253 602T183 496T159 337Q159 246 188 173T273 64ZM382 30Q447 30 492 68T562 174T586 333Q586 425 557 497T471 606L306 46Q339 30 382 30Z" />
<glyph unicode="&#xd9;" horiz-adv-x="726" d="M489 635V670H694V635H628L621 629V245Q621 166 590 109T505 21T381 -10Q291 -10 231 22T142 110T112 233V629L106 635H32V670H298V635H223L217 629V247Q217 187 236 141T295 67T393 40Q444 40 485 64T551 134T576
245V629L570 635H489ZM245 867H367L423 725H393L245 867Z" />
<glyph unicode="&#xda;" horiz-adv-x="726" d="M489 635V670H694V635H628L621 629V245Q621 166 590 109T505 21T381 -10Q291 -10 231 22T142 110T112 233V629L106 635H32V670H298V635H223L217 629V247Q217 187 236 141T295 67T393 40Q444 40 485 64T551 134T576
245V629L570 635H489ZM541 867L393 725H363L420 867H541Z" />
<glyph unicode="&#xdb;" horiz-adv-x="726" d="M489 635V670H694V635H628L621 629V245Q621 166 590 109T505 21T381 -10Q291 -10 231 22T142 110T112 233V629L106 635H32V670H298V635H223L217 629V247Q217 187 236 141T295 67T393 40Q444 40 485 64T551 134T576
245V629L570 635H489ZM507 725L389 781L269 725H239L373 867H404L537 725H507Z" />
<glyph unicode="&#xdc;" horiz-adv-x="726" d="M489 635V670H694V635H628L621 629V245Q621 166 590 109T505 21T381 -10Q291 -10 231 22T142 110T112 233V629L106 635H32V670H298V635H223L217 629V247Q217 187 236 141T295 67T393 40Q444 40 485 64T551 134T576
245V629L570 635H489ZM277 736Q253 736 235 754T217 796Q217 822 235 839T277 857Q302 857 319 840T337 796Q337 772 320 754T277 736ZM502 736Q478 736 460 754T442 796Q442 822 460 839T502 857Q527 857 544 840T562 796Q562 772 545 754T502 736Z" />
<glyph unicode="&#xdd;" horiz-adv-x="648" d="M9 635V670H272V635H205L199 629L360 340H365L527 629L521 635H436V670H639V635H580L382 281V41L389 35H463V0H197V35H271L277 41V281L76 635H9ZM501 867L353 725H323L380 867H501Z" />
<glyph unicode="&#xde;" horiz-adv-x="629" d="M45 0V35H120L126 41V629L120 635H45V670H311V635H237L231 629V541L186 552H332Q381 552 430 543T521 511T588 449T614 350Q614 292 588 251T518 183T426 145T332 132H186L231 141V41L237 35H311V0H45ZM231 157L186
167H307Q359 167 403 180T475 232T503 342Q503 406 475 444T402 499T307 517H186L231 531V157Z" />
<glyph unicode="&#xdf;" horiz-adv-x="629" d="M420 404Q420 371 439 348T486 306T543 264T591 210T610 131Q610 81 587 50T529 5T459 -10Q420 -10 395 2T349 28L336 0H298Q292 39 283 77T262 155L295 165Q336 94 381 60T462 25Q491 25 513 44T535 96Q535 128
516 150T468 191T410 234T362 290T343 370Q343 405 353 430T378 475T409 514T435 554T446 605Q446 650 417 679T339 709Q292 709 264 682T222 607T208 500V0H38V35H107L113 41V423L107 430H38V465H113V496Q113 577 143 631T224 712T336 740Q414 740 449 700T484
602Q484 567 475 541T452 492T430 449T420 404Z" />
<glyph unicode="&#xe0;" horiz-adv-x="535" d="M437 -10Q403 -10 379 4T345 48V301Q345 363 323 398T243 433Q214 433 190 427T143 406Q159 397 166 384T173 353Q173 330 157 315T118 299Q95 299 80 315T64 359Q64 387 81 408T127 444T191 467T261 475Q310 475
350 461T415 413T440 316V83Q440 69 446 56T472 42Q485 42 495 51T516 73L543 50Q531 33 517 19T483 -2T437 -10ZM202 -10Q123 -10 79 29T34 124Q34 181 78 219T202 258Q254 258 289 241T345 200V154Q316 186 285 199T225 212Q180 212 155 188T129 124Q129 85 154
61T225 36Q253 36 284 48T345 93V48Q324 24 289 7T202 -10ZM260 548L154 720H256L290 548H260Z" />
<glyph unicode="&#xe1;" horiz-adv-x="535" d="M437 -10Q403 -10 379 4T345 48V301Q345 363 323 398T243 433Q214 433 190 427T143 406Q159 397 166 384T173 353Q173 330 157 315T118 299Q95 299 80 315T64 359Q64 387 81 408T127 444T191 467T261 475Q310 475
350 461T415 413T440 316V83Q440 69 446 56T472 42Q485 42 495 51T516 73L543 50Q531 33 517 19T483 -2T437 -10ZM202 -10Q123 -10 79 29T34 124Q34 181 78 219T202 258Q254 258 289 241T345 200V154Q316 186 285 199T225 212Q180 212 155 188T129 124Q129 85 154
61T225 36Q253 36 284 48T345 93V48Q324 24 289 7T202 -10ZM247 548L281 720H383L277 548H247Z" />
<glyph unicode="&#xe2;" horiz-adv-x="535" d="M437 -10Q403 -10 379 4T345 48V301Q345 363 323 398T243 433Q214 433 190 427T143 406Q159 397 166 384T173 353Q173 330 157 315T118 299Q95 299 80 315T64 359Q64 387 81 408T127 444T191 467T261 475Q310 475
350 461T415 413T440 316V83Q440 69 446 56T472 42Q485 42 495 51T516 73L543 50Q531 33 517 19T483 -2T437 -10ZM202 -10Q123 -10 79 29T34 124Q34 181 78 219T202 258Q254 258 289 241T345 200V154Q316 186 285 199T225 212Q180 212 155 188T129 124Q129 85 154
61T225 36Q253 36 284 48T345 93V48Q324 24 289 7T202 -10ZM135 548L249 720H280L393 548H363L231 660H298L165 548H135Z" />
<glyph unicode="&#xe3;" horiz-adv-x="535" d="M437 -10Q403 -10 379 4T345 48V301Q345 363 323 398T243 433Q214 433 190 427T143 406Q159 397 166 384T173 353Q173 330 157 315T118 299Q95 299 80 315T64 359Q64 387 81 408T127 444T191 467T261 475Q310 475
350 461T415 413T440 316V83Q440 69 446 56T472 42Q485 42 495 51T516 73L543 50Q531 33 517 19T483 -2T437 -10ZM202 -10Q123 -10 79 29T34 124Q34 181 78 219T202 258Q254 258 289 241T345 200V154Q316 186 285 199T225 212Q180 212 155 188T129 124Q129 85 154
61T225 36Q253 36 284 48T345 93V48Q324 24 289 7T202 -10ZM328 562Q305 562 288 570T257 589T230 609T198 618Q183 618 169 608T143 566L115 581Q125 639 154 663T216 687Q239 687 256 679T287 660T315 640T348 631Q363 631 377 641T402 683L430 668Q421 608 391
585T328 562Z" />
<glyph unicode="&#xe4;" horiz-adv-x="535" d="M437 -10Q403 -10 379 4T345 48V301Q345 363 323 398T243 433Q214 433 190 427T143 406Q159 397 166 384T173 353Q173 330 157 315T118 299Q95 299 80 315T64 359Q64 387 81 408T127 444T191 467T261 475Q310 475
350 461T415 413T440 316V83Q440 69 446 56T472 42Q485 42 495 51T516 73L543 50Q531 33 517 19T483 -2T437 -10ZM202 -10Q123 -10 79 29T34 124Q34 181 78 219T202 258Q254 258 289 241T345 200V154Q316 186 285 199T225 212Q180 212 155 188T129 124Q129 85 154
61T225 36Q253 36 284 48T345 93V48Q324 24 289 7T202 -10ZM375 567Q351 567 333 585T315 627Q315 652 333 669T375 687Q400 687 417 670T435 627Q435 603 418 585T375 567ZM171 567Q147 567 129 585T111 627Q111 652 129 669T171 687Q196 687 213 670T231 627Q231
603 214 585T171 567Z" />
<glyph unicode="&#xe5;" horiz-adv-x="535" d="M437 -10Q403 -10 379 4T345 48V301Q345 363 323 398T243 433Q214 433 190 427T143 406Q159 397 166 384T173 353Q173 330 157 315T118 299Q95 299 80 315T64 359Q64 387 81 408T127 444T191 467T261 475Q310 475
350 461T415 413T440 316V83Q440 69 446 56T472 42Q485 42 495 51T516 73L543 50Q531 33 517 19T483 -2T437 -10ZM202 -10Q123 -10 79 29T34 124Q34 181 78 219T202 258Q254 258 289 241T345 200V154Q316 186 285 199T225 212Q180 212 155 188T129 124Q129 85 154
61T225 36Q253 36 284 48T345 93V48Q324 24 289 7T202 -10ZM273 537Q229 537 199 562T168 627Q168 667 198 692T273 717Q317 717 347 692T377 627Q377 587 347 562T273 537ZM275 563Q294 563 304 580T315 627Q315 658 303 674T271 691Q252 691 241 675T230 628Q230
597 243 580T275 563Z" />
<glyph unicode="&#xe6;" horiz-adv-x="803" d="M579 32Q632 32 669 56T734 109L761 86Q740 61 713 39T650 4T560 -10Q505 -10 457 12T376 75Q340 36 296 13T201 -10Q122 -10 78 29T34 124Q34 181 78 219T201 258Q242 258 275 247T329 218Q329 257 332 295T331
365T308 414T243 433Q212 433 187 427T140 406Q156 397 163 384T171 353Q171 330 155 315T116 299Q93 299 78 315T62 359Q62 387 79 408T125 444T189 467T259 475Q307 475 345 463T404 419Q469 475 560 475Q620 475 666 451T739 376T766 250H414V285H656Q652 360
629 400T553 440Q510 440 482 414T441 340T428 232Q428 172 448 127T503 57T579 32ZM225 36Q252 36 288 52T356 105Q339 134 332 167Q305 191 278 201T225 212Q180 212 155 188T129 124Q129 85 154 61T225 36Z" />
<glyph unicode="&#xe7;" horiz-adv-x="505" d="M282 -10Q217 -10 164 19T79 102T47 229Q47 307 81 361T172 445T296 475Q344 475 384 459T448 414T472 348Q472 321 457 305T418 289Q396 289 380 304T363 343Q363 360 373 375T409 396Q389 417 361 428T296 440Q243
440 212 414T165 341T150 238Q150 173 169 127T223 57T299 32Q342 32 380 57T450 125L477 102Q453 69 426 44T363 5T282 -10ZM284 -250Q238 -250 193 -220L205 -188Q225 -201 242 -206T276 -211Q304 -211 314 -199T325 -172Q325 -147 302 -131T236 -103L274 0H314L281
-89L264 -41Q298 -45 329 -59T379 -96T398 -152Q398 -193 366 -221T284 -250Z" />
<glyph unicode="&#xe8;" horiz-adv-x="526" d="M302 32Q354 32 391 56T456 109L483 86Q462 61 436 39T372 4T282 -10Q219 -10 166 19T80 102T47 232Q47 307 79 361T165 445T282 475Q345 475 391 451T462 376T488 250H137V285H379Q375 360 352 400T276 440Q232
440 205 414T164 340T150 232Q150 172 170 127T225 57T302 32ZM255 548L149 720H251L285 548H255Z" />
<glyph unicode="&#xe9;" horiz-adv-x="526" d="M302 32Q354 32 391 56T456 109L483 86Q462 61 436 39T372 4T282 -10Q219 -10 166 19T80 102T47 232Q47 307 79 361T165 445T282 475Q345 475 391 451T462 376T488 250H137V285H379Q375 360 352 400T276 440Q232
440 205 414T164 340T150 232Q150 172 170 127T225 57T302 32ZM243 548L277 720H379L273 548H243Z" />
<glyph unicode="&#xea;" horiz-adv-x="526" d="M302 32Q354 32 391 56T456 109L483 86Q462 61 436 39T372 4T282 -10Q219 -10 166 19T80 102T47 232Q47 307 79 361T165 445T282 475Q345 475 391 451T462 376T488 250H137V285H379Q375 360 352 400T276 440Q232
440 205 414T164 340T150 232Q150 172 170 127T225 57T302 32ZM130 548L244 720H275L388 548H358L226 660H293L160 548H130Z" />
<glyph unicode="&#xeb;" horiz-adv-x="526" d="M302 32Q354 32 391 56T456 109L483 86Q462 61 436 39T372 4T282 -10Q219 -10 166 19T80 102T47 232Q47 307 79 361T165 445T282 475Q345 475 391 451T462 376T488 250H137V285H379Q375 360 352 400T276 440Q232
440 205 414T164 340T150 232Q150 172 170 127T225 57T302 32ZM370 567Q346 567 328 585T310 627Q310 652 328 669T370 687Q395 687 412 670T430 627Q430 603 413 585T370 567ZM166 567Q142 567 124 585T106 627Q106 652 124 669T166 687Q191 687 208 670T226 627Q226
603 209 585T166 567Z" />
<glyph unicode="&#xec;" horiz-adv-x="321" d="M214 35H283V0H38V35H107L113 41V423L107 430H38V465Q64 465 92 465T148 467T202 471L208 465V41L214 35ZM144 548L38 720H140L174 548H144Z" />
<glyph unicode="&#xed;" horiz-adv-x="321" d="M214 35H283V0H38V35H107L113 41V423L107 430H38V465Q64 465 92 465T148 467T202 471L208 465V41L214 35ZM131 548L165 720H267L161 548H131Z" />
<glyph unicode="&#xee;" horiz-adv-x="321" d="M214 35H283V0H38V35H107L113 41V423L107 430H38V465Q64 465 92 465T148 467T202 471L208 465V41L214 35ZM19 548L133 720H164L277 548H247L115 660H182L49 548H19Z" />
<glyph unicode="&#xef;" horiz-adv-x="321" d="M214 35H283V0H38V35H107L113 41V423L107 430H38V465Q64 465 92 465T148 467T202 471L208 465V41L214 35ZM514 567Q490 567 472 585T454 627Q454 652 472 669T514 687Q539 687 556 670T574 627Q574 603 557 585T514
567ZM310 567Q286 567 268 585T250 627Q250 652 268 669T310 687Q335 687 352 670T370 627Q370 603 353 585T310 567Z" />
<glyph unicode="&#xf0;" horiz-adv-x="565" d="M365 751L163 549L139 574L341 776L365 751ZM139 751Q264 708 348 633T475 459T518 242Q518 162 486 106T401 20T282 -10Q218 -10 165 19T79 99T47 220Q47 289 78 340T161 421T278 450Q318 450 349 434T401 390Q386
458 350 521T254 637T112 728L139 751ZM287 25Q322 25 346 40T384 82T405 143T412 216Q412 274 394 319T346 389T277 415Q243 415 219 400T181 358T160 297T153 224Q153 167 171 122T219 51T287 25Z" />
<glyph unicode="&#xf1;" horiz-adv-x="642" d="M529 41L535 35H605V0H359V35H428L434 41V327Q434 376 417 401T358 427Q319 427 283 400T208 307V41L214 35H283V0H38V35H107L113 41V423L107 430H38V465Q64 465 90 465T143 467T196 471L202 465V372H208Q236 417
278 446T387 475Q440 475 471 458T515 411T529 345V41ZM376 562Q353 562 336 570T305 589T278 609T246 618Q231 618 217 608T191 566L163 581Q173 639 202 663T264 687Q287 687 304 679T335 660T363 640T396 631Q411 631 425 641T450 683L478 668Q469 608 439 585T376
562Z" />
<glyph unicode="&#xf2;" horiz-adv-x="565" d="M282 475Q347 475 400 446T486 362T518 232Q518 157 486 103T401 19T282 -10Q218 -10 165 19T79 102T47 232Q47 307 79 361T164 445T282 475ZM287 25Q334 25 361 52T400 125T412 229Q412 292 394 339T346 413T277
440Q232 440 204 413T165 340T153 236Q153 173 171 126T219 52T287 25ZM270 548L164 720H266L300 548H270Z" />
<glyph unicode="&#xf3;" horiz-adv-x="565" d="M282 475Q347 475 400 446T486 362T518 232Q518 157 486 103T401 19T282 -10Q218 -10 165 19T79 102T47 232Q47 307 79 361T164 445T282 475ZM287 25Q334 25 361 52T400 125T412 229Q412 292 394 339T346 413T277
440Q232 440 204 413T165 340T153 236Q153 173 171 126T219 52T287 25ZM257 548L291 720H393L287 548H257Z" />
<glyph unicode="&#xf4;" horiz-adv-x="565" d="M282 475Q347 475 400 446T486 362T518 232Q518 157 486 103T401 19T282 -10Q218 -10 165 19T79 102T47 232Q47 307 79 361T164 445T282 475ZM287 25Q334 25 361 52T400 125T412 229Q412 292 394 339T346 413T277
440Q232 440 204 413T165 340T153 236Q153 173 171 126T219 52T287 25ZM145 548L259 720H290L403 548H373L241 660H308L175 548H145Z" />
<glyph unicode="&#xf5;" horiz-adv-x="565" d="M282 475Q347 475 400 446T486 362T518 232Q518 157 486 103T401 19T282 -10Q218 -10 165 19T79 102T47 232Q47 307 79 361T164 445T282 475ZM287 25Q334 25 361 52T400 125T412 229Q412 292 394 339T346 413T277
440Q232 440 204 413T165 340T153 236Q153 173 171 126T219 52T287 25ZM338 562Q315 562 298 570T267 589T240 609T208 618Q193 618 179 608T153 566L125 581Q135 639 164 663T226 687Q249 687 266 679T297 660T325 640T358 631Q373 631 387 641T412 683L440 668Q431
608 401 585T338 562Z" />
<glyph unicode="&#xf6;" horiz-adv-x="565" d="M282 475Q347 475 400 446T486 362T518 232Q518 157 486 103T401 19T282 -10Q218 -10 165 19T79 102T47 232Q47 307 79 361T164 445T282 475ZM287 25Q334 25 361 52T400 125T412 229Q412 292 394 339T346 413T277
440Q232 440 204 413T165 340T153 236Q153 173 171 126T219 52T287 25ZM384 567Q360 567 342 585T324 627Q324 652 342 669T384 687Q409 687 426 670T444 627Q444 603 427 585T384 567ZM180 567Q156 567 138 585T120 627Q120 652 138 669T180 687Q205 687 222 670T240
627Q240 603 223 585T180 567Z" />
<glyph unicode="&#xf7;" horiz-adv-x="510" d="M25 337H485V302H25V337ZM255 117Q231 117 213 135T195 177Q195 202 213 219T255 237Q280 237 297 220T315 177Q315 153 298 135T255 117ZM255 402Q231 402 213 420T195 462Q195 487 213 504T255 522Q280 522 297
505T315 462Q315 438 298 420T255 402Z" />
<glyph unicode="&#xf8;" horiz-adv-x="565" d="M163 -100L364 580H402L201 -100H163ZM282 475Q347 475 400 446T486 362T518 232Q518 157 486 103T401 19T282 -10Q218 -10 165 19T79 102T47 232Q47 307 79 361T164 445T282 475ZM287 25Q334 25 361 52T400 125T412
229Q412 292 394 339T346 413T277 440Q232 440 204 413T165 340T153 236Q153 173 171 126T219 52T287 25Z" />
<glyph unicode="&#xf9;" horiz-adv-x="604" d="M499 41L505 35H574V0Q548 0 522 0T469 -2T416 -6L410 0V93H404Q376 47 334 19T227 -10Q176 -10 147 7T104 54T90 120V423L84 430H15V465Q41 465 69 465T125 467T179 471L185 465V138Q185 89 200 63T255 37Q295 37
329 64T404 158V423L398 430H329V465Q355 465 383 465T439 467T493 471L499 465V41ZM290 548L184 720H286L320 548H290Z" />
<glyph unicode="&#xfa;" horiz-adv-x="604" d="M499 41L505 35H574V0Q548 0 522 0T469 -2T416 -6L410 0V93H404Q376 47 334 19T227 -10Q176 -10 147 7T104 54T90 120V423L84 430H15V465Q41 465 69 465T125 467T179 471L185 465V138Q185 89 200 63T255 37Q295 37
329 64T404 158V423L398 430H329V465Q355 465 383 465T439 467T493 471L499 465V41ZM277 548L311 720H413L307 548H277Z" />
<glyph unicode="&#xfb;" horiz-adv-x="604" d="M499 41L505 35H574V0Q548 0 522 0T469 -2T416 -6L410 0V93H404Q376 47 334 19T227 -10Q176 -10 147 7T104 54T90 120V423L84 430H15V465Q41 465 69 465T125 467T179 471L185 465V138Q185 89 200 63T255 37Q295 37
329 64T404 158V423L398 430H329V465Q355 465 383 465T439 467T493 471L499 465V41ZM165 548L279 720H310L423 548H393L261 660H328L195 548H165Z" />
<glyph unicode="&#xfc;" horiz-adv-x="604" d="M499 41L505 35H574V0Q548 0 522 0T469 -2T416 -6L410 0V93H404Q376 47 334 19T227 -10Q176 -10 147 7T104 54T90 120V423L84 430H15V465Q41 465 69 465T125 467T179 471L185 465V138Q185 89 200 63T255 37Q295 37
329 64T404 158V423L398 430H329V465Q355 465 383 465T439 467T493 471L499 465V41ZM404 567Q380 567 362 585T344 627Q344 652 362 669T404 687Q429 687 446 670T464 627Q464 603 447 585T404 567ZM200 567Q176 567 158 585T140 627Q140 652 158 669T200 687Q225
687 242 670T260 627Q260 603 243 585T200 567Z" />
<glyph unicode="&#xfd;" horiz-adv-x="520" d="M242 -29L57 430H-9V465H232V430H171L165 423L287 106H292L411 423L405 430H335V465H519V430H459L295 0L242 -29ZM97 -260Q59 -260 38 -245T9 -208T1 -172Q1 -147 16 -131T54 -115Q76 -115 91 -130T107 -168Q107
-190 92 -203T54 -217Q41 -217 32 -211T17 -194T11 -172H41Q41 -183 46 -196T63 -219T98 -229Q130 -229 155 -201T201 -126T242 -29L295 0Q275 -49 256 -95T216 -179T165 -238T97 -260ZM254 548L288 720H390L284 548H254Z" />
<glyph unicode="&#xfe;" horiz-adv-x="599" d="M16 -250V-215H85L92 -209V689L85 695H16V730Q42 730 70 730T126 732T180 736L187 730V381Q206 416 246 445T343 475Q404 475 451 445T526 361T553 234Q553 161 526 106T452 21T343 -10Q282 -10 244 17T187 84V-209L193
-215H300V-250H16ZM325 37Q378 37 412 80T447 222Q447 320 413 373T325 427Q287 427 251 401T187 310V155Q215 91 251 64T325 37Z" />
<glyph unicode="&#xff;" horiz-adv-x="520" d="M242 -29L57 430H-9V465H232V430H171L165 423L287 106H292L411 423L405 430H335V465H519V430H459L295 0L242 -29ZM97 -260Q59 -260 38 -245T9 -208T1 -172Q1 -147 16 -131T54 -115Q76 -115 91 -130T107 -168Q107
-190 92 -203T54 -217Q41 -217 32 -211T17 -194T11 -172H41Q41 -183 46 -196T63 -219T98 -229Q130 -229 155 -201T201 -126T242 -29L295 0Q275 -49 256 -95T216 -179T165 -238T97 -260ZM381 567Q357 567 339 585T321 627Q321 652 339 669T381 687Q406 687 423 670T441
627Q441 603 424 585T381 567ZM177 567Q153 567 135 585T117 627Q117 652 135 669T177 687Q202 687 219 670T237 627Q237 603 220 585T177 567Z" />
<glyph unicode="&#x2013;" horiz-adv-x="500" d="M1 305H501L500 270H0L1 305Z" />
<glyph unicode="&#x2014;" horiz-adv-x="800" d="M0 305H800V270H0V305Z" />
<glyph unicode="&#x2018;" horiz-adv-x="204" d="M101 398Q69 398 52 420T34 477Q34 521 47 557T84 626T136 687L163 664Q130 629 109 591T86 521Q91 522 94 522T101 522Q127 522 145 504T163 460Q163 435 145 417T101 398Z" />
<glyph unicode="&#x2019;" horiz-adv-x="204" d="M103 680Q136 680 153 658T170 601Q170 558 157 521T120 452T68 391L41 414Q75 450 96 487T119 557Q115 556 111 556T103 556Q79 556 61 574T42 618Q42 644 60 662T103 680Z" />
<glyph unicode="&#x201a;" horiz-adv-x="204" d="M103 114Q136 114 153 92T170 35Q170 -8 157 -45T120 -114T68 -175L41 -152Q75 -116 96 -79T119 -9Q115 -10 111 -10T103 -10Q79 -10 61 8T42 52Q42 78 60 96T103 114Z" />
<glyph unicode="&#x201c;" horiz-adv-x="373" d="M101 398Q69 398 52 420T34 477Q34 521 47 557T84 626T136 687L163 664Q130 629 109 591T86 521Q91 522 94 522T101 522Q127 522 145 504T163 460Q163 435 145 417T101 398ZM270 398Q238 398 221 420T203 477Q203
521 216 557T253 626T305 687L332 664Q299 629 278 591T255 521Q260 522 263 522T270 522Q296 522 314 504T332 460Q332 435 315 417T270 398Z" />
<glyph unicode="&#x201d;" horiz-adv-x="373" d="M272 680Q305 680 322 658T340 601Q340 558 327 521T290 452T237 391L210 414Q244 450 265 487T288 557Q284 556 280 556T273 556Q248 556 230 574T211 618Q211 644 229 662T272 680ZM103 680Q136 680 153 658T170
601Q170 558 157 521T120 452T68 391L41 414Q75 450 96 487T119 557Q115 556 111 556T103 556Q79 556 61 574T42 618Q42 644 60 662T103 680Z" />
<glyph unicode="&#x201e;" horiz-adv-x="373" d="M272 114Q305 114 322 92T340 35Q340 -8 327 -45T290 -114T237 -175L210 -152Q244 -116 265 -79T288 -9Q284 -10 280 -10T273 -10Q248 -10 230 8T211 52Q211 78 229 96T272 114ZM103 114Q136 114 153 92T170 35Q170
-8 157 -45T120 -114T68 -175L41 -152Q75 -116 96 -79T119 -9Q115 -10 111 -10T103 -10Q79 -10 61 8T42 52Q42 78 60 96T103 114Z" />
<glyph unicode="&#x2022;" horiz-adv-x="279" d="M139 252Q112 252 89 266T52 303T38 353Q38 381 52 404T89 441T139 455Q167 455 190 441T227 404T241 353Q241 326 227 303T190 266T139 252Z" />
<glyph unicode="&#x2039;" horiz-adv-x="233" d="M217 410L117 232L217 55L194 39L12 232L194 426L217 410Z" />
<glyph unicode="&#x203a;" horiz-adv-x="233" d="M16 410L39 426L221 232L39 39L16 55L116 232L16 410Z" />
</font>
</defs>
</svg>
