<?xml version="1.0" standalone="no"?>
<!DOCTYPE svg PUBLIC "-//W3C//DTD SVG 1.1//EN" "http://www.w3.org/Graphics/SVG/1.1/DTD/svg11.dtd">
<svg xmlns="http://www.w3.org/2000/svg">
<defs >
<font id="Brygada1918" horiz-adv-x="560" ><font-face
    font-family="Brygada 1918 SemiBold"
    units-per-em="1000"
    panose-1="0 0 0 0 0 0 0 0 0 0"
    ascent="920"
    descent="-250"
    alphabetic="0" />
<glyph unicode=" " horiz-adv-x="216" />
<glyph unicode="!" horiz-adv-x="209" d="M167 680Q196 680 212 658T219 599L114 194H83L92 599Q92 635 115 657T167 680ZM70 -10Q45 -10 28 8T10 51Q10 72 21 89T51 117T89 128Q116 128 132 110T149 66Q149 46 138 29T109 1T70 -10Z" />
<glyph unicode="&quot;" horiz-adv-x="378" d="M167 680Q185 680 200 670T221 642T217 598L141 382H110L93 598Q92 623 103 641T132 669T167 680ZM336 680Q353 680 368 670T389 642T386 598L309 382H278L262 598Q260 623 271 641T300 669T336 680Z" />
<glyph unicode="#" horiz-adv-x="676" d="M346 672H393L143 1H96L346 672ZM562 672H609L359 1H312L562 672ZM684 437H88L104 481H700L684 437ZM601 207H6L22 251H617L601 207Z" />
<glyph unicode="$" horiz-adv-x="608" d="M241 -100L364 770H399L276 -100H241ZM224 529Q224 492 247 468T307 425T385 389T462 348T522 288T546 196Q546 133 514 87T424 15T292 -10Q237 -10 192 3T116 36L92 1H57Q60 35 60 75T58 153T53 223L87 233Q109 156 143
112T217 49T295 30Q335 30 368 43T420 83T440 148Q440 188 417 214T358 260T280 298T202 341T142 399T119 486Q119 545 150 588T236 656T364 680Q410 680 447 669T516 634L540 670H575Q572 619 573 567T578 467L544 457Q531 513 510 548T463 604T411 632T359 640Q297
640 261 608T224 529Z" />
<glyph unicode="%" horiz-adv-x="872" d="M509 936Q570 936 606 889T642 765Q642 695 616 640T547 554T451 522Q390 522 354 569T317 693Q317 763 343 818T413 904T509 936ZM458 546Q479 546 494 563T520 609T538 669T548 732T551 786Q551 846 538 879T501 912Q481
912 466 896T439 854T421 795T411 731T407 672Q407 612 421 579T458 546ZM258 0L562 670H610L306 0H258ZM706 404Q767 404 803 357T839 233Q839 163 813 108T744 22T648 -10Q587 -10 551 37T514 161Q514 231 540 286T610 372T706 404ZM655 14Q676 14 691 31T717
77T735 137T745 200T748 254Q748 314 735 347T698 380Q678 380 663 364T636 322T618 263T608 199T604 140Q604 80 618 47T655 14Z" />
<glyph unicode="&amp;" horiz-adv-x="611" d="M269 -260Q222 -260 184 -246T123 -204T100 -141Q100 -109 118 -88T161 -67Q183 -67 196 -82T209 -119Q209 -145 191 -166T148 -188Q126 -188 118 -173T109 -142H133Q133 -165 150 -183T198 -213T265 -225Q317 -225
355 -202T413 -139T434 -48Q434 4 415 47T366 128T301 202T237 279T187 365T168 470Q168 523 185 563T231 628T296 667T372 680Q436 680 474 650T513 575Q513 548 498 529T459 509Q440 509 430 521T419 552Q419 575 434 594T474 613Q494 613 499 601T505 575H478Q478
602 452 623T385 645Q349 645 322 627T280 577T265 505Q265 457 284 415T333 335T398 258T462 179T512 89T531 -18Q531 -83 506 -129T442 -205T356 -247T269 -260ZM256 -10Q214 -10 174 -1T102 29T50 80T31 154Q31 197 49 232T98 295T170 345T257 383L274 357Q210
326 177 278T144 167Q144 108 176 72T275 35Q326 35 368 55T441 110T488 186T505 267Q505 301 494 330T466 383L497 400Q514 375 527 342T540 263Q540 213 522 164T469 76T380 14T256 -10Z" />
<glyph unicode="&apos;" horiz-adv-x="209" d="M167 680Q185 680 200 670T221 642T217 598L141 382H110L93 598Q92 623 103 641T132 669T167 680Z" />
<glyph unicode="(" horiz-adv-x="303" d="M76 240Q57 101 78 -25T155 -267L194 -250Q145 -146 124 -23T121 240Q141 380 197 503T332 730L297 747Q210 632 153 506T76 240Z" />
<glyph unicode=")" horiz-adv-x="303" d="M7 -250L42 -267Q129 -151 186 -25T263 240Q283 380 261 506T184 747L145 730Q194 626 216 503T218 240Q199 101 143 -22T7 -250Z" />
<glyph unicode="*" horiz-adv-x="487" d="M287 491L280 496L346 645Q356 667 377 676T415 675Q432 664 431 643T411 605L287 491ZM143 298Q125 309 126 331T146 369L270 483L278 478L212 328Q202 306 181 297T143 298ZM112 446Q90 441 75 451T60 482Q60 507 80
520T124 528L271 491L270 483L112 446ZM362 298Q341 288 323 297T301 328L278 478L286 483L378 369Q392 353 388 331T362 298ZM278 478L270 483L271 491L280 496L287 491L286 483L278 478ZM271 491L179 605Q165 622 169 643T195 675Q216 686 234 677T255 645L280
496L271 491ZM433 446L286 483L287 491L444 528Q466 533 481 523T497 492Q497 467 477 454T433 446Z" />
<glyph unicode="+" horiz-adv-x="510" d="M40 337H500L495 302H35L40 337ZM318 550L253 90H218L283 550H318Z" />
<glyph unicode="," horiz-adv-x="214" d="M91 128Q121 128 138 109T155 57Q155 14 136 -27T84 -104T12 -175L-12 -152Q28 -116 55 -79T89 -9Q85 -10 81 -10T72 -10Q47 -10 30 8T12 51Q12 82 35 105T91 128Z" />
<glyph unicode="-" horiz-adv-x="390" d="M50 305H359L350 240H41L50 305Z" />
<glyph unicode="." horiz-adv-x="209" d="M70 -10Q45 -10 28 8T10 51Q10 72 21 89T51 117T89 128Q116 128 132 110T149 66Q149 46 138 29T109 1T70 -10Z" />
<glyph unicode="/" horiz-adv-x="281" d="M-21 -60L283 730H331L27 -60H-21Z" />
<glyph unicode="0" horiz-adv-x="613" d="M369 680Q433 680 481 647T557 550T585 398Q585 304 560 229T491 100T391 19T272 -10Q209 -10 161 23T85 120T57 272Q57 366 82 441T151 570T251 651T369 680ZM286 30Q324 30 352 53T401 116T435 207T454 313T460 423Q460
531 432 585T356 640Q318 640 290 617T241 554T208 463T189 357T182 247Q182 139 210 85T286 30Z" />
<glyph unicode="1" horiz-adv-x="500" d="M175 42L246 550Q223 531 192 512T128 478L115 511Q138 521 166 538T224 576T281 622T328 670H383L295 42H175ZM43 0L48 35H168L175 42H295L302 35H420L415 0H43Z" />
<glyph unicode="2" horiz-adv-x="574" d="M7 0Q15 55 41 98T104 176T184 241T268 302T344 364T399 436T420 524Q420 556 409 582T372 624T306 640Q260 640 215 618T149 557Q178 560 198 544T218 500Q218 470 196 448T144 426Q120 426 102 442T84 496Q84 543 115
585T204 653T337 680Q368 680 404 673T472 649T524 601T545 522Q545 468 521 429T456 359T367 301T267 245T171 183T95 103H286Q344 103 383 109T448 137T494 202H529L456 0H7Z" />
<glyph unicode="3" horiz-adv-x="578" d="M342 351Q397 343 439 324T506 273T531 194Q531 145 506 107T440 43T348 4T242 -10Q179 -10 133 7T61 55T35 124Q35 164 59 188T113 213Q139 213 154 197T170 155Q170 126 149 105T100 83Q121 55 155 43T231 30Q317 30
360 75T404 196Q404 235 388 264T337 311T241 328L246 363Q283 363 314 374T370 406T408 459T422 530Q422 585 394 612T313 640Q267 640 228 620T167 567Q194 570 212 554T230 510Q230 480 207 458T154 436Q130 436 114 453T97 498Q97 531 115 563T168 622T247
664T346 680Q382 680 418 672T483 647T531 603T549 537Q549 488 522 451T448 388T342 351Z" />
<glyph unicode="4" horiz-adv-x="636" d="M445 42L452 35H520L515 0H243L248 35H318L325 42L397 550H394L94 217L93 212H565L560 177H33L37 207L456 670H531L445 42Z" />
<glyph unicode="5" horiz-adv-x="585" d="M548 567H186L145 380Q168 397 207 411T306 426Q413 426 470 374T527 239Q527 167 487 111T380 22T228 -10Q160 -10 117 10T52 63T31 132Q31 173 54 198T109 223Q135 223 151 207T167 165Q167 136 146 115T96 93Q113 63
147 47T225 30Q284 30 323 57T381 130T400 231Q400 277 387 311T348 366T278 386Q240 386 197 368T117 311L88 319L167 670H562L548 567Z" />
<glyph unicode="6" horiz-adv-x="596" d="M355 403Q402 403 446 386T519 329T548 227Q548 172 525 128T461 53T373 6T273 -10Q215 -10 165 15T85 100T55 261Q55 353 80 429T151 562T258 649T392 680Q452 680 493 661T555 612T576 547Q576 508 552 485T498 461Q473
461 457 478T440 519Q440 544 457 564T506 591Q494 613 463 626T396 640Q353 640 318 620T256 565T213 479T188 370T179 243Q179 163 191 117T226 50T282 30Q321 30 352 53T403 121T422 226Q422 298 396 329T329 361Q291 361 249 333T162 242L171 304Q202 350 248
376T355 403Z" />
<glyph unicode="7" horiz-adv-x="556" d="M568 670Q560 613 539 566T488 475T428 389T370 298T324 194T301 67Q300 35 280 13T227 -10Q199 -10 186 8T173 53Q173 116 197 168T260 267T343 360T428 456T496 567H309Q252 567 215 561T152 535T106 471L74 481L143 670H568Z" />
<glyph unicode="8" horiz-adv-x="567" d="M95 475Q95 424 117 391T175 337T250 298T325 264T383 221T406 156Q406 117 383 89T321 45T239 30Q214 30 186 36T134 56T95 94T80 153Q80 191 97 220T141 272T203 311T269 340L220 354Q174 338 132 310T62 240T34 144Q34
99 53 69T103 22T169 -3T238 -10Q267 -10 303 -4T376 15T445 53T496 114T515 203Q515 259 493 295T436 353T361 392T286 424T228 464T205 525Q205 557 223 583T273 624T349 640Q383 640 413 629T464 595T484 532Q484 487 449 446T329 366L384 356Q456 395 493 438T530
539Q530 588 506 619T442 665T351 680Q303 680 257 666T174 626T117 561T95 475Z" />
<glyph unicode="9" horiz-adv-x="598" d="M270 267Q224 267 180 284T106 341T77 443Q77 499 101 543T165 617T255 664T358 680Q400 680 438 668T507 627T554 546T572 417Q572 328 548 250T479 114T372 23T236 -10Q179 -10 138 8T76 57T54 121Q54 161 78 184T132
207Q158 207 174 190T190 148Q190 124 173 104T123 77Q136 54 167 42T231 30Q292 30 341 74T419 208T448 436Q448 502 439 547T408 616T345 640Q305 640 273 617T222 550T203 445Q203 373 229 341T295 309Q334 309 377 337T463 428L454 366Q423 321 377 294T270
267Z" />
<glyph unicode=":" horiz-adv-x="209" d="M70 -10Q45 -10 28 8T10 51Q10 72 21 89T51 117T89 128Q116 128 132 110T149 66Q149 46 138 29T109 1T70 -10ZM117 322Q91 322 74 340T57 383Q57 404 68 421T98 448T136 459Q162 459 179 441T196 398Q196 378 185 361T155
333T117 322Z" />
<glyph unicode=";" horiz-adv-x="215" d="M92 128Q122 128 138 109T155 57Q155 14 136 -27T84 -104T12 -175L-12 -152Q28 -116 55 -79T89 -9Q85 -10 81 -10T73 -10Q47 -10 30 8T13 51Q13 82 36 105T92 128ZM117 322Q91 322 74 340T57 383Q57 404 68 421T98 448T136
459Q162 459 179 441T196 398Q196 378 185 361T156 333T117 322Z" />
<glyph unicode="&lt;" horiz-adv-x="501" d="M518 537L512 494L95 322L94 317L463 145L457 102L35 302L40 337L518 537Z" />
<glyph unicode="=" horiz-adv-x="510" d="M51 417H511L506 382H46L51 417ZM29 257H489L484 222H24L29 257Z" />
<glyph unicode="&gt;" horiz-adv-x="501" d="M68 537L490 337L485 302L7 102L13 145L430 317L431 322L62 494L68 537Z" />
<glyph unicode="?" horiz-adv-x="470" d="M214 194Q211 208 210 223T208 249Q208 288 222 318T259 374T303 425T340 480T355 545Q355 586 333 611T264 636Q228 636 196 621T144 577Q173 580 191 564T209 521Q209 491 186 469T133 447Q110 447 93 463T76 513Q76
556 105 593T185 655T305 679Q351 679 390 666T453 625T478 552Q478 507 456 473T401 409T334 350T275 286T245 207Q245 204 245 201T244 194H214ZM198 -10Q173 -10 156 8T138 51Q138 72 149 89T179 117T217 128Q244 128 260 110T277 66Q277 46 266 29T237 1T198
-10Z" />
<glyph unicode="@" horiz-adv-x="942" d="M432 -169Q357 -169 288 -147T163 -80T76 32T43 188Q43 269 71 343T148 478T265 585T412 655T577 680Q673 680 749 648T869 550T914 385Q914 319 894 257T838 145T752 65T645 35Q583 35 560 69T542 158L621 450H716L637
162Q631 137 630 116T637 83T666 70Q700 70 727 101T773 182T802 288T813 391Q813 508 750 574T565 640Q473 640 398 604T268 504T182 359T152 189Q152 88 190 17T296 -91T450 -129Q514 -129 576 -110T692 -58L707 -89Q652 -123 583 -146T432 -169ZM403 35Q343
35 303 75T262 191Q262 241 281 289T333 375T411 437T508 460Q560 460 585 432T610 335Q610 287 597 235T559 137T495 64T403 35ZM428 70Q462 70 489 95T534 161T563 247T573 330Q573 376 559 400T511 425Q478 425 452 400T406 334T377 248T366 165Q366 121 381
96T428 70Z" />
<glyph unicode="A" horiz-adv-x="696" d="M171 0H-29L-24 35H34L374 670H445L599 35H663L658 0H395L400 35H463L470 42L355 538H350L86 42L94 35H176L171 0ZM172 266H498L493 231H167L172 266Z" />
<glyph unicode="B" horiz-adv-x="687" d="M470 352Q552 344 600 305T649 201Q649 148 623 110T554 48T463 12T372 0H8L13 35H83L90 42L173 628L165 635H97L102 670H426Q470 670 511 664T586 641T640 597T660 527Q660 481 637 447T572 389T470 352ZM300 635L293
628L255 360H358Q404 360 444 376T508 425T533 509Q533 554 515 581T465 622T392 635H300ZM348 35Q394 35 434 52T498 104T522 189Q522 256 482 290T388 325H250L211 42L218 35H348Z" />
<glyph unicode="C" horiz-adv-x="688" d="M375 37Q438 37 498 69T619 169L649 146Q585 68 512 29T343 -10H342Q257 -10 193 27T93 133T57 292Q57 377 88 448T174 571T301 651T453 680Q505 680 543 668T615 635L639 670H674Q670 619 670 565T672 463L638 453Q626
508 605 544T558 601T503 631T443 640Q383 640 335 614T254 541T203 430T185 293Q185 219 204 162T266 71T375 37Z" />
<glyph unicode="D" horiz-adv-x="754" d="M418 670Q485 670 541 653T639 600T704 513T727 389Q727 302 694 231T605 108T479 28T334 0H8L13 35H82L90 42L173 628L166 635H97L102 670H418ZM321 35Q378 35 428 60T516 132T577 241T599 378Q599 498 545 566T394 635H300L293
628L210 42L217 35H321Z" />
<glyph unicode="E" horiz-adv-x="636" d="M562 190H597L527 0H8L13 35H83L90 42L172 628L165 635H97L102 670H601L615 510L580 500Q569 553 545 582T483 623T392 635H299L292 628L255 365H335Q378 365 409 390T450 475H485L449 220H414Q420 279 397 304T330 330H250L210
42L217 35H328Q408 35 465 73T562 190Z" />
<glyph unicode="F" horiz-adv-x="574" d="M8 0L13 35H83L90 42L172 628L165 635H97L102 670H575L589 510L554 500Q544 553 520 582T458 623T366 635H299L292 628L252 345H347Q390 345 421 370T462 455H497L461 200H426Q432 259 409 284T342 310H247L210 42L217
35H318L313 0H8Z" />
<glyph unicode="G" horiz-adv-x="728" d="M481 320H723L718 285H668L661 278L622 0H587L538 70H533Q505 45 477 27T414 0T333 -10H332Q248 -10 186 28T90 132T56 284Q56 369 88 441T176 567T305 650T461 680Q519 680 560 667T629 635L653 670H688Q684 619 684
565T687 463L652 453Q637 525 606 565T534 623T451 640Q388 640 338 612T254 535T201 421T183 284Q183 215 202 159T259 70T355 37Q401 37 442 58T511 121T547 222L555 278L547 285H476L481 320Z" />
<glyph unicode="H" horiz-adv-x="774" d="M522 670H794L789 635H719L712 628L630 42L637 35H705L700 0H428L433 35H503L510 42L550 330H250L210 42L217 35H285L280 0H8L13 35H83L90 42L172 628L165 635H97L102 670H374L369 635H299L292 628L255 365H555L592 628L585
635H517L522 670Z" />
<glyph unicode="I" horiz-adv-x="364" d="M305 635L297 628L215 42L223 35H290L285 0H14L19 35H88L95 42L177 628L170 635H103L108 670H379L374 635H305Z" />
<glyph unicode="J" horiz-adv-x="456" d="M141 -10Q98 -10 69 5T25 45T10 98Q10 135 32 156T83 177Q110 177 127 161T144 118Q144 87 121 68T71 49Q60 49 52 56T40 72T34 90H60Q62 83 66 73T78 52T98 35T129 28Q159 28 185 51T218 135L287 628H408L344 171Q336
117 315 82T263 27T201 -2T141 -10ZM217 670H489L484 635H415L408 628H287L280 635H212L217 670Z" />
<glyph unicode="K" horiz-adv-x="712" d="M395 0L400 35H469L476 42L313 351L407 432L617 35H683L678 0H395ZM177 268L607 628L599 635H495L500 670H742L737 635H682L240 268H177ZM300 635L292 628L210 42L217 35H285L280 0H8L13 35H83L90 42L172 628L165 635H97L102
670H374L369 635H300Z" />
<glyph unicode="L" horiz-adv-x="596" d="M543 210H578L501 0H8L13 35H83L90 42L172 628L165 635H97L102 670H374L369 635H299L292 628L210 42L217 35H307Q384 35 443 79T543 210Z" />
<glyph unicode="M" horiz-adv-x="913" d="M859 635L852 628L769 42L777 35H844L839 0H568L573 35H642L649 42L718 530H713L433 0H367L221 553H216L144 42L152 35H233L228 0H8L13 35H92L99 42L182 628L175 635H97L102 670H320L456 149H461L737 670H933L928 635H859Z" />
<glyph unicode="N" horiz-adv-x="742" d="M570 670H775L770 635H706L699 628L610 0H538L206 511H201L135 42L142 35H224L219 0H8L13 35H83L90 42L173 628L165 635H97L102 670H251L582 159H587L654 628L646 635H565L570 670Z" />
<glyph unicode="O" horiz-adv-x="753" d="M439 680Q527 680 591 642T689 538T724 383Q724 299 694 228T611 103T489 20T342 -10Q254 -10 190 28T92 133T57 287Q57 371 87 442T170 567T292 650T439 680ZM351 30Q404 30 448 57T526 132T578 245T597 388Q597 458
580 515T526 606T430 640Q377 640 333 613T255 538T203 425T184 283Q184 213 201 156T256 64T351 30Z" />
<glyph unicode="P" horiz-adv-x="637" d="M8 0L13 35H83L90 42L173 628L165 635H97L102 670H405Q450 670 492 662T569 634T623 584T643 506Q643 452 616 412T546 344T455 304T363 290H245L210 42L217 35H318L313 0H8ZM250 325H339Q383 325 424 340T490 391T515
490Q515 542 497 574T448 620T382 635H300L293 628L250 325Z" />
<glyph unicode="Q" horiz-adv-x="753" d="M584 -68L607 -91Q581 -128 553 -144T490 -160Q446 -160 419 -139T375 -83T349 -11T330 62T309 117T275 139Q257 139 242 127T217 105L194 128Q220 166 248 182T311 198Q356 198 383 176T426 120T452 48T471 -24T492 -80T526
-102Q544 -102 560 -90T584 -68ZM439 680Q527 680 591 642T689 538T724 383Q724 299 694 228T611 103T489 20T342 -10Q254 -10 190 28T92 133T57 287Q57 371 87 442T170 567T292 650T439 680ZM351 30Q404 30 448 57T526 132T578 245T597 388Q597 458 580 515T526
606T430 640Q377 640 333 613T255 538T203 425T184 283Q184 213 201 156T256 64T351 30Z" />
<glyph unicode="R" horiz-adv-x="702" d="M380 0L385 35H457L464 42L304 323H434L602 35H672L667 0H380ZM411 670Q454 670 495 662T570 636T624 588T644 513Q644 461 617 423T548 359T458 322T366 310H248L210 42L217 35H285L280 0H8L13 35H83L90 42L173 628L165
635H97L102 670H411ZM341 345Q388 345 428 361T492 413T516 507Q516 571 479 603T382 635H300L293 628L252 345H341Z" />
<glyph unicode="S" horiz-adv-x="608" d="M224 529Q224 492 247 468T307 425T385 389T462 348T522 288T546 196Q546 133 514 87T424 15T292 -10Q237 -10 192 3T116 36L92 1H57Q60 35 60 75T58 153T53 223L87 233Q109 156 143 112T217 49T295 30Q335 30 368 43T420
83T440 148Q440 188 417 214T358 260T280 298T202 341T142 399T119 486Q119 545 150 588T236 656T364 680Q410 680 447 669T516 634L540 670H575Q572 619 573 567T578 467L544 457Q531 513 510 548T463 604T411 632T359 640Q297 640 261 608T224 529Z" />
<glyph unicode="T" horiz-adv-x="632" d="M640 670L654 501L620 491Q609 547 585 578T523 622T431 635L348 42L356 35H423L418 0H147L152 35H221L228 42L311 635Q259 635 217 622T143 578T84 491L52 501L113 670H640Z" />
<glyph unicode="U" horiz-adv-x="722" d="M550 670H755L750 635H685L678 628L624 245Q613 166 575 109T479 21T347 -10Q257 -10 200 22T119 110T104 233L159 628L152 635H85L90 670H362L357 635H287L279 628L226 250Q218 190 229 143T273 68T366 40Q416 40 461
64T538 134T579 245L633 628L626 635H545L550 670Z" />
<glyph unicode="V" horiz-adv-x="678" d="M532 670H736L731 635H673L359 0H278L125 635H62L67 670H335L330 635H264L257 628L370 135H375L618 628L611 635H527L532 670Z" />
<glyph unicode="W" horiz-adv-x="979" d="M242 0L127 635H63L68 670H333L328 635H266L259 628L339 164H344L521 551L507 635H448L453 670H718L713 635H645L637 628L715 164H720L917 628L910 635H826L831 670H1036L1031 635H972L698 0H622L539 471H534L318 0H242Z" />
<glyph unicode="X" horiz-adv-x="673" d="M567 35H630L625 0H349L354 35H418L426 42L144 635H81L86 670H362L357 635H294L287 628L567 35ZM350 352L567 628L560 635H476L481 670H690L685 635H628L405 352H350ZM349 352L106 42L114 35H203L198 0H-19L-14 35H44L294
352H349Z" />
<glyph unicode="Y" horiz-adv-x="648" d="M498 670H707L702 635H644L399 284L365 42L372 35H439L434 0H162L167 35H237L245 42L279 284L124 635H61L66 670H339L334 635H270L263 628L383 345H388L584 628L577 635H493L498 670Z" />
<glyph unicode="Z" horiz-adv-x="588" d="M-12 0L-8 30L442 628L434 635H327Q274 635 233 623T160 582T101 500L70 510L128 670H598L594 640L144 42L151 35H300Q380 35 437 73T534 190H569L499 0H-12Z" />
<glyph unicode="[" horiz-adv-x="301" d="M325 695H215L209 690L83 -210L87 -215H197L192 -250H32L170 730H330L325 695Z" />
<glyph unicode="\" horiz-adv-x="392" d="M331 -60H283L90 730H138L331 -60Z" />
<glyph unicode="]" horiz-adv-x="301" d="M106 695L111 730H271L133 -250H-27L-22 -215H88L94 -210L220 690L216 695H106Z" />
<glyph unicode="^" horiz-adv-x="517" d="M478 248H435L319 646H314L86 248H43L307 708H342L478 248Z" />
<glyph unicode="_" horiz-adv-x="409" d="M-33 0H376L371 -35H-38L-33 0Z" />
<glyph unicode="`" horiz-adv-x="121" d="M0 720H113L118 545H88L0 720Z" />
<glyph unicode="a" horiz-adv-x="589" d="M39 198Q39 261 58 312T110 401T183 459T266 479Q299 479 325 467T371 433T399 380L446 469H509L457 100Q453 67 459 54T480 40Q496 40 510 56T539 97L570 80Q546 29 516 10T450 -10Q411 -10 386 11T355 74Q329 33 292
12T210 -10Q162 -10 123 13T62 83T39 198ZM154 188Q154 113 177 77T240 40Q282 40 313 74T362 164T380 281Q380 357 354 393T288 430Q247 430 217 396T171 306T154 188Z" />
<glyph unicode="b" horiz-adv-x="551" d="M42 0L139 688L131 695H64L69 730Q112 730 156 731T241 737L248 730L203 407Q227 440 262 459T342 479Q391 479 429 456T489 387T512 271Q512 209 493 158T441 69T368 11T285 -10Q252 -10 226 2T181 37T152 90L105 0H42ZM172
188Q172 112 198 76T263 40Q304 40 334 74T380 164T397 281Q397 356 374 393T311 430Q271 430 239 396T190 306T172 188Z" />
<glyph unicode="c" horiz-adv-x="459" d="M233 -10Q193 -10 158 2T96 40T54 104T38 196Q38 259 59 311T118 400T204 458T305 479Q352 479 384 465T432 426T449 372Q449 340 431 318T385 295Q363 295 350 310T337 348Q337 375 355 396T401 417Q424 417 432 404T440
376L407 368Q407 392 395 409T362 435T316 444Q276 444 246 423T196 364T166 282T156 190Q156 108 185 72T262 35Q301 35 330 58T385 121L416 103Q398 72 373 47T314 6T233 -10Z" />
<glyph unicode="d" horiz-adv-x="588" d="M39 198Q39 261 58 312T110 401T183 459T266 480Q311 480 344 457T394 393L436 688L428 695H361L366 730Q408 730 453 731T538 737L545 730L456 100Q451 67 458 54T478 40Q494 40 509 56T538 97L568 80Q544 29 515 10T449
-10Q409 -10 384 10T354 72Q330 34 293 13T210 -9Q162 -9 123 14T62 83T39 198ZM154 189Q154 113 177 77T240 40Q282 40 313 74T362 164T380 281Q380 358 354 394T288 430Q247 430 217 396T171 307T154 189Z" />
<glyph unicode="e" horiz-adv-x="475" d="M234 -10Q179 -10 135 12T65 81T39 197Q39 281 75 344T175 443T318 479Q355 479 388 471T444 441T466 385Q466 350 442 321T375 270T271 234T138 214V246Q194 251 235 264T303 297T343 338T357 385Q357 415 343 429T303
444Q268 444 241 422T193 362T163 281T152 191Q152 136 167 102T209 51T266 35Q304 35 340 60T401 122L432 105Q414 74 386 48T320 6T234 -10Z" />
<glyph unicode="f" horiz-adv-x="291" d="M-6 -260Q-42 -260 -65 -246T-98 -211T-108 -169Q-108 -140 -92 -120T-50 -100Q-28 -100 -14 -115T0 -154Q0 -179 -17 -200T-58 -221Q-80 -221 -89 -205T-100 -176L-74 -177Q-73 -196 -57 -210T-19 -225Q3 -225 20 -212T48
-175T63 -117T64 -44L114 427L107 434H226L218 427L166 -63Q159 -135 134 -178T72 -240T-6 -260ZM45 434L49 469H343L340 434H45ZM118 462L128 544Q136 616 161 659T222 721T298 740Q335 740 358 726T390 691T400 650Q400 621 384 601T342 580Q321 580 307 596T292
634Q292 660 309 680T350 701Q372 701 381 686T392 656H367Q366 676 349 690T311 705Q290 705 273 692T245 655T230 597T229 523L222 462H118Z" />
<glyph unicode="g" horiz-adv-x="553" d="M-2 -139Q-2 -107 16 -86T61 -64Q82 -64 95 -77T109 -114Q109 -140 94 -161T54 -186Q68 -204 93 -214T153 -225Q208 -225 245 -197T306 -119T339 1L347 62Q325 29 289 10T210 -10Q162 -10 123 13T62 83T39 198Q39 261
58 312T110 401T183 459T266 479Q299 479 325 467T371 433T398 381L445 469H508L442 -4Q435 -54 416 -100T363 -182T283 -239T173 -260Q115 -260 76 -243T18 -198T-2 -139ZM154 188Q154 113 177 77T240 40Q282 40 313 74T362 164T380 281Q380 357 354 393T288 430Q247
430 217 396T171 306T154 188Z" />
<glyph unicode="h" horiz-adv-x="589" d="M539 97L570 80Q546 29 516 10T450 -10Q401 -10 374 22T357 124L388 324Q393 353 391 377T376 415T335 430Q317 430 297 421T256 392T219 336T195 247L160 0H56L153 688L146 695H78L83 730Q126 730 170 731T255 737L262
730L216 399Q240 435 278 457T369 479Q441 479 472 438T493 329L457 100Q453 67 459 54T480 40Q496 40 510 56T539 97Z" />
<glyph unicode="i" horiz-adv-x="305" d="M255 97L286 80Q262 29 233 10T166 -10Q117 -10 90 21T72 118L116 427L109 434H41L46 469Q89 469 134 470T219 477L226 469L173 100Q169 67 175 54T196 40Q212 40 226 56T255 97ZM181 559Q156 559 141 576T128 619Q130
649 150 671T200 694Q226 694 240 677T252 634Q250 605 231 582T181 559Z" />
<glyph unicode="j" horiz-adv-x="271" d="M219 477L226 469L151 -63Q141 -135 115 -178T51 -240T-27 -260Q-62 -260 -85 -247T-118 -214T-128 -172Q-128 -142 -110 -121T-66 -100Q-45 -100 -32 -114T-18 -151Q-18 -172 -30 -190T-60 -216Q-51 -223 -39 -223Q-13
-223 8 -203T42 -142T50 -44L116 427L109 434H41L46 469Q89 469 134 470T219 477ZM181 559Q156 559 141 576T128 619Q130 649 150 671T200 694Q226 694 240 677T252 634Q250 605 231 582T181 559Z" />
<glyph unicode="k" horiz-adv-x="550" d="M400 -10Q355 -10 327 13T282 76L220 217L321 236L386 92Q397 68 408 55T436 42Q452 42 466 55T496 96L527 79Q505 32 473 11T400 -10ZM373 479Q405 479 432 471T477 443T495 389Q495 339 453 297T334 229T149 196L150
228Q228 236 280 259T359 316T386 388Q386 417 372 427T338 437Q306 437 273 416T214 353T180 250L145 0H42L139 688L131 695H64L69 730Q112 730 156 731T241 737L248 730L202 402Q227 434 270 456T373 479Z" />
<glyph unicode="l" horiz-adv-x="306" d="M256 97L286 80Q262 29 233 10T167 -10Q118 -10 91 21T73 118L153 688L146 695H78L83 730Q126 730 170 731T255 737L262 730L174 100Q169 67 176 54T196 40Q212 40 227 56T256 97Z" />
<glyph unicode="m" horiz-adv-x="851" d="M800 97L831 80Q807 29 778 10T711 -10Q662 -10 635 22T618 124L649 324Q654 353 652 377T638 415T599 430Q584 430 565 422T526 397T491 348T469 269L429 0H328L373 324Q377 353 376 377T363 415T326 430Q310 430 290
422T249 393T214 339T191 252L156 0H52L112 427L104 434H41L46 469Q85 469 126 470T207 474L214 467L204 398H211Q234 433 271 456T360 479Q411 479 441 456T478 391Q501 433 544 456T636 479Q704 479 734 438T754 329L718 100Q713 67 720 54T741 40Q757 40 771
56T800 97Z" />
<glyph unicode="n" horiz-adv-x="585" d="M535 97L565 80Q541 29 512 10T445 -10Q397 -10 369 22T352 124L383 324Q388 353 386 377T372 415T331 430Q313 430 292 422T250 393T214 339T191 252L156 0H52L112 427L104 434H41L46 469Q85 469 126 470T207 474L214
467L204 398H211Q234 433 272 456T365 479Q437 479 468 438T488 329L453 100Q448 67 455 54T475 40Q491 40 505 56T535 97Z" />
<glyph unicode="o" horiz-adv-x="533" d="M300 479Q353 479 397 455T467 384T494 271Q494 210 473 159T416 70T332 11T232 -10Q180 -10 136 14T65 86T39 198Q39 259 59 310T116 399T200 458T300 479ZM240 25Q273 25 298 48T340 109T367 195T377 292Q377 338 368
372T339 425T293 444Q260 444 235 421T192 360T165 274T156 178Q156 131 165 97T194 44T240 25Z" />
<glyph unicode="p" horiz-adv-x="563" d="M-57 -250L-52 -215H19L26 -208L115 427L108 434H40L45 469Q88 469 128 470T209 477L216 469L207 402H211Q235 437 271 458T353 479Q402 479 440 456T501 387T524 271Q524 209 505 158T453 69T380 11T297 -10Q254 -10
220 12T170 74L130 -208L137 -215H235L230 -250H-57ZM183 188Q183 112 209 76T275 40Q316 40 346 74T392 164T409 281Q409 356 386 393T323 430Q282 430 251 396T201 306T183 188Z" />
<glyph unicode="q" horiz-adv-x="555" d="M39 198Q39 261 58 312T110 401T183 459T266 479Q300 479 327 466T373 430T400 376L449 469H512L417 -208L425 -215H492L487 -250Q445 -250 400 -251T315 -257L308 -250L352 68Q329 33 292 12T210 -10Q162 -10 123 13T62
83T39 198ZM154 188Q154 113 177 77T240 40Q282 40 313 74T362 164T380 281Q380 357 354 393T288 430Q247 430 217 396T171 306T154 188Z" />
<glyph unicode="r" horiz-adv-x="412" d="M51 0L112 427L104 434H41L46 469Q85 469 126 471T207 477L214 469L199 361H206Q223 392 247 419T302 463T365 480Q395 480 413 462T431 416Q431 385 413 361T364 337Q339 337 325 353T311 394Q311 409 317 424Q275 403
236 345T184 204L155 0H51Z" />
<glyph unicode="s" horiz-adv-x="450" d="M197 -10Q142 -10 104 6T45 48T24 106Q24 136 40 157T85 179Q106 179 121 165T137 125Q137 98 118 78T76 57Q59 57 50 67T40 93H70Q70 67 103 46T192 25Q231 25 257 36T296 64T309 102Q309 127 292 143T246 173T187 200T129
230T83 272T65 335Q65 377 90 410T158 461T259 479Q336 479 375 449T415 377Q415 347 398 326T353 305Q331 305 317 319T303 358Q303 383 319 404T360 425Q378 425 385 414T393 384H365Q365 407 339 425T262 444Q224 444 200 434T164 407T152 374Q152 351 169 337T214
310T273 285T331 254T376 209T394 142Q394 94 369 60T299 8T197 -10Z" />
<glyph unicode="t" horiz-adv-x="354" d="M175 -10Q122 -10 96 22T77 116L121 427L114 434H39L44 469Q109 477 155 527T224 670H259L230 469H354L349 434H232L225 427L179 99Q175 70 183 57T205 44Q224 44 245 64T284 120L314 102Q289 47 255 19T175 -10Z" />
<glyph unicode="u" horiz-adv-x="580" d="M529 97L560 80Q536 29 507 10T440 -10Q400 -10 374 11T345 77Q320 37 282 14T192 -10Q122 -10 94 31T75 140L114 427L106 434H39L44 469Q86 469 131 470T216 477L223 469L178 139Q174 110 177 87T192 52T227 40Q272 40
310 88T362 228L390 427L383 434H315L320 469Q363 469 408 470T493 477L500 469L447 100Q443 67 449 54T470 40Q486 40 500 56T529 97Z" />
<glyph unicode="v" horiz-adv-x="515" d="M474 477L481 469Q479 397 466 328T430 198T372 90T294 17T195 -10Q124 -10 96 34T78 152L116 427L109 434H41L46 469Q89 469 134 470T219 477L226 469L179 139Q176 115 178 92T192 55T231 40Q260 40 289 59T343 114T382
196T397 300Q397 342 387 376T363 435L306 434L311 469Q350 469 392 471T474 477Z" />
<glyph unicode="w" horiz-adv-x="765" d="M723 477L731 469Q728 398 717 329T684 199T631 91T557 17T463 -10Q411 -10 382 16T346 87Q332 61 310 39T258 4T190 -10Q121 -10 93 34T74 152L114 427L106 434H39L44 469Q86 469 131 470T216 477L223 469L176 139Q171
99 180 70T224 40Q250 40 277 60T326 121T357 224L386 427L378 434H311L316 469Q358 469 403 470T488 477L495 469L449 139Q443 99 452 70T499 40Q536 40 569 73T624 164T645 294Q645 342 635 376T614 435L560 434L565 469Q600 469 641 471T723 477Z" />
<glyph unicode="x" horiz-adv-x="526" d="M366 -10Q314 -10 284 19T242 92T229 185Q229 247 246 301T292 394T360 456T441 479Q490 479 514 452T539 385Q539 353 523 329T479 305Q456 305 444 321T431 360Q431 387 448 408T488 429Q503 429 514 418T526 388L500
384Q500 415 486 429T449 444Q421 444 396 420T353 356T325 266T314 166Q314 132 320 102T340 53T380 35Q401 35 421 48T456 88L486 70Q462 27 433 9T366 -10ZM86 -10Q38 -10 13 18T-12 87Q-12 123 5 143T48 164Q71 164 83 149T96 110Q96 82 79 62T39 41Q24 41
13 51T1 81L27 85Q27 55 42 40T78 25Q106 25 131 49T174 114T202 203T213 303Q213 338 207 368T187 416T148 435Q126 435 107 421T71 382L41 399Q65 442 94 460T161 479Q214 479 243 451T285 378T298 285Q298 223 281 169T235 75T167 13T86 -10Z" />
<glyph unicode="y" horiz-adv-x="544" d="M183 -260Q136 -260 101 -244T47 -200T28 -141Q28 -110 44 -87T90 -64Q112 -64 124 -78T137 -115Q137 -140 122 -161T82 -186Q95 -202 118 -213T171 -225Q214 -225 246 -201T298 -128T329 -3L340 69Q315 33 278 12T192
-10Q122 -10 94 31T75 140L114 427L106 434H39L44 469Q86 469 131 470T216 477L223 469L178 139Q174 110 177 87T192 52T227 40Q257 40 284 61T332 124T361 227L390 427L382 434H315L320 469Q363 469 407 470T492 477L499 469L434 0Q427 -51 409 -98T359 -181T285
-239T183 -260Z" />
<glyph unicode="z" horiz-adv-x="459" d="M35 -10L5 7Q31 65 64 106T134 179T211 239T287 299T358 370L354 375Q329 358 305 351T257 344Q223 344 202 352T167 369T135 377Q120 377 113 369T106 349Q106 337 113 326T129 306L102 284Q78 305 67 329T56 378Q56
404 67 427T103 464T167 479Q200 479 223 470T264 449T301 427T344 418Q370 418 392 432T433 479L463 462Q437 404 404 363T334 289T257 228T180 169T109 97L114 92Q140 109 163 117T212 125Q244 125 265 117T302 101T336 92Q351 92 357 100T364 119Q364 130 358
142T341 164L368 185Q392 165 403 140T414 92Q414 53 387 22T302 -10Q268 -10 245 -1T203 21T167 42T124 51Q96 51 75 37T35 -10Z" />
<glyph unicode="{" horiz-adv-x="310" d="M29 224Q66 224 84 211T107 176T108 130Q100 73 87 29T63 -55T52 -133Q52 -183 88 -216T192 -250L197 -215Q148 -215 123 -191T97 -126Q97 -88 107 -50T131 33T153 135Q161 183 138 214T62 243L63 235Q116 235 146 265T183
342Q189 387 189 426T190 505T197 589Q204 636 237 665T325 695L330 730Q255 730 208 691T153 594Q147 550 147 511T146 432T138 347Q133 310 111 282T33 254L29 224Z" />
<glyph unicode="|" horiz-adv-x="246" d="M32 -250L173 750H218L77 -250H32Z" />
<glyph unicode="}" horiz-adv-x="311" d="M-18 -250Q57 -250 104 -212T159 -116Q165 -71 165 -32T167 46T173 130Q178 167 201 195T279 224L283 254Q247 254 229 267T206 301T204 347Q212 404 225 449T249 533T260 611Q260 662 224 696T120 730L115 695Q164 695
189 670T214 604Q214 567 204 528T180 444T158 342Q151 294 174 264T251 235L248 243Q197 243 167 213T129 135Q123 91 123 52T122 -27T115 -111Q108 -158 75 -186T-13 -215L-18 -250Z" />
<glyph unicode="~" horiz-adv-x="510" d="M400 371Q441 371 463 347T492 282L455 268Q445 298 432 314T387 330Q363 330 332 321T266 300T198 279T135 270Q95 270 73 294T43 359L80 373Q90 343 103 327T148 311Q169 311 200 320T268 341T338 362T400 371Z" />
<glyph unicode="&#xa0;" horiz-adv-x="216" />
<glyph unicode="&#xa1;" horiz-adv-x="209" d="M43 -211Q14 -211 -2 -188T-10 -130L96 275H126L118 -130Q118 -165 95 -188T43 -211ZM140 479Q165 479 182 461T199 418Q199 398 188 381T159 353T120 342Q95 342 78 360T60 403Q60 424 71 441T101 468T140 479Z" />
<glyph unicode="&#xa2;" horiz-adv-x="507" d="M112 -100L409 580H447L150 -100H112ZM277 35Q321 35 363 61T441 129L465 106Q437 74 407 48T338 6T248 -10Q189 -10 142 15T67 88T39 200Q39 264 61 315T123 402T212 458T317 478Q367 478 401 463T458 421T501 362L471
339Q445 380 411 406T333 433Q283 433 244 404T182 321T159 191Q159 116 191 76T277 35Z" />
<glyph unicode="&#xa3;" horiz-adv-x="640" d="M567 202H602L529 0H13L17 30Q85 65 113 133T142 293Q142 323 141 354T140 409Q140 489 165 541T233 624T325 667T424 680Q460 680 484 674T526 657T562 630L588 670H623Q620 619 621 572T626 477L592 467Q587 494
576 519T550 567T516 605T473 631T423 640Q375 640 345 621T298 569T275 498T268 419Q268 387 270 357T272 302Q272 253 256 214T212 148T149 103H359Q417 103 456 109T521 137T567 202ZM30 352H514L508 317H25L30 352Z" />
<glyph unicode="&#xa4;" horiz-adv-x="546" d="M137 168L45 88L24 113L115 193L137 168ZM258 103Q205 104 164 128T99 195T75 289Q75 337 95 379T149 453T226 505T317 524Q370 525 411 500T475 432T499 337Q499 289 480 247T426 172T349 121T258 103ZM263 138Q312
137 355 161T427 226T464 315Q472 364 454 403T398 465T312 489Q259 489 213 463T139 392T111 295Q111 251 131 216T185 160T263 138ZM427 466L525 551L546 526L450 442L427 466ZM152 447L82 527L111 552L180 472L152 447ZM415 199L488 113L459 88L386 172L415
199Z" />
<glyph unicode="&#xa5;" horiz-adv-x="648" d="M498 670H707L702 635H644L399 284L365 42L372 35H439L434 0H162L167 35H237L245 42L279 284L124 635H61L66 670H339L334 635H270L263 628L383 345H388L584 628L577 635H493L498 670ZM98 307H581L576 272H93L98 307ZM84
197H568L562 162H79L84 197Z" />
<glyph unicode="&#xa6;" horiz-adv-x="246" d="M132 460L173 750H218L177 460H132ZM32 -250L73 40H118L77 -250H32Z" />
<glyph unicode="&#xa7;" horiz-adv-x="478" d="M205 539Q205 507 221 482T264 436T319 393T375 347T417 291T434 220Q434 174 416 142T366 88T297 53T218 29L221 59Q271 73 300 100T330 176Q330 210 314 236T271 284T216 329T161 375T119 429T102 498Q102 550
129 591T203 656T313 681Q362 681 394 665T443 624T459 569Q459 540 448 522T421 495T387 486Q364 486 350 500T335 536Q335 561 356 580T409 598Q398 624 374 635T319 646Q282 646 257 630T218 590T205 539ZM278 -118Q278 -86 261 -61T216 -15T158 28T100 74T56
130T38 201Q38 248 56 280T105 333T175 368T254 392L250 362Q200 348 171 321T141 245Q141 211 158 185T203 137T261 92T319 46T364 -8T381 -78Q381 -128 354 -169T277 -235T159 -260Q108 -260 75 -244T25 -203T8 -148Q8 -119 19 -101T47 -74T80 -65Q103 -65 117
-79T132 -115Q132 -139 112 -159T58 -177Q69 -202 95 -213T154 -225Q189 -225 213 -216T251 -190T271 -155T278 -118Z" />
<glyph unicode="&#xa8;" horiz-adv-x="338" d="M57 564Q33 564 17 581T0 621Q0 641 11 657T39 683T75 694Q100 694 116 677T132 636Q132 617 121 601T93 574T57 564ZM264 564Q239 564 223 581T207 621Q207 651 230 672T282 694Q307 694 323 677T339 636Q339 607
316 586T264 564Z" />
<glyph unicode="&#xa9;" horiz-adv-x="788" d="M408 25Q471 25 526 49T624 116T689 215T713 335Q713 398 690 454T624 553T527 620T408 645Q345 645 290 621T192 554T127 455T103 335Q103 272 126 216T192 117T289 50T408 25ZM408 -10Q336 -10 274 16T164 90T90
200T63 335Q63 407 89 469T163 579T273 653T408 680Q480 680 542 654T652 580T726 470T753 335Q753 263 727 201T653 91T543 17T408 -10ZM414 176Q450 176 483 193T555 250L575 235Q535 188 492 166T391 144H390Q340 144 302 166T242 226T221 314Q221 361 239 399T289
465T361 508T447 523Q482 523 506 515T550 492L566 516H590Q587 482 587 452T591 390L567 383Q555 426 536 451T492 486T443 496Q397 496 367 469T321 401T306 314Q306 277 317 246T352 195T414 176Z" />
<glyph unicode="&#xaa;" horiz-adv-x="357" d="M327 374L346 363Q332 335 313 325T272 314Q238 314 220 334T208 395L233 460L228 543L261 606H313L281 382Q278 361 282 354T295 346Q304 346 312 354T327 374ZM154 612Q178 612 195 602T222 577T235 545L244 450L206
362Q193 340 171 327T122 314Q93 314 69 328T30 370T16 443Q16 494 36 531T89 590T154 612ZM174 580Q152 580 136 560T109 506T99 435Q99 389 112 368T146 346Q168 346 184 366T211 421T221 492Q221 538 208 559T174 580Z" />
<glyph unicode="&#xab;" horiz-adv-x="414" d="M248 414L125 235L197 55L172 39L8 235L227 430L248 414ZM422 414L299 235L371 55L346 39L182 235L401 430L422 414Z" />
<glyph unicode="&#xac;" horiz-adv-x="510" d="M40 337H500L477 173H442L460 302H35L40 337Z" />
<glyph unicode="&#xad;" horiz-adv-x="390" d="M50 305H359L350 240H41L50 305Z" />
<glyph unicode="&#xae;" horiz-adv-x="788" d="M408 25Q471 25 526 49T624 116T689 215T713 335Q713 398 690 454T624 553T527 620T408 645Q345 645 290 621T192 554T127 455T103 335Q103 272 126 216T192 117T289 50T408 25ZM408 -10Q336 -10 274 16T164 90T90
200T63 335Q63 407 89 469T163 579T273 653T408 680Q480 680 542 654T652 580T726 470T753 335Q753 263 727 201T653 91T543 17T408 -10ZM196 151L199 175H246L251 179L294 488L289 493H243L247 516H446Q485 516 517 508T569 480T589 428Q589 388 558 361T486 319L570
175H617L613 151H427L430 175H472L478 179L405 307H350L333 179L337 175H383L380 151H196ZM353 330H400Q445 330 473 354T502 423Q502 457 481 475T423 493H380L376 488L353 330Z" />
<glyph unicode="&#xaf;" horiz-adv-x="317" d="M8 652H317L308 593H0L8 652Z" />
<glyph unicode="&#xb0;" horiz-adv-x="363" d="M203 390Q149 390 115 426T81 514Q81 556 103 591T163 648T242 670Q295 670 329 634T364 546Q364 504 341 469T282 412T203 390ZM208 427Q239 427 265 443T307 486T323 542Q323 579 299 606T237 633Q207 633 181
617T138 575T121 518Q121 481 145 454T208 427Z" />
<glyph unicode="&#xb1;" horiz-adv-x="510" d="M40 337H500L495 302H35L40 337ZM318 550L253 90H218L283 550H318ZM-2 37H458L453 2H-7L-2 37Z" />
<glyph unicode="&#xb2;" horiz-adv-x="345" d="M330 447H351L306 320H29Q35 362 54 391T101 443T158 485T212 526T253 574T269 639Q269 669 255 686T211 704Q183 704 159 691T121 654L75 614Q78 641 97 667T151 710T235 728Q255 728 277 724T318 710T349 681T361
635Q361 594 342 568T290 525T221 491T150 452T89 393H209Q262 393 287 402T330 447ZM114 566Q95 566 84 579T75 614L121 654Q144 658 154 646T165 617Q165 596 150 581T114 566Z" />
<glyph unicode="&#xb3;" horiz-adv-x="359" d="M182 314Q121 314 86 339T55 403L99 363Q111 351 129 345T168 338Q218 338 243 365T269 443Q269 463 261 480T234 507T181 518L184 535Q238 535 277 525T339 493T361 437Q361 395 335 368T267 327T182 314ZM99 363L55
403Q58 425 73 438T108 452Q125 452 136 441T148 413Q148 393 134 379T99 363ZM182 524L184 539Q218 539 240 554T273 592T284 640Q284 670 269 687T223 704Q197 704 175 693T136 660L90 620Q94 646 113 671T166 712T247 728Q275 728 304 720T354 694T374 643Q374
605 349 580T281 542T182 524ZM129 572Q110 572 99 585T90 620L136 660Q160 664 170 652T180 623Q180 602 165 587T129 572Z" />
<glyph unicode="&#xb4;" horiz-adv-x="167" d="M167 720L30 545H0L54 720H167Z" />
<glyph unicode="&#xb5;" horiz-adv-x="574" d="M539 144H574Q563 66 525 28T430 -10Q388 -10 364 11T336 77Q311 37 283 14T208 -10Q191 -10 177 -4T152 16L114 -250H11L71 177L110 469H214L183 242L168 130Q165 108 168 88T182 54T218 40Q248 40 276 61T324 125T353
228L386 469H491L441 118Q437 85 443 65T471 44Q483 44 497 52T522 82T539 144Z" />
<glyph unicode="&#xb6;" horiz-adv-x="534" d="M343 670H566L562 635H493L485 628L420 167Q412 115 391 81T340 26T278 -2T214 -10Q152 -10 120 21T87 93Q87 132 111 154T165 177Q190 177 205 161T221 121Q221 94 203 74T158 51Q165 40 176 34T206 28Q234 28 261
51T295 130L317 290H289Q252 290 213 300T140 332T86 386T65 463Q65 520 90 559T156 623T246 659T343 670Z" />
<glyph unicode="&#xb7;" horiz-adv-x="209" d="M111 282Q85 282 68 300T51 343Q51 364 62 381T92 408T130 419Q156 419 173 401T190 358Q190 338 179 321T150 293T111 282Z" />
<glyph unicode="&#xb8;" horiz-adv-x="214" d="M16 -189Q33 -202 49 -207T80 -212Q108 -212 120 -199T132 -169Q132 -149 113 -135T56 -109L112 0H152L129 -45Q167 -54 192 -78T217 -139Q217 -170 200 -195T153 -235T87 -250Q41 -250 0 -220L16 -189Z" />
<glyph unicode="&#xb9;" horiz-adv-x="300" d="M217 341H283L280 320H51L54 341H119L125 346L167 640Q152 630 137 621T101 603L93 623Q118 634 142 649T190 684T231 722H264L212 346L217 341Z" />
<glyph unicode="&#xba;" horiz-adv-x="321" d="M181 612Q213 612 241 598T287 555T305 483Q305 430 282 392T221 334T141 314Q109 314 81 328T34 372T16 443Q16 497 40 534T101 592T181 612ZM145 335Q163 335 177 350T200 391T214 445T219 503Q219 527 215 547T202
579T177 591Q159 591 145 576T121 535T107 481T102 422Q102 399 106 379T120 347T145 335Z" />
<glyph unicode="&#xbb;" horiz-adv-x="414" d="M217 414L242 430L406 235L187 39L166 55L289 235L217 414ZM43 414L68 430L232 235L13 39L-8 55L115 235L43 414Z" />
<glyph unicode="&#xbc;" horiz-adv-x="797" d="M466 549H532L529 528H300L303 549H368L374 554L416 848Q401 838 386 829T350 811L342 831Q367 842 391 857T439 892T480 930H513L461 554L466 549ZM205 0L509 670H557L253 0H205ZM462 127H750L747 106H425L462 127ZM425
106L428 124L689 402H734L679 0H592L636 313H634L462 130V127L425 106ZM552 0L555 21H590L596 26H683L687 21H723L720 0H552Z" />
<glyph unicode="&#xbd;" horiz-adv-x="808" d="M466 549H532L529 528H300L303 549H368L374 554L416 848Q401 838 386 829T350 811L342 831Q367 842 391 857T439 892T480 930H513L461 554L466 549ZM205 0L509 670H557L253 0H205ZM748 127H769L724 0H447Q453 42
472 71T519 123T576 165T630 206T671 254T687 319Q687 349 673 366T629 384Q601 384 577 371T539 334L493 294Q496 321 515 347T569 390T653 408Q673 408 695 404T736 390T767 361T779 315Q779 274 760 248T708 205T639 171T568 132T507 73H627Q680 73 705 82T748
127ZM532 246Q513 246 502 259T493 294L539 334Q562 338 572 326T583 297Q583 276 568 261T532 246Z" />
<glyph unicode="&#xbe;" horiz-adv-x="850" d="M431 522Q370 522 335 547T304 611L348 571Q360 559 378 553T417 546Q467 546 492 573T518 651Q518 671 510 688T483 715T430 726L433 743Q487 743 526 733T588 701T610 645Q610 603 584 576T516 535T431 522ZM348
571L304 611Q307 633 322 646T357 660Q374 660 385 649T397 621Q397 601 383 587T348 571ZM431 732L433 747Q467 747 489 762T522 800T533 848Q533 878 518 895T472 912Q446 912 424 901T385 868L339 828Q343 854 362 879T415 920T496 936Q524 936 553 928T603
902T623 851Q623 813 598 788T530 750T431 732ZM378 780Q359 780 348 793T339 828L385 868Q409 872 419 860T429 831Q429 810 414 795T378 780ZM264 0L568 670H616L312 0H264ZM521 127H809L806 106H484L521 127ZM484 106L487 124L748 402H793L738 0H651L695 313H693L521
130V127L484 106ZM611 0L614 21H649L655 26H742L746 21H782L779 0H611Z" />
<glyph unicode="&#xbf;" horiz-adv-x="470" d="M255 265Q258 251 259 237T261 210Q261 171 247 141T210 85T166 34T129 -21T114 -86Q114 -127 136 -152T205 -177Q241 -177 273 -162T325 -118Q296 -121 278 -105T260 -62Q260 -31 283 -10T336 12Q359 12 376 -4T393
-54Q393 -96 364 -134T284 -196T164 -220Q119 -220 80 -207T16 -166T-9 -93Q-9 -48 13 -14T68 50T135 109T194 173T224 252Q224 255 224 258T225 265H255ZM271 469Q297 469 314 451T331 408Q331 387 320 370T290 342T252 331Q226 331 209 349T192 393Q192 413 203
430T232 458T271 469Z" />
<glyph unicode="&#xc0;" horiz-adv-x="696" d="M171 0H-29L-24 35H34L374 670H445L599 35H663L658 0H395L400 35H463L470 42L355 538H350L86 42L94 35H176L171 0ZM172 266H498L493 231H167L172 266ZM281 866H414L448 721H418L281 866Z" />
<glyph unicode="&#xc1;" horiz-adv-x="696" d="M171 0H-29L-24 35H34L374 670H445L599 35H663L658 0H395L400 35H463L470 42L355 538H350L86 42L94 35H176L171 0ZM172 266H498L493 231H167L172 266ZM596 866L418 721H388L463 866H596Z" />
<glyph unicode="&#xc2;" horiz-adv-x="696" d="M171 0H-29L-24 35H34L374 670H445L599 35H663L658 0H395L400 35H463L470 42L355 538H350L86 42L94 35H176L171 0ZM172 266H498L493 231H167L172 266ZM538 721L423 773L291 721H261L420 866H451L568 721H538Z" />
<glyph unicode="&#xc3;" horiz-adv-x="696" d="M171 0H-29L-24 35H34L374 670H445L599 35H663L658 0H395L400 35H463L470 42L355 538H350L86 42L94 35H176L171 0ZM172 266H498L493 231H167L172 266ZM586 857L612 842Q595 779 562 755T492 730Q461 730 432 743T376
768T327 781Q312 781 297 772T265 732L239 747Q255 809 288 834T357 860Q387 860 417 847T474 821T525 808Q540 808 555 817T586 857Z" />
<glyph unicode="&#xc4;" horiz-adv-x="696" d="M171 0H-29L-24 35H34L374 670H445L599 35H663L658 0H395L400 35H463L470 42L355 538H350L86 42L94 35H176L171 0ZM172 266H498L493 231H167L172 266ZM303 734Q278 734 262 751T246 792Q246 821 269 842T321 864Q346
864 361 847T377 807Q377 777 354 756T303 734ZM532 734Q507 734 491 751T475 792Q475 821 498 842T550 864Q575 864 591 847T607 807Q607 777 584 756T532 734Z" />
<glyph unicode="&#xc5;" horiz-adv-x="696" d="M171 0H-29L-24 35H34L374 670H445L599 35H663L658 0H395L400 35H463L470 42L355 538H350L86 42L94 35H176L171 0ZM172 266H498L493 231H167L172 266ZM430 823Q474 823 501 801T528 743Q528 714 512 692T467 656T404
643Q361 643 334 665T307 723Q307 752 323 774T368 810T430 823ZM410 671Q432 671 445 692T459 746Q459 770 450 783T424 796Q403 796 390 775T376 721Q376 697 385 684T410 671Z" />
<glyph unicode="&#xc6;" horiz-adv-x="904" d="M197 266H490L485 231H192L197 266ZM830 190H865L795 0H307L312 35H381L389 42L464 577H459L68 42L75 35H156L151 0H-53L-48 35H10L476 670H879L893 510L858 500Q848 553 824 582T762 623T670 635H598L591 628L554
365H614Q657 365 688 390T729 475H764L728 220H693Q699 279 676 304T609 330H549L509 42L516 35H596Q677 35 734 73T830 190Z" />
<glyph unicode="&#xc7;" horiz-adv-x="688" d="M375 37Q438 37 498 69T619 169L649 146Q585 68 512 29T343 -10H342Q257 -10 193 27T93 133T57 292Q57 377 88 448T174 571T301 651T453 680Q505 680 543 668T615 635L639 670H674Q670 619 670 565T672 463L638 453Q626
508 605 544T558 601T503 631T443 640Q383 640 335 614T254 541T203 430T185 293Q185 219 204 162T266 71T375 37ZM243 -189Q260 -202 276 -207T307 -212Q335 -212 347 -199T359 -169Q359 -149 340 -135T283 -109L339 0H379L356 -45Q394 -54 419 -78T444 -139Q444
-170 427 -195T380 -235T314 -250Q268 -250 227 -220L243 -189Z" />
<glyph unicode="&#xc8;" horiz-adv-x="636" d="M562 190H597L527 0H8L13 35H83L90 42L172 628L165 635H97L102 670H601L615 510L580 500Q569 553 545 582T483 623T392 635H299L292 628L255 365H335Q378 365 409 390T450 475H485L449 220H414Q420 279 397 304T330
330H250L210 42L217 35H328Q408 35 465 73T562 190ZM242 866H375L409 721H379L242 866Z" />
<glyph unicode="&#xc9;" horiz-adv-x="636" d="M562 190H597L527 0H8L13 35H83L90 42L172 628L165 635H97L102 670H601L615 510L580 500Q569 553 545 582T483 623T392 635H299L292 628L255 365H335Q378 365 409 390T450 475H485L449 220H414Q420 279 397 304T330
330H250L210 42L217 35H328Q408 35 465 73T562 190ZM557 866L379 721H349L424 866H557Z" />
<glyph unicode="&#xca;" horiz-adv-x="636" d="M562 190H597L527 0H8L13 35H83L90 42L172 628L165 635H97L102 670H601L615 510L580 500Q569 553 545 582T483 623T392 635H299L292 628L255 365H335Q378 365 409 390T450 475H485L449 220H414Q420 279 397 304T330
330H250L210 42L217 35H328Q408 35 465 73T562 190ZM499 721L384 773L252 721H222L381 866H412L529 721H499Z" />
<glyph unicode="&#xcb;" horiz-adv-x="636" d="M562 190H597L527 0H8L13 35H83L90 42L172 628L165 635H97L102 670H601L615 510L580 500Q569 553 545 582T483 623T392 635H299L292 628L255 365H335Q378 365 409 390T450 475H485L449 220H414Q420 279 397 304T330
330H250L210 42L217 35H328Q408 35 465 73T562 190ZM263 734Q238 734 222 751T206 792Q206 821 229 842T281 864Q306 864 321 847T337 807Q337 777 314 756T263 734ZM492 734Q467 734 451 751T435 792Q435 821 458 842T510 864Q535 864 551 847T567 807Q567 777
544 756T492 734Z" />
<glyph unicode="&#xcc;" horiz-adv-x="364" d="M305 635L297 628L215 42L223 35H290L285 0H14L19 35H88L95 42L177 628L170 635H103L108 670H379L374 635H305ZM116 866H249L283 721H253L116 866Z" />
<glyph unicode="&#xcd;" horiz-adv-x="364" d="M305 635L297 628L215 42L223 35H290L285 0H14L19 35H88L95 42L177 628L170 635H103L108 670H379L374 635H305ZM431 866L253 721H223L298 866H431Z" />
<glyph unicode="&#xce;" horiz-adv-x="364" d="M305 635L297 628L215 42L223 35H290L285 0H14L19 35H88L95 42L177 628L170 635H103L108 670H379L374 635H305ZM374 721L259 773L127 721H97L256 866H287L404 721H374Z" />
<glyph unicode="&#xcf;" horiz-adv-x="364" d="M305 635L297 628L215 42L223 35H290L285 0H14L19 35H88L95 42L177 628L170 635H103L108 670H379L374 635H305ZM138 734Q113 734 97 751T81 792Q81 821 104 842T156 864Q181 864 196 847T212 807Q212 777 189 756T138
734ZM367 734Q342 734 326 751T310 792Q310 821 333 842T385 864Q410 864 426 847T442 807Q442 777 419 756T367 734Z" />
<glyph unicode="&#xd0;" horiz-adv-x="754" d="M418 670Q485 670 541 653T639 600T704 513T727 389Q727 302 694 231T605 108T479 28T334 0H8L13 35H82L90 42L173 628L166 635H97L102 670H418ZM321 35Q378 35 428 60T516 132T577 241T599 378Q599 498 545 566T394
635H300L293 628L210 42L217 35H321ZM62 352H414L410 317H58L62 352Z" />
<glyph unicode="&#xd1;" horiz-adv-x="742" d="M570 670H775L770 635H706L699 628L610 0H538L206 511H201L135 42L142 35H224L219 0H8L13 35H83L90 42L173 628L165 635H97L102 670H251L582 159H587L654 628L646 635H565L570 670ZM614 857L640 842Q623 779 590
755T520 730Q489 730 460 743T404 768T355 781Q340 781 325 772T293 732L267 747Q283 809 316 834T385 860Q415 860 445 847T502 821T553 808Q568 808 583 817T614 857Z" />
<glyph unicode="&#xd2;" horiz-adv-x="753" d="M439 680Q527 680 591 642T689 538T724 383Q724 299 694 228T611 103T489 20T342 -10Q254 -10 190 28T92 133T57 287Q57 371 87 442T170 567T292 650T439 680ZM351 30Q404 30 448 57T526 132T578 245T597 388Q597
458 580 515T526 606T430 640Q377 640 333 613T255 538T203 425T184 283Q184 213 201 156T256 64T351 30ZM310 866H443L477 721H447L310 866Z" />
<glyph unicode="&#xd3;" horiz-adv-x="753" d="M439 680Q527 680 591 642T689 538T724 383Q724 299 694 228T611 103T489 20T342 -10Q254 -10 190 28T92 133T57 287Q57 371 87 442T170 567T292 650T439 680ZM351 30Q404 30 448 57T526 132T578 245T597 388Q597
458 580 515T526 606T430 640Q377 640 333 613T255 538T203 425T184 283Q184 213 201 156T256 64T351 30ZM625 866L447 721H417L492 866H625Z" />
<glyph unicode="&#xd4;" horiz-adv-x="753" d="M439 680Q527 680 591 642T689 538T724 383Q724 299 694 228T611 103T489 20T342 -10Q254 -10 190 28T92 133T57 287Q57 371 87 442T170 567T292 650T439 680ZM351 30Q404 30 448 57T526 132T578 245T597 388Q597
458 580 515T526 606T430 640Q377 640 333 613T255 538T203 425T184 283Q184 213 201 156T256 64T351 30ZM567 721L452 773L320 721H290L449 866H480L597 721H567Z" />
<glyph unicode="&#xd5;" horiz-adv-x="753" d="M439 680Q527 680 591 642T689 538T724 383Q724 299 694 228T611 103T489 20T342 -10Q254 -10 190 28T92 133T57 287Q57 371 87 442T170 567T292 650T439 680ZM351 30Q404 30 448 57T526 132T578 245T597 388Q597
458 580 515T526 606T430 640Q377 640 333 613T255 538T203 425T184 283Q184 213 201 156T256 64T351 30ZM616 857L642 842Q625 779 592 755T522 730Q491 730 462 743T406 768T357 781Q342 781 327 772T295 732L269 747Q285 809 318 834T387 860Q417 860 447 847T504
821T555 808Q570 808 585 817T616 857Z" />
<glyph unicode="&#xd6;" horiz-adv-x="753" d="M439 680Q527 680 591 642T689 538T724 383Q724 299 694 228T611 103T489 20T342 -10Q254 -10 190 28T92 133T57 287Q57 371 87 442T170 567T292 650T439 680ZM351 30Q404 30 448 57T526 132T578 245T597 388Q597
458 580 515T526 606T430 640Q377 640 333 613T255 538T203 425T184 283Q184 213 201 156T256 64T351 30ZM332 734Q307 734 291 751T275 792Q275 821 298 842T350 864Q375 864 390 847T406 807Q406 777 383 756T332 734ZM561 734Q536 734 520 751T504 792Q504 821
527 842T579 864Q604 864 620 847T636 807Q636 777 613 756T561 734Z" />
<glyph unicode="&#xd7;" horiz-adv-x="470" d="M11 134L462 530L483 505L32 109L11 134ZM92 531L431 135L403 110L63 506L92 531Z" />
<glyph unicode="&#xd8;" horiz-adv-x="753" d="M183 -100L561 770H599L221 -100H183ZM183 -100L561 770H599L221 -100H183ZM439 680Q527 680 591 642T689 538T724 383Q724 299 694 228T611 103T489 20T342 -10Q254 -10 190 28T92 133T57 287Q57 371 87 442T170
567T292 650T439 680ZM351 30Q404 30 448 57T526 132T578 245T597 388Q597 458 580 515T526 606T430 640Q377 640 333 613T255 538T203 425T184 283Q184 213 201 156T256 64T351 30Z" />
<glyph unicode="&#xd9;" horiz-adv-x="722" d="M550 670H755L750 635H685L678 628L624 245Q613 166 575 109T479 21T347 -10Q257 -10 200 22T119 110T104 233L159 628L152 635H85L90 670H362L357 635H287L279 628L226 250Q218 190 229 143T273 68T366 40Q416 40
461 64T538 134T579 245L633 628L626 635H545L550 670ZM322 866H455L489 721H459L322 866Z" />
<glyph unicode="&#xda;" horiz-adv-x="722" d="M550 670H755L750 635H685L678 628L624 245Q613 166 575 109T479 21T347 -10Q257 -10 200 22T119 110T104 233L159 628L152 635H85L90 670H362L357 635H287L279 628L226 250Q218 190 229 143T273 68T366 40Q416 40
461 64T538 134T579 245L633 628L626 635H545L550 670ZM637 866L459 721H429L504 866H637Z" />
<glyph unicode="&#xdb;" horiz-adv-x="722" d="M550 670H755L750 635H685L678 628L624 245Q613 166 575 109T479 21T347 -10Q257 -10 200 22T119 110T104 233L159 628L152 635H85L90 670H362L357 635H287L279 628L226 250Q218 190 229 143T273 68T366 40Q416 40
461 64T538 134T579 245L633 628L626 635H545L550 670ZM580 721L465 773L333 721H303L462 866H493L610 721H580Z" />
<glyph unicode="&#xdc;" horiz-adv-x="722" d="M550 670H755L750 635H685L678 628L624 245Q613 166 575 109T479 21T347 -10Q257 -10 200 22T119 110T104 233L159 628L152 635H85L90 670H362L357 635H287L279 628L226 250Q218 190 229 143T273 68T366 40Q416 40
461 64T538 134T579 245L633 628L626 635H545L550 670ZM344 734Q319 734 303 751T287 792Q287 821 310 842T362 864Q387 864 402 847T418 807Q418 777 395 756T344 734ZM573 734Q548 734 532 751T516 792Q516 821 539 842T591 864Q616 864 632 847T648 807Q648
777 625 756T573 734Z" />
<glyph unicode="&#xdd;" horiz-adv-x="648" d="M498 670H707L702 635H644L399 284L365 42L372 35H439L434 0H162L167 35H237L245 42L279 284L124 635H61L66 670H339L334 635H270L263 628L383 345H388L584 628L577 635H493L498 670ZM588 866L410 721H380L455 866H588Z" />
<glyph unicode="&#xde;" horiz-adv-x="672" d="M318 170Q374 170 422 189T501 252T532 364Q532 421 509 455T449 504T367 520H263L268 555H394Q440 555 487 547T573 518T636 463T660 376Q660 311 630 266T551 191T447 149T342 135H209L214 170H318ZM299 635L292
628L210 42L217 35H285L280 0H8L13 35H83L90 42L172 628L165 635H97L102 670H374L369 635H299Z" />
<glyph unicode="&#xdf;" horiz-adv-x="624" d="M-6 -260Q-42 -260 -65 -247T-98 -214T-108 -172Q-108 -142 -90 -121T-47 -100Q-25 -100 -12 -114T2 -151Q2 -172 -10 -190T-40 -216Q-31 -223 -19 -223Q7 -223 28 -203T62 -142T70 -44L135 427L128 434H66L71 469H142L146
499Q159 578 197 631T289 712T405 740Q474 740 506 708T538 625Q538 584 525 553T495 497T464 447T451 396Q451 368 466 348T505 311T551 274T589 228T605 161Q605 111 581 73T515 12T425 -10Q387 -10 363 2T318 25L302 0H264Q263 39 260 77T248 155L283 165Q316
92 356 59T433 25Q454 25 472 34T503 61T515 102Q515 129 499 149T458 187T410 225T370 272T356 339Q357 378 371 407T407 460T449 507T483 557T497 620Q497 662 472 685T404 708Q359 708 328 682T278 609T250 500L171 -63Q161 -135 134 -178T71 -240T-6 -260Z"
/>
<glyph unicode="&#xe0;" horiz-adv-x="589" d="M39 198Q39 261 58 312T110 401T183 459T266 479Q299 479 325 467T371 433T399 380L446 469H509L457 100Q453 67 459 54T480 40Q496 40 510 56T539 97L570 80Q546 29 516 10T450 -10Q411 -10 386 11T355 74Q329 33
292 12T210 -10Q162 -10 123 13T62 83T39 198ZM154 188Q154 113 177 77T240 40Q282 40 313 74T362 164T380 281Q380 357 354 393T288 430Q247 430 217 396T171 306T154 188ZM212 720H325L330 545H300L212 720Z" />
<glyph unicode="&#xe1;" horiz-adv-x="589" d="M39 198Q39 261 58 312T110 401T183 459T266 479Q299 479 325 467T371 433T399 380L446 469H509L457 100Q453 67 459 54T480 40Q496 40 510 56T539 97L570 80Q546 29 516 10T450 -10Q411 -10 386 11T355 74Q329 33
292 12T210 -10Q162 -10 123 13T62 83T39 198ZM154 188Q154 113 177 77T240 40Q282 40 313 74T362 164T380 281Q380 357 354 393T288 430Q247 430 217 396T171 306T154 188ZM463 720L326 545H296L350 720H463Z" />
<glyph unicode="&#xe2;" horiz-adv-x="589" d="M39 198Q39 261 58 312T110 401T183 459T266 479Q299 479 325 467T371 433T399 380L446 469H509L457 100Q453 67 459 54T480 40Q496 40 510 56T539 97L570 80Q546 29 516 10T450 -10Q411 -10 386 11T355 74Q329 33
292 12T210 -10Q162 -10 123 13T62 83T39 198ZM154 188Q154 113 177 77T240 40Q282 40 313 74T362 164T380 281Q380 357 354 393T288 430Q247 430 217 396T171 306T154 188ZM419 545L327 623L212 545H182L325 720H356L449 545H419Z" />
<glyph unicode="&#xe3;" horiz-adv-x="589" d="M39 198Q39 261 58 312T110 401T183 459T266 479Q299 479 325 467T371 433T399 380L446 469H509L457 100Q453 67 459 54T480 40Q496 40 510 56T539 97L570 80Q546 29 516 10T450 -10Q411 -10 386 11T355 74Q329 33
292 12T210 -10Q162 -10 123 13T62 83T39 198ZM154 188Q154 113 177 77T240 40Q282 40 313 74T362 164T380 281Q380 357 354 393T288 430Q247 430 217 396T171 306T154 188ZM472 687L498 672Q482 609 449 584T379 559Q356 559 340 567T310 585T284 603T253 611Q238
611 223 602T192 562L166 577Q182 639 215 664T283 690Q306 690 322 682T352 664T380 646T412 638Q426 638 441 647T472 687Z" />
<glyph unicode="&#xe4;" horiz-adv-x="589" d="M39 198Q39 261 58 312T110 401T183 459T266 479Q299 479 325 467T371 433T399 380L446 469H509L457 100Q453 67 459 54T480 40Q496 40 510 56T539 97L570 80Q546 29 516 10T450 -10Q411 -10 386 11T355 74Q329 33
292 12T210 -10Q162 -10 123 13T62 83T39 198ZM154 188Q154 113 177 77T240 40Q282 40 313 74T362 164T380 281Q380 357 354 393T288 430Q247 430 217 396T171 306T154 188ZM221 564Q197 564 181 581T164 621Q164 641 175 657T203 683T239 694Q264 694 280 677T296
636Q296 617 285 601T257 574T221 564ZM428 564Q403 564 387 581T371 621Q371 651 394 672T446 694Q471 694 487 677T503 636Q503 607 480 586T428 564Z" />
<glyph unicode="&#xe5;" horiz-adv-x="589" d="M39 198Q39 261 58 312T110 401T183 459T266 479Q299 479 325 467T371 433T399 380L446 469H509L457 100Q453 67 459 54T480 40Q496 40 510 56T539 97L570 80Q546 29 516 10T450 -10Q411 -10 386 11T355 74Q329 33
292 12T210 -10Q162 -10 123 13T62 83T39 198ZM154 188Q154 113 177 77T240 40Q282 40 313 74T362 164T380 281Q380 357 354 393T288 430Q247 430 217 396T171 306T154 188ZM346 714Q390 714 416 692T443 634Q443 605 427 583T383 547T320 534Q277 534 250 556T223
614Q223 643 239 665T283 701T346 714ZM326 561Q348 561 361 582T375 637Q375 661 365 674T340 687Q319 687 306 666T292 612Q292 588 301 575T326 561Z" />
<glyph unicode="&#xe6;" horiz-adv-x="816" d="M210 -9Q162 -9 123 14T62 83T39 198Q39 261 58 312T110 401T183 459T266 480Q302 480 330 466T377 425T403 364L419 209Q402 145 375 96T307 19T210 -9ZM240 40Q282 40 313 74T362 164T380 281Q380 358 354 394T288
430Q247 430 217 396T171 307T154 189Q154 113 177 77T240 40ZM449 144L392 228L390 364L423 469H469L480 364L449 144ZM576 -10Q521 -10 477 12T407 81T381 197Q381 281 417 344T517 443T660 479Q696 479 730 471T785 441T807 385Q807 350 784 321T717 270T613
234T480 214V246Q535 251 576 264T645 297T685 338T699 385Q699 415 685 429T645 444Q610 444 583 422T535 362T505 281T494 191Q494 136 509 102T551 51T608 35Q646 35 682 60T743 122L774 105Q756 74 728 48T662 6T576 -10Z" />
<glyph unicode="&#xe7;" horiz-adv-x="459" d="M233 -10Q193 -10 158 2T96 40T54 104T38 196Q38 259 59 311T118 400T204 458T305 479Q352 479 384 465T432 426T449 372Q449 340 431 318T385 295Q363 295 350 310T337 348Q337 375 355 396T401 417Q424 417 432
404T440 376L407 368Q407 392 395 409T362 435T316 444Q276 444 246 423T196 364T166 282T156 190Q156 108 185 72T262 35Q301 35 330 58T385 121L416 103Q398 72 373 47T314 6T233 -10ZM115 -189Q132 -202 148 -207T179 -212Q207 -212 219 -199T231 -169Q231 -149
212 -135T155 -109L211 0H251L228 -45Q266 -54 291 -78T316 -139Q316 -170 299 -195T252 -235T186 -250Q140 -250 99 -220L115 -189Z" />
<glyph unicode="&#xe8;" horiz-adv-x="475" d="M234 -10Q179 -10 135 12T65 81T39 197Q39 281 75 344T175 443T318 479Q355 479 388 471T444 441T466 385Q466 350 442 321T375 270T271 234T138 214V246Q194 251 235 264T303 297T343 338T357 385Q357 415 343 429T303
444Q268 444 241 422T193 362T163 281T152 191Q152 136 167 102T209 51T266 35Q304 35 340 60T401 122L432 105Q414 74 386 48T320 6T234 -10ZM202 720H315L320 545H290L202 720Z" />
<glyph unicode="&#xe9;" horiz-adv-x="475" d="M234 -10Q179 -10 135 12T65 81T39 197Q39 281 75 344T175 443T318 479Q355 479 388 471T444 441T466 385Q466 350 442 321T375 270T271 234T138 214V246Q194 251 235 264T303 297T343 338T357 385Q357 415 343 429T303
444Q268 444 241 422T193 362T163 281T152 191Q152 136 167 102T209 51T266 35Q304 35 340 60T401 122L432 105Q414 74 386 48T320 6T234 -10ZM452 720L315 545H285L339 720H452Z" />
<glyph unicode="&#xea;" horiz-adv-x="475" d="M234 -10Q179 -10 135 12T65 81T39 197Q39 281 75 344T175 443T318 479Q355 479 388 471T444 441T466 385Q466 350 442 321T375 270T271 234T138 214V246Q194 251 235 264T303 297T343 338T357 385Q357 415 343 429T303
444Q268 444 241 422T193 362T163 281T152 191Q152 136 167 102T209 51T266 35Q304 35 340 60T401 122L432 105Q414 74 386 48T320 6T234 -10ZM408 545L316 623L201 545H171L314 720H345L438 545H408Z" />
<glyph unicode="&#xeb;" horiz-adv-x="475" d="M234 -10Q179 -10 135 12T65 81T39 197Q39 281 75 344T175 443T318 479Q355 479 388 471T444 441T466 385Q466 350 442 321T375 270T271 234T138 214V246Q194 251 235 264T303 297T343 338T357 385Q357 415 343 429T303
444Q268 444 241 422T193 362T163 281T152 191Q152 136 167 102T209 51T266 35Q304 35 340 60T401 122L432 105Q414 74 386 48T320 6T234 -10ZM210 564Q186 564 170 581T153 621Q153 641 164 657T192 683T228 694Q253 694 269 677T285 636Q285 617 274 601T246
574T210 564ZM417 564Q392 564 376 581T360 621Q360 651 383 672T435 694Q460 694 476 677T492 636Q492 607 469 586T417 564Z" />
<glyph unicode="&#xec;" horiz-adv-x="305" d="M255 97L286 80Q262 29 233 10T166 -10Q117 -10 90 21T72 118L116 427L109 434H41L46 469Q89 469 134 470T219 477L226 469L173 100Q169 67 175 54T196 40Q212 40 226 56T255 97ZM70 720H183L188 545H158L70 720Z" />
<glyph unicode="&#xed;" horiz-adv-x="305" d="M255 97L286 80Q262 29 233 10T166 -10Q117 -10 90 21T72 118L116 427L109 434H41L46 469Q89 469 134 470T219 477L226 469L173 100Q169 67 175 54T196 40Q212 40 226 56T255 97ZM321 720L184 545H154L208 720H321Z" />
<glyph unicode="&#xee;" horiz-adv-x="305" d="M255 97L286 80Q262 29 233 10T166 -10Q117 -10 90 21T72 118L116 427L109 434H41L46 469Q89 469 134 470T219 477L226 469L173 100Q169 67 175 54T196 40Q212 40 226 56T255 97ZM276 545L184 623L69 545H39L182
720H213L306 545H276Z" />
<glyph unicode="&#xef;" horiz-adv-x="305" d="M255 97L286 80Q262 29 233 10T166 -10Q117 -10 90 21T72 118L116 427L109 434H41L46 469Q89 469 134 470T219 477L226 469L173 100Q169 67 175 54T196 40Q212 40 226 56T255 97ZM78 564Q54 564 38 581T21 621Q21
641 32 657T60 683T96 694Q121 694 137 677T153 636Q153 617 142 601T114 574T78 564ZM285 564Q260 564 244 581T228 621Q228 651 251 672T303 694Q328 694 344 677T360 636Q360 607 337 586T285 564Z" />
<glyph unicode="&#xf0;" horiz-adv-x="522" d="M417 751L186 549L166 574L396 776L417 751ZM191 751Q296 713 361 650T457 504T488 323Q488 227 459 152T373 34T229 -10Q172 -10 129 15T62 85T38 189Q38 265 70 324T159 416T286 450Q316 450 341 437T384 400Q377
464 352 525T281 639T160 728L191 751ZM239 25Q272 25 296 46T337 102T362 178T371 262Q371 331 346 373T283 415Q251 415 227 394T186 338T161 262T152 178Q152 109 177 67T239 25Z" />
<glyph unicode="&#xf1;" horiz-adv-x="585" d="M535 97L565 80Q541 29 512 10T445 -10Q397 -10 369 22T352 124L383 324Q388 353 386 377T372 415T331 430Q313 430 292 422T250 393T214 339T191 252L156 0H52L112 427L104 434H41L46 469Q85 469 126 470T207 474L214
467L204 398H211Q234 433 272 456T365 479Q437 479 468 438T488 329L453 100Q448 67 455 54T475 40Q491 40 505 56T535 97ZM487 687L513 672Q497 609 464 584T394 559Q371 559 355 567T325 585T299 603T268 611Q253 611 238 602T207 562L181 577Q197 639 230 664T298
690Q321 690 337 682T367 664T395 646T427 638Q441 638 456 647T487 687Z" />
<glyph unicode="&#xf2;" horiz-adv-x="533" d="M300 479Q353 479 397 455T467 384T494 271Q494 210 473 159T416 70T332 11T232 -10Q180 -10 136 14T65 86T39 198Q39 259 59 310T116 399T200 458T300 479ZM240 25Q273 25 298 48T340 109T367 195T377 292Q377 338
368 372T339 425T293 444Q260 444 235 421T192 360T165 274T156 178Q156 131 165 97T194 44T240 25ZM205 720H318L323 545H293L205 720Z" />
<glyph unicode="&#xf3;" horiz-adv-x="533" d="M300 479Q353 479 397 455T467 384T494 271Q494 210 473 159T416 70T332 11T232 -10Q180 -10 136 14T65 86T39 198Q39 259 59 310T116 399T200 458T300 479ZM240 25Q273 25 298 48T340 109T367 195T377 292Q377 338
368 372T339 425T293 444Q260 444 235 421T192 360T165 274T156 178Q156 131 165 97T194 44T240 25ZM456 720L319 545H289L343 720H456Z" />
<glyph unicode="&#xf4;" horiz-adv-x="533" d="M300 479Q353 479 397 455T467 384T494 271Q494 210 473 159T416 70T332 11T232 -10Q180 -10 136 14T65 86T39 198Q39 259 59 310T116 399T200 458T300 479ZM240 25Q273 25 298 48T340 109T367 195T377 292Q377 338
368 372T339 425T293 444Q260 444 235 421T192 360T165 274T156 178Q156 131 165 97T194 44T240 25ZM412 545L320 623L205 545H175L318 720H349L442 545H412Z" />
<glyph unicode="&#xf5;" horiz-adv-x="533" d="M300 479Q353 479 397 455T467 384T494 271Q494 210 473 159T416 70T332 11T232 -10Q180 -10 136 14T65 86T39 198Q39 259 59 310T116 399T200 458T300 479ZM240 25Q273 25 298 48T340 109T367 195T377 292Q377 338
368 372T339 425T293 444Q260 444 235 421T192 360T165 274T156 178Q156 131 165 97T194 44T240 25ZM465 687L491 672Q475 609 442 584T372 559Q349 559 333 567T303 585T277 603T246 611Q231 611 216 602T185 562L159 577Q175 639 208 664T276 690Q299 690 315
682T345 664T373 646T405 638Q419 638 434 647T465 687Z" />
<glyph unicode="&#xf6;" horiz-adv-x="533" d="M300 479Q353 479 397 455T467 384T494 271Q494 210 473 159T416 70T332 11T232 -10Q180 -10 136 14T65 86T39 198Q39 259 59 310T116 399T200 458T300 479ZM240 25Q273 25 298 48T340 109T367 195T377 292Q377 338
368 372T339 425T293 444Q260 444 235 421T192 360T165 274T156 178Q156 131 165 97T194 44T240 25ZM214 564Q190 564 174 581T157 621Q157 641 168 657T196 683T232 694Q257 694 273 677T289 636Q289 617 278 601T250 574T214 564ZM421 564Q396 564 380 581T364
621Q364 651 387 672T439 694Q464 694 480 677T496 636Q496 607 473 586T421 564Z" />
<glyph unicode="&#xf7;" horiz-adv-x="510" d="M40 337H500L495 302H35L40 337ZM245 112Q223 112 209 126T195 163Q195 184 208 202T241 231T281 242Q304 242 317 227T330 191Q330 170 318 152T285 123T245 112ZM285 397Q263 397 250 411T236 448Q236 469 248
487T281 516T321 527Q344 527 357 512T370 476Q370 455 358 437T325 408T285 397Z" />
<glyph unicode="&#xf8;" horiz-adv-x="533" d="M96 -100L393 580H431L134 -100H96ZM300 479Q353 479 397 455T467 384T494 271Q494 210 473 159T416 70T332 11T232 -10Q180 -10 136 14T65 86T39 198Q39 259 59 310T116 399T200 458T300 479ZM240 25Q273 25 298
48T340 109T367 195T377 292Q377 338 368 372T339 425T293 444Q260 444 235 421T192 360T165 274T156 178Q156 131 165 97T194 44T240 25Z" />
<glyph unicode="&#xf9;" horiz-adv-x="580" d="M529 97L560 80Q536 29 507 10T440 -10Q400 -10 374 11T345 77Q320 37 282 14T192 -10Q122 -10 94 31T75 140L114 427L106 434H39L44 469Q86 469 131 470T216 477L223 469L178 139Q174 110 177 87T192 52T227 40Q272
40 310 88T362 228L390 427L383 434H315L320 469Q363 469 408 470T493 477L500 469L447 100Q443 67 449 54T470 40Q486 40 500 56T529 97ZM199 720H312L317 545H287L199 720Z" />
<glyph unicode="&#xfa;" horiz-adv-x="580" d="M529 97L560 80Q536 29 507 10T440 -10Q400 -10 374 11T345 77Q320 37 282 14T192 -10Q122 -10 94 31T75 140L114 427L106 434H39L44 469Q86 469 131 470T216 477L223 469L178 139Q174 110 177 87T192 52T227 40Q272
40 310 88T362 228L390 427L383 434H315L320 469Q363 469 408 470T493 477L500 469L447 100Q443 67 449 54T470 40Q486 40 500 56T529 97ZM450 720L313 545H283L337 720H450Z" />
<glyph unicode="&#xfb;" horiz-adv-x="580" d="M529 97L560 80Q536 29 507 10T440 -10Q400 -10 374 11T345 77Q320 37 282 14T192 -10Q122 -10 94 31T75 140L114 427L106 434H39L44 469Q86 469 131 470T216 477L223 469L178 139Q174 110 177 87T192 52T227 40Q272
40 310 88T362 228L390 427L383 434H315L320 469Q363 469 408 470T493 477L500 469L447 100Q443 67 449 54T470 40Q486 40 500 56T529 97ZM405 545L313 623L198 545H168L311 720H342L435 545H405Z" />
<glyph unicode="&#xfc;" horiz-adv-x="580" d="M529 97L560 80Q536 29 507 10T440 -10Q400 -10 374 11T345 77Q320 37 282 14T192 -10Q122 -10 94 31T75 140L114 427L106 434H39L44 469Q86 469 131 470T216 477L223 469L178 139Q174 110 177 87T192 52T227 40Q272
40 310 88T362 228L390 427L383 434H315L320 469Q363 469 408 470T493 477L500 469L447 100Q443 67 449 54T470 40Q486 40 500 56T529 97ZM207 564Q183 564 167 581T150 621Q150 641 161 657T189 683T225 694Q250 694 266 677T282 636Q282 617 271 601T243 574T207
564ZM414 564Q389 564 373 581T357 621Q357 651 380 672T432 694Q457 694 473 677T489 636Q489 607 466 586T414 564Z" />
<glyph unicode="&#xfd;" horiz-adv-x="544" d="M183 -260Q136 -260 101 -244T47 -200T28 -141Q28 -110 44 -87T90 -64Q112 -64 124 -78T137 -115Q137 -140 122 -161T82 -186Q95 -202 118 -213T171 -225Q214 -225 246 -201T298 -128T329 -3L340 69Q315 33 278 12T192
-10Q122 -10 94 31T75 140L114 427L106 434H39L44 469Q86 469 131 470T216 477L223 469L178 139Q174 110 177 87T192 52T227 40Q257 40 284 61T332 124T361 227L390 427L382 434H315L320 469Q363 469 407 470T492 477L499 469L434 0Q427 -51 409 -98T359 -181T285
-239T183 -260ZM448 720L311 545H281L335 720H448Z" />
<glyph unicode="&#xfe;" horiz-adv-x="550" d="M-63 -250L-58 -215H5L13 -208L139 688L131 695H64L69 730Q112 730 156 731T241 737L248 730L196 359L165 246V145L116 -208L123 -215H222L217 -250H-63ZM284 -10Q249 -10 221 4T173 45T147 106V253L196 399Q220
435 257 457T341 479Q390 479 428 456T488 387T511 271Q511 209 492 158T440 69T367 11T284 -10ZM262 40Q304 40 334 74T380 164T396 281Q396 356 373 393T310 430Q270 430 239 396T189 306T171 188Q171 112 197 76T262 40Z" />
<glyph unicode="&#xff;" horiz-adv-x="544" d="M183 -260Q136 -260 101 -244T47 -200T28 -141Q28 -110 44 -87T90 -64Q112 -64 124 -78T137 -115Q137 -140 122 -161T82 -186Q95 -202 118 -213T171 -225Q214 -225 246 -201T298 -128T329 -3L340 69Q315 33 278 12T192
-10Q122 -10 94 31T75 140L114 427L106 434H39L44 469Q86 469 131 470T216 477L223 469L178 139Q174 110 177 87T192 52T227 40Q257 40 284 61T332 124T361 227L390 427L382 434H315L320 469Q363 469 407 470T492 477L499 469L434 0Q427 -51 409 -98T359 -181T285
-239T183 -260ZM206 564Q182 564 166 581T149 621Q149 641 160 657T188 683T224 694Q249 694 265 677T281 636Q281 617 270 601T242 574T206 564ZM413 564Q388 564 372 581T356 621Q356 651 379 672T431 694Q456 694 472 677T488 636Q488 607 465 586T413 564Z"
/>
<glyph unicode="&#x2013;" horiz-adv-x="500" d="M10 305H510L505 270H5L10 305Z" />
<glyph unicode="&#x2014;" horiz-adv-x="800" d="M10 305H810L805 270H5L10 305Z" />
<glyph unicode="&#x2018;" horiz-adv-x="214" d="M129 383Q99 383 82 402T65 454Q65 498 84 538T137 615T209 686L232 663Q192 627 166 590T131 519Q136 520 140 520T148 521Q174 521 191 503T208 459Q208 429 185 406T129 383Z" />
<glyph unicode="&#x2019;" horiz-adv-x="214" d="M169 680Q199 680 215 661T232 609Q232 566 213 526T162 448T90 377L66 400Q105 437 132 474T167 544Q163 543 159 543T150 542Q125 542 108 560T90 604Q90 634 113 657T169 680Z" />
<glyph unicode="&#x201a;" horiz-adv-x="214" d="M91 128Q121 128 138 109T155 57Q155 14 136 -27T84 -104T12 -175L-12 -152Q28 -116 55 -79T89 -9Q85 -10 81 -10T72 -10Q47 -10 30 8T12 51Q12 82 35 105T91 128Z" />
<glyph unicode="&#x201c;" horiz-adv-x="393" d="M129 383Q99 383 82 402T65 454Q65 498 84 538T137 615T209 686L232 663Q192 627 166 590T131 519Q136 520 140 520T148 521Q174 521 191 503T208 459Q208 429 185 406T129 383ZM307 383Q277 383 261 402T244 454Q244
498 263 538T315 615T387 686L411 663Q371 627 344 590T310 519Q315 520 318 520T326 521Q352 521 369 503T386 459Q386 429 363 406T307 383Z" />
<glyph unicode="&#x201d;" horiz-adv-x="393" d="M347 680Q378 680 394 661T411 609Q411 566 392 526T340 448T268 377L244 400Q284 437 311 474T345 544Q341 543 337 543T329 542Q303 542 286 560T269 604Q269 634 292 657T347 680ZM169 680Q199 680 215 661T232
609Q232 566 213 526T162 448T90 377L66 400Q105 437 132 474T167 544Q163 543 159 543T150 542Q125 542 108 560T90 604Q90 634 113 657T169 680Z" />
<glyph unicode="&#x201e;" horiz-adv-x="393" d="M270 128Q300 128 316 109T333 57Q333 14 314 -27T262 -104T190 -175L166 -152Q206 -116 233 -79T267 -9Q263 -10 259 -10T251 -10Q225 -10 208 8T191 51Q191 82 214 105T270 128ZM91 128Q121 128 138 109T155
57Q155 14 136 -27T84 -104T12 -175L-12 -152Q28 -116 55 -79T89 -9Q85 -10 81 -10T72 -10Q47 -10 30 8T12 51Q12 82 35 105T91 128Z" />
<glyph unicode="&#x2022;" horiz-adv-x="289" d="M146 242Q105 242 78 270T51 339Q51 371 69 398T115 442T177 459Q217 459 244 431T271 362Q271 330 253 303T207 259T146 242Z" />
<glyph unicode="&#x2039;" horiz-adv-x="240" d="M248 414L125 235L197 55L172 39L8 235L227 430L248 414Z" />
<glyph unicode="&#x203a;" horiz-adv-x="240" d="M43 414L68 430L232 235L13 39L-8 55L115 235L43 414Z" />
</font>
</defs>
</svg>
