<?xml version="1.0" standalone="no"?>
<!DOCTYPE svg PUBLIC "-//W3C//DTD SVG 1.1//EN" "http://www.w3.org/Graphics/SVG/1.1/DTD/svg11.dtd">
<svg xmlns="http://www.w3.org/2000/svg">
<defs >
<font id="Brygada1918" horiz-adv-x="560" ><font-face
    font-family="Brygada 1918"
    units-per-em="1000"
    panose-1="0 0 0 0 0 0 0 0 0 0"
    ascent="920"
    descent="-250"
    alphabetic="0" />
<glyph unicode=" " horiz-adv-x="200" />
<glyph unicode="!" horiz-adv-x="231" d="M177 680Q218 680 237 650T242 575L126 210H95L82 575Q81 619 108 649T177 680ZM80 -10Q49 -10 28 12T6 66Q6 91 20 112T56 147T104 160Q136 160 157 138T178 84Q178 59 164 38T128 3T80 -10Z" />
<glyph unicode="&quot;" horiz-adv-x="409" d="M171 680Q194 680 213 668T239 632T232 574L140 350H110L80 574Q76 605 89 628T126 666T171 680ZM361 680Q384 680 403 668T429 632T422 574L330 350H300L270 574Q266 605 279 628T316 666T361 680Z" />
<glyph unicode="#" horiz-adv-x="675" d="M345 672H392L142 1H95L345 672ZM561 672H608L358 1H311L561 672ZM683 437H87L103 481H699L683 437ZM600 207H5L21 251H616L600 207Z" />
<glyph unicode="$" horiz-adv-x="610" d="M241 -100L364 770H399L276 -100H241ZM251 545Q251 508 273 483T329 438T403 399T476 354T533 293T555 204Q555 141 521 93T424 17T277 -10Q219 -10 177 2T105 31L84 1H49Q52 35 52 77T51 161T47 234L81 244Q104 163 136
116T207 50T287 30Q324 30 352 42T397 77T414 132Q414 170 392 196T336 244T262 285T189 331T132 393T110 480Q110 539 142 584T232 654T370 680Q419 680 458 670T528 639L549 670H584Q581 619 582 561T587 456L553 446Q539 503 517 540T469 600T416 631T362 640Q314
640 283 615T251 545Z" />
<glyph unicode="%" horiz-adv-x="895" d="M519 936Q587 936 624 889T662 764Q662 695 636 640T565 554T461 522Q394 522 356 570T318 694Q318 764 344 818T416 904T519 936ZM469 546Q488 546 501 568T523 623T537 692T544 756T546 796Q546 852 537 882T511 912Q494
912 481 893T459 844T444 780T436 715T433 662Q433 607 443 577T469 546ZM270 0L574 670H622L318 0H270ZM717 404Q785 404 822 357T860 232Q860 163 834 108T763 22T659 -10Q592 -10 554 38T516 162Q516 232 542 286T614 372T717 404ZM667 14Q686 14 699 36T721
91T735 160T742 224T744 264Q744 320 735 350T709 380Q692 380 679 361T657 312T642 248T634 183T631 130Q631 75 641 45T667 14Z" />
<glyph unicode="&amp;" horiz-adv-x="630" d="M288 -260Q239 -260 199 -245T135 -202T111 -135Q111 -97 132 -74T180 -51Q205 -51 221 -69T237 -113Q237 -143 216 -167T168 -191Q143 -191 132 -172T120 -137H142Q142 -161 160 -181T210 -213T277 -225Q325 -225
358 -204T408 -144T426 -55Q426 0 408 44T360 126T297 201T234 276T186 362T167 466Q167 525 187 566T239 632T309 668T385 680Q453 680 491 650T529 575Q529 548 514 529T475 509Q456 509 446 521T435 552Q435 575 450 594T490 613Q510 613 515 601T521 575H494Q494
602 468 623T402 645Q365 645 343 626T312 577T302 514Q302 462 320 419T368 336T431 260T494 181T542 91T561 -16Q561 -87 534 -134T464 -209T374 -248T288 -260ZM266 -10Q224 -10 181 -1T101 28T42 80T20 158Q20 206 41 243T99 307T178 356T267 394L284 368Q222
338 194 286T165 175Q165 118 194 79T290 40Q338 40 380 60T453 113T503 186T521 268Q521 301 510 330T482 383L513 400Q530 375 543 342T556 262Q556 212 538 164T485 76T395 14T266 -10Z" />
<glyph unicode="&apos;" horiz-adv-x="219" d="M171 680Q194 680 213 668T239 632T232 574L140 350H110L80 574Q76 605 89 628T126 666T171 680Z" />
<glyph unicode="(" horiz-adv-x="292" d="M75 240Q56 101 77 -25T154 -267L193 -250Q144 -146 123 -23T120 240Q140 380 196 503T331 730L296 747Q209 632 152 506T75 240Z" />
<glyph unicode=")" horiz-adv-x="292" d="M6 -250L41 -267Q128 -151 185 -25T262 240Q282 380 260 506T183 747L144 730Q193 626 215 503T217 240Q198 101 142 -22T6 -250Z" />
<glyph unicode="*" horiz-adv-x="486" d="M286 491L279 496L333 636Q344 663 368 676T414 675Q436 661 433 636T406 590L286 491ZM141 299Q119 313 122 339T149 384L269 483L277 478L223 338Q213 311 188 298T141 299ZM124 441Q98 434 79 445T59 481Q59 512 84
527T137 533L270 491L269 483L124 441ZM361 299Q335 285 315 298T291 338L277 478L285 483L377 384Q395 365 391 339T361 299ZM277 478L269 483L270 491L279 496L286 491L285 483L277 478ZM270 491L178 590Q160 610 164 635T194 675Q220 689 240 676T264 636L279
496L270 491ZM418 441L285 483L286 491L431 533Q457 541 476 530T496 493Q496 462 471 447T418 441Z" />
<glyph unicode="+" horiz-adv-x="510" d="M39 337H499L494 302H34L39 337ZM317 550L252 90H217L282 550H317Z" />
<glyph unicode="," horiz-adv-x="236" d="M103 160Q138 160 159 138T181 75Q181 31 157 -14T95 -101T14 -175L-10 -152Q33 -114 61 -78T99 -8Q95 -9 90 -9T80 -10Q49 -10 28 12T6 66Q6 103 34 131T103 160Z" />
<glyph unicode="-" horiz-adv-x="400" d="M49 305H369L360 240H40L49 305Z" />
<glyph unicode="." horiz-adv-x="231" d="M80 -10Q49 -10 28 12T6 66Q6 91 20 112T56 147T104 160Q136 160 157 138T178 84Q178 59 164 38T128 3T80 -10Z" />
<glyph unicode="/" horiz-adv-x="281" d="M-22 -60L282 730H330L26 -60H-22Z" />
<glyph unicode="0" horiz-adv-x="646" d="M385 680Q455 680 507 648T588 553T617 399Q617 302 592 226T521 98T416 18T288 -10Q219 -10 167 22T86 118T56 271Q56 368 81 444T152 572T257 652T385 680ZM302 30Q336 30 361 55T404 122T433 217T450 326T455 434Q455
541 432 590T372 640Q338 640 313 615T269 548T240 453T224 344T218 236Q218 130 241 80T302 30Z" />
<glyph unicode="1" horiz-adv-x="500" d="M147 45L215 526Q190 510 166 497T110 469L97 503Q130 518 162 537T224 577T282 622T335 670H390L302 45H147ZM26 0L31 35H137L147 45H302L312 35H416L411 0H26Z" />
<glyph unicode="2" horiz-adv-x="619" d="M24 0Q33 61 59 106T122 187T202 251T286 308T361 367T415 437T436 529Q436 564 425 588T392 626T335 640Q289 640 242 618T170 557Q208 563 233 545T258 492Q258 455 231 429T166 402Q138 402 117 421T96 483Q96 534
128 579T221 652T366 680Q394 680 433 675T509 653T571 604T596 518Q596 465 571 428T503 363T410 312T306 263T207 207T128 130H331Q389 130 426 135T488 159T532 215H567L489 0H24Z" />
<glyph unicode="3" horiz-adv-x="611" d="M344 353Q413 346 460 326T532 274T557 196Q557 142 531 103T462 39T365 2T255 -10Q190 -10 141 6T65 52T37 122Q37 166 65 194T130 223Q161 223 180 203T199 153Q199 119 175 94T113 68Q136 51 164 41T227 30Q305 30
349 75T393 205Q393 237 381 266T339 313T252 332L257 367Q302 367 333 381T383 419T410 473T419 535Q419 582 396 611T321 640Q279 640 241 621T173 567Q208 573 231 555T255 501Q255 464 228 438T163 412Q134 412 114 432T94 483Q94 525 116 561T177 624T264
665T362 680Q397 680 435 673T506 650T559 606T580 538Q580 486 551 449T469 389T344 353Z" />
<glyph unicode="4" horiz-adv-x="630" d="M457 45L467 35H521L516 0H231L236 35H292L302 45L369 510H366L84 217L83 212H567L562 177H21L25 207L468 670H543L457 45Z" />
<glyph unicode="5" horiz-adv-x="601" d="M559 540H180L144 382Q169 399 208 412T310 426Q429 426 488 374T548 239Q548 165 505 109T390 21T232 -10Q161 -10 117 10T51 62T30 130Q30 175 58 204T123 233Q154 233 173 213T192 163Q192 129 168 104T106 78Q126
53 159 42T224 30Q280 30 315 56T366 129T383 231Q383 275 373 310T339 365T274 386Q245 386 204 373T120 319L91 327L168 670H577L559 540Z" />
<glyph unicode="6" horiz-adv-x="626" d="M382 403Q429 403 474 387T548 332T578 231Q578 176 554 132T489 55T395 7T285 -10Q221 -10 169 15T85 101T54 263Q54 357 80 433T155 565T267 650T408 680Q479 680 521 657T581 601T600 536Q600 492 572 465T508 438Q477
438 458 458T438 508Q438 543 463 567T522 593Q511 610 483 625T419 640Q387 640 357 625T301 580T256 501T226 386T215 234Q215 159 224 114T250 50T294 30Q325 30 353 54T399 123T417 229Q417 297 396 327T342 358Q316 358 281 334T206 245L215 315Q245 362 287
382T382 403Z" />
<glyph unicode="7" horiz-adv-x="551" d="M578 670Q569 608 548 557T497 462T438 375T381 289T338 194T319 83Q318 49 294 20T226 -10Q189 -10 174 14T158 67Q158 125 182 168T245 250T330 328T419 419T495 540H287Q232 540 196 535T135 511T91 455L59 465L134 670H578Z" />
<glyph unicode="8" horiz-adv-x="583" d="M93 467Q93 416 114 383T169 328T240 288T311 253T366 210T388 147Q388 111 368 85T312 44T234 30Q209 30 182 36T131 55T94 92T79 151Q79 190 97 220T143 272T206 311T271 338L219 351Q171 334 129 306T60 238T33 144Q33
97 53 67T105 20T172 -3T239 -10Q262 -10 298 -6T374 11T451 48T509 113T532 212Q532 270 511 307T457 367T385 408T314 441T259 479T238 536Q238 562 252 586T294 625T366 640Q400 640 429 629T478 595T497 535Q497 490 462 448T341 366L396 356Q463 393 503 436T543
542Q543 588 521 618T459 664T366 680Q316 680 268 667T180 626T117 559T93 467Z" />
<glyph unicode="9" horiz-adv-x="628" d="M271 267Q225 267 180 283T105 338T75 439Q75 495 99 539T165 615T260 663T372 680Q419 680 460 668T533 625T583 542T601 412Q601 318 575 240T500 107T386 21T243 -10Q175 -10 133 11T72 65T52 129Q52 173 81 200T145
227Q177 227 195 207T214 157Q214 122 189 98T130 72Q142 55 170 43T231 30Q287 30 334 72T410 204T439 439Q439 515 430 559T404 621T361 640Q329 640 301 616T254 548T236 442Q236 374 258 343T311 312Q337 312 373 336T448 425L438 355Q408 309 366 288T271
267Z" />
<glyph unicode=":" horiz-adv-x="231" d="M80 -10Q49 -10 28 12T6 66Q6 91 20 112T56 147T104 160Q136 160 157 138T178 84Q178 59 164 38T128 3T80 -10ZM123 300Q92 300 71 322T50 376Q50 401 64 422T100 457T147 470Q179 470 200 448T221 394Q221 369 207 348T171
313T123 300Z" />
<glyph unicode=";" horiz-adv-x="236" d="M103 160Q138 160 159 138T181 75Q181 31 157 -14T95 -101T14 -175L-10 -152Q33 -114 61 -78T99 -8Q95 -9 90 -9T80 -10Q49 -10 28 12T6 66Q6 103 34 131T103 160ZM124 300Q92 300 71 322T50 376Q50 401 64 422T100 457T147
470Q179 470 200 448T221 394Q221 369 207 348T171 313T124 300Z" />
<glyph unicode="&lt;" horiz-adv-x="490" d="M507 537L501 494L89 322L88 317L452 145L446 102L34 302L39 337L507 537Z" />
<glyph unicode="=" horiz-adv-x="511" d="M50 417H510L505 382H45L50 417ZM28 257H488L483 222H23L28 257Z" />
<glyph unicode="&gt;" horiz-adv-x="490" d="M67 537L479 337L474 302L6 102L12 145L424 317L425 322L61 494L67 537Z" />
<glyph unicode="?" horiz-adv-x="493" d="M227 210Q223 226 222 242T220 271Q220 309 232 338T263 392T300 440T331 489T344 546Q344 584 322 608T256 633Q226 633 195 620T142 577Q181 584 205 565T229 513Q229 476 201 450T137 423Q111 423 90 441T68 503Q68
553 99 592T187 655T318 679Q366 679 408 667T478 627T505 550Q505 505 483 473T428 413T360 360T297 301T259 225Q258 221 258 218T257 210H227ZM208 -10Q177 -10 156 12T134 66Q134 91 148 112T184 147T232 160Q264 160 285 138T306 84Q306 59 292 38T256 3T208
-10Z" />
<glyph unicode="@" horiz-adv-x="957" d="M434 -169Q360 -169 289 -148T161 -84T70 25T36 182Q36 264 65 338T145 475T266 584T418 655T588 680Q683 680 761 649T886 552T933 385Q933 320 913 258T854 145T764 65T649 35Q582 35 559 69T542 164L619 450H739L660
162Q654 139 652 118T655 84T681 70Q710 70 734 101T775 183T801 288T811 390Q811 508 750 574T572 640Q481 640 408 602T281 499T200 352T171 180Q171 82 205 13T303 -93T453 -129Q518 -129 580 -110T696 -58L711 -89Q656 -123 587 -146T434 -169ZM408 35Q346
35 303 75T259 193Q259 244 278 291T332 377T413 437T513 460Q569 460 591 431T613 340Q613 296 603 244T569 144T506 66T408 35ZM439 70Q472 70 497 98T539 169T564 257T573 339Q573 379 561 402T520 425Q488 425 463 397T421 326T395 237T386 155Q386 117 398
94T439 70Z" />
<glyph unicode="A" horiz-adv-x="692" d="M161 0H-44L-39 35H19L370 670H440L610 35H668L663 0H367L372 35H431L441 45L325 495H320L73 45L83 35H166L161 0ZM161 255H487L482 220H156L161 255Z" />
<glyph unicode="B" horiz-adv-x="695" d="M472 350Q557 343 608 303T659 196Q659 144 633 107T566 47T476 12T382 0H-3L2 35H58L68 45L150 625L140 635H86L91 670H436Q483 670 526 663T603 640T656 596T676 528Q676 483 654 447T587 387T472 350ZM315 635L305
625L267 355H362Q400 355 434 371T489 422T511 506Q511 550 497 578T456 621T391 635H315ZM347 35Q385 35 418 52T473 102T494 187Q494 252 461 286T387 320H262L224 45L234 35H347Z" />
<glyph unicode="C" horiz-adv-x="687" d="M390 40Q451 40 510 74T624 172L654 149Q591 70 515 30T347 -10H346Q259 -10 193 26T89 130T51 289Q51 373 82 444T169 568T298 650T456 680Q512 680 551 668T618 640L637 670H672Q669 619 667 557T666 447L632 437Q619
492 600 530T558 593T507 628T445 640Q390 640 347 613T275 537T231 427T216 295Q216 225 233 167T288 75T390 40Z" />
<glyph unicode="D" horiz-adv-x="756" d="M426 670Q486 670 541 655T639 608T708 523T734 396Q734 304 699 231T605 107T478 28T342 0H-3L2 35H57L68 45L150 625L141 635H86L91 670H426ZM307 35Q357 35 404 59T488 130T547 239T569 381Q569 503 522 569T391 635H316L305
625L223 45L232 35H307Z" />
<glyph unicode="E" horiz-adv-x="619" d="M553 190H588L518 0H-3L2 35H58L68 45L150 625L140 635H86L91 670H592L606 510L571 500Q555 553 525 582T455 623T367 635H315L305 625L268 365H321Q364 365 402 394T447 475H482L446 220H411Q418 271 389 300T316 330H263L223
45L233 35H303Q375 35 440 73T553 190Z" />
<glyph unicode="F" horiz-adv-x="565" d="M-3 0L2 35H58L68 45L150 625L140 635H86L91 670H572L586 510L551 500Q535 553 505 582T435 623T347 635H315L305 625L265 345H338Q381 345 419 374T464 455H499L463 200H428Q436 251 406 280T333 310H260L223 45L233
35H312L307 0H-3Z" />
<glyph unicode="G" horiz-adv-x="728" d="M469 320H719L714 285H678L668 275L629 0H594L522 65H517Q492 43 467 26T410 0T327 -10H326Q239 -10 178 28T83 132T50 283Q50 368 82 440T170 566T303 650T467 680Q529 680 571 667T638 640L657 670H692Q689 619 687
557T686 447L652 437Q634 513 605 557T538 620T455 640Q394 640 349 611T273 532T228 419T213 286Q213 221 227 165T273 75T357 40Q397 40 434 61T497 124T530 222L537 275L527 285H464L469 320Z" />
<glyph unicode="H" horiz-adv-x="766" d="M511 670H796L791 635H735L725 625L643 45L653 35H707L702 0H417L422 35H478L488 45L528 330H263L223 45L233 35H287L282 0H-3L2 35H58L68 45L150 625L140 635H86L91 670H376L371 635H314L305 625L268 365H533L570 625L560
635H506L511 670Z" />
<glyph unicode="I" horiz-adv-x="346" d="M315 635L305 625L223 45L233 35H287L282 0H-3L2 35H58L68 45L150 625L140 635H86L91 670H376L371 635H315Z" />
<glyph unicode="J" horiz-adv-x="473" d="M144 -10Q98 -10 69 5T25 45T10 96Q10 134 34 157T93 180Q125 180 144 162T163 115Q163 78 136 54T76 30Q61 30 54 42T44 69T43 97H65Q64 96 66 85T76 60T98 36T134 25Q163 25 186 50T219 140L286 625H442L382 196Q373
134 347 94T285 31T212 -1T144 -10ZM227 670H512L507 635H452L442 625H286L277 635H222L227 670Z" />
<glyph unicode="K" horiz-adv-x="721" d="M387 0L392 35H447L457 45L319 350L441 452L634 35H689L684 0H387ZM190 268L617 625L607 635H504L509 670H755L750 635H695L253 268H190ZM316 635L305 625L223 45L233 35H287L282 0H-3L2 35H58L68 45L150 625L140 635H86L91
670H376L371 635H316Z" />
<glyph unicode="L" horiz-adv-x="594" d="M540 210H575L498 0H-3L2 35H58L68 45L150 625L140 635H86L91 670H376L371 635H315L305 625L223 45L233 35H293Q358 35 423 75T540 210Z" />
<glyph unicode="M" horiz-adv-x="916" d="M885 635L875 625L793 45L803 35H857L852 0H567L572 35H628L638 45L707 533H702L422 0H359L210 553H205L133 45L143 35H227L222 0H-3L2 35H78L88 45L170 625L160 635H86L91 670H346L473 200H478L726 670H946L941 635H885Z" />
<glyph unicode="N" horiz-adv-x="727" d="M561 670H766L761 635H705L695 625L607 0H537L178 465H173L113 45L123 35H207L202 0H-3L2 35H58L68 45L150 625L140 635H86L91 670H226L585 205H590L650 625L640 635H556L561 670Z" />
<glyph unicode="O" horiz-adv-x="764" d="M443 680Q538 680 604 643T705 538T740 382Q740 300 711 229T629 104T505 20T348 -10Q253 -10 187 27T86 132T51 288Q51 371 80 442T162 566T286 650T443 680ZM356 30Q399 30 438 56T508 131T557 245T575 392Q575 457
561 513T517 605T435 640Q392 640 353 614T283 539T234 425T216 278Q216 213 230 157T275 65T356 30Z" />
<glyph unicode="P" horiz-adv-x="642" d="M-3 0L2 35H58L68 45L150 625L140 635H86L91 670H416Q463 670 506 661T582 633T634 584T653 509Q653 456 627 416T559 347T467 305T373 290H258L223 45L233 35H312L307 0H-3ZM263 325H338Q377 325 411 343T467 399T488
495Q488 544 473 575T434 620T381 635H315L305 625L263 325Z" />
<glyph unicode="Q" horiz-adv-x="764" d="M600 -46L623 -69Q590 -123 556 -141T486 -160Q440 -160 413 -138T373 -80T354 -5T342 70T328 127T296 150Q277 150 263 137T242 116L219 139Q252 193 286 211T356 230Q403 230 429 208T469 150T488 75T500 0T515 -57T546
-80Q565 -80 579 -67T600 -46ZM443 680Q538 680 604 643T705 538T740 382Q740 300 711 229T629 104T505 20T348 -10Q253 -10 187 27T86 132T51 288Q51 371 80 442T162 566T286 650T443 680ZM356 30Q399 30 438 56T508 131T557 245T575 392Q575 457 561 513T517
605T435 640Q392 640 353 614T283 539T234 425T216 278Q216 213 230 157T275 65T356 30Z" />
<glyph unicode="R" horiz-adv-x="706" d="M358 0L363 35H424L434 45L285 323H447L609 35H674L669 0H358ZM416 670Q460 670 502 662T578 636T633 587T654 512Q654 460 628 422T561 359T470 322T376 310H261L223 45L233 35H287L282 0H-3L2 35H58L68 45L150 625L140
635H86L91 670H416ZM340 345Q379 345 413 361T468 415T489 511Q489 568 457 601T381 635H315L305 625L265 345H340Z" />
<glyph unicode="S" horiz-adv-x="610" d="M251 545Q251 508 273 483T329 438T403 399T476 354T533 293T555 204Q555 141 521 93T424 17T277 -10Q219 -10 177 2T105 31L84 1H49Q52 35 52 77T51 161T47 234L81 244Q104 163 136 116T207 50T287 30Q324 30 352 42T397
77T414 132Q414 170 392 196T336 244T262 285T189 331T132 393T110 480Q110 539 142 584T232 654T370 680Q419 680 458 670T528 639L549 670H584Q581 619 582 561T587 456L553 446Q539 503 517 540T469 600T416 631T362 640Q314 640 283 615T251 545Z" />
<glyph unicode="T" horiz-adv-x="658" d="M663 670L678 491L644 481Q628 539 599 572T533 620T461 635L378 45L388 35H442L437 0H152L157 35H213L223 45L306 635Q270 635 231 621T153 573T82 481L50 491L115 670H663Z" />
<glyph unicode="U" horiz-adv-x="713" d="M547 670H752L747 635H690L680 625L627 245Q616 166 579 109T482 21T344 -10Q254 -10 193 22T104 110T85 233L140 625L130 635H77L82 670H367L362 635H305L295 625L243 255Q235 195 244 147T286 69T377 40Q424 40 467
64T542 134T582 245L635 625L625 635H542L547 670Z" />
<glyph unicode="V" horiz-adv-x="672" d="M537 670H742L737 635H682L358 0H273L106 635H51L56 670H354L349 635H290L280 625L392 175H397L626 625L616 635H532L537 670Z" />
<glyph unicode="W" horiz-adv-x="975" d="M233 0L105 635H50L55 670H353L348 635H292L282 625L357 215H362L517 533L495 635H442L447 670H751L746 635H677L667 625L750 215H755L927 625L917 635H833L838 670H1047L1042 635H984L713 0H638L537 460H532L308 0H233Z" />
<glyph unicode="X" horiz-adv-x="679" d="M583 35H638L633 0H331L336 35H392L402 45L122 635H67L72 670H372L367 635H314L304 625L583 35ZM359 352L576 625L566 635H482L487 670H698L693 635H638L415 352H359ZM344 352L103 45L113 35H197L192 0H-22L-17 35H38L288
352H344Z" />
<glyph unicode="Y" horiz-adv-x="657" d="M511 670H724L719 635H664L424 289L390 45L400 35H453L448 0H163L168 35H225L235 45L269 289L108 635H53L58 670H361L356 635H300L290 625L409 355H414L600 625L590 635H506L511 670Z" />
<glyph unicode="Z" horiz-adv-x="595" d="M-14 0L-10 30L417 625L407 635H341Q293 635 250 623T169 582T99 500L68 510L126 670H612L608 640L181 45L191 35H298Q370 35 435 73T548 190H583L513 0H-14Z" />
<glyph unicode="[" horiz-adv-x="290" d="M324 694H214L208 689L82 -210L86 -215H196L191 -250H31L169 730H329L324 694Z" />
<glyph unicode="\" horiz-adv-x="392" d="M330 -60H282L89 730H137L330 -60Z" />
<glyph unicode="]" horiz-adv-x="290" d="M94 694L99 730H259L121 -250H-39L-34 -215H76L82 -210L208 689L204 694H94Z" />
<glyph unicode="^" horiz-adv-x="495" d="M466 248H423L307 646H302L74 248H31L295 708H330L466 248Z" />
<glyph unicode="_" horiz-adv-x="420" d="M-34 0H386L381 -35H-39L-34 0Z" />
<glyph unicode="`" horiz-adv-x="140" d="M0 720H140L134 540H104L0 720Z" />
<glyph unicode="a" horiz-adv-x="606" d="M29 207Q29 271 49 323T104 412T179 470T262 490Q301 490 327 475T370 436T393 391L440 480H535L482 104Q477 69 484 57T505 45Q520 45 532 57T557 88L587 70Q564 24 533 7T464 -10Q419 -10 389 11T350 73Q323 32 288
11T209 -10Q161 -10 120 13T54 84T29 207ZM179 192Q179 116 200 81T253 45Q287 45 313 79T356 170T372 289Q372 365 351 400T298 435Q265 435 238 401T195 311T179 192Z" />
<glyph unicode="b" horiz-adv-x="569" d="M33 0L129 685L119 695H59L64 730Q111 730 166 731T262 740L272 730L229 422Q253 454 286 472T360 490Q409 490 449 467T515 396T540 273Q540 209 520 157T465 68T390 10T307 -10Q268 -10 241 6T198 45T176 91L128 0H33ZM197
191Q197 115 218 80T271 45Q305 45 331 79T374 169T390 288Q390 364 369 399T316 435Q283 435 256 401T213 311T197 191Z" />
<glyph unicode="c" horiz-adv-x="468" d="M242 -10Q203 -10 165 1T96 37T47 104T28 205Q28 274 52 327T118 416T211 471T317 490Q370 490 403 474T451 433T466 379Q466 342 444 317T391 291Q365 291 350 310T334 354Q334 386 356 410T409 434Q434 434 445 420T456
388L420 379Q420 405 407 422T373 447T331 455Q293 455 265 431T219 368T192 282T183 192Q183 113 210 77T286 41Q318 41 344 58T401 120L431 102Q412 69 386 44T324 5T242 -10Z" />
<glyph unicode="d" horiz-adv-x="603" d="M29 207Q29 271 49 323T104 412T179 470T262 490Q314 490 344 463T388 405L427 685L417 695H357L362 730Q409 730 464 731T560 740L570 730L479 104Q474 69 481 57T502 45Q517 45 529 57T554 88L584 70Q561 24 530 7T461
-10Q417 -10 387 10T348 69Q324 32 289 11T209 -10Q161 -10 120 13T54 84T29 207ZM179 192Q179 116 200 81T253 45Q287 45 313 79T356 170T372 289Q372 365 351 400T298 435Q265 435 238 401T195 311T179 192Z" />
<glyph unicode="e" horiz-adv-x="495" d="M243 -10Q187 -10 138 11T58 80T28 205Q28 292 67 356T175 455T328 490Q368 490 405 481T468 450T493 390Q493 354 472 325T410 275T306 239T159 216V249Q221 254 259 270T318 308T345 353T353 396Q353 428 341 441T308
455Q276 455 252 429T212 361T187 276T178 195Q178 141 195 107T238 56T293 40Q326 40 363 61T428 124L458 106Q437 71 405 45T333 4T243 -10Z" />
<glyph unicode="f" horiz-adv-x="301" d="M-3 -260Q-43 -260 -68 -246T-105 -210T-117 -167Q-117 -134 -98 -111T-50 -88Q-26 -88 -9 -107T9 -152Q9 -181 -11 -204T-58 -228Q-83 -228 -95 -209T-108 -174H-86Q-85 -191 -67 -208T-23 -225Q9 -225 30 -204T60 -149T68
-75T53 0L99 435L89 445H245L235 435L183 -64Q176 -136 148 -179T79 -241T-3 -260ZM41 445L45 480H346L342 445H41ZM102 464L112 544Q121 616 149 659T215 721T296 740Q337 740 362 726T398 690T410 647Q410 614 391 591T343 568Q319 568 302 587T284 632Q284 661
304 684T351 708Q377 708 388 690T401 654H379Q378 671 360 688T316 705Q284 705 263 684T233 629T225 555T240 480L238 464H102Z" />
<glyph unicode="g" horiz-adv-x="575" d="M-19 -127Q-19 -90 3 -66T55 -42Q78 -42 95 -57T112 -101Q112 -132 93 -156T45 -185Q59 -203 83 -214T141 -225Q192 -225 231 -199T295 -123T330 -5L338 56Q315 25 282 8T209 -10Q161 -10 120 13T54 84T29 207Q29 271
49 323T104 412T179 470T262 490Q301 490 327 475T370 437T392 392L439 480H534L467 1Q460 -48 441 -94T387 -178T300 -238T176 -260Q104 -260 62 -239T0 -187T-19 -127ZM179 192Q179 116 200 81T253 45Q287 45 313 79T356 170T372 289Q372 365 351 400T298 435Q265
435 238 401T195 311T179 192Z" />
<glyph unicode="h" horiz-adv-x="606" d="M557 88L587 70Q564 24 533 7T464 -10Q406 -10 373 26T351 140L381 330Q387 368 385 391T371 424T337 435Q319 435 301 425T265 393T234 340T212 264L175 0H39L134 685L124 695H64L69 730Q116 730 171 731T267 740L277
730L232 409Q260 448 300 469T392 490Q470 490 499 447T517 330L482 104Q477 69 484 57T505 45Q520 45 532 57T557 88Z" />
<glyph unicode="i" horiz-adv-x="313" d="M264 88L294 70Q271 24 240 7T171 -10Q113 -10 80 25T56 127L99 435L89 445H29L34 480Q81 480 136 481T232 490L242 480L189 104Q184 69 191 57T212 45Q227 45 239 57T264 88ZM180 546Q147 546 129 568T115 625Q120 659
143 684T199 710Q232 710 250 688T263 631Q259 597 237 572T180 546Z" />
<glyph unicode="j" horiz-adv-x="283" d="M232 490L242 480L166 -64Q156 -136 126 -179T56 -241T-26 -260Q-66 -260 -91 -246T-128 -211T-140 -167Q-140 -133 -119 -111T-69 -88Q-44 -88 -28 -105T-11 -148Q-11 -170 -23 -188T-54 -218Q-50 -220 -46 -220Q-10
-220 16 -190T50 -109T39 0L99 435L89 445H29L34 480Q81 480 136 481T232 490ZM180 546Q147 546 129 568T115 625Q120 659 143 684T199 710Q232 710 250 688T263 631Q259 597 237 572T180 546Z" />
<glyph unicode="k" horiz-adv-x="582" d="M425 -10Q372 -10 338 14T286 89L240 216L372 240L428 97Q438 72 450 61T477 50Q492 50 504 61T532 92L562 74Q539 28 505 9T425 -10ZM397 490Q434 490 464 480T514 449T533 393Q533 348 496 304T382 230T182 192V225Q257
233 303 261T371 326T393 400Q393 425 382 435T351 445Q316 445 286 421T234 354T204 251L169 0H33L129 685L119 695H59L64 730Q111 730 166 731T262 740L272 730L228 415Q253 450 297 470T397 490Z" />
<glyph unicode="l" horiz-adv-x="313" d="M264 88L294 70Q271 24 240 7T171 -10Q113 -10 80 25T56 127L134 685L124 695H64L69 730Q116 730 171 731T267 740L277 730L189 104Q184 69 191 57T212 45Q227 45 239 57T264 88Z" />
<glyph unicode="m" horiz-adv-x="871" d="M822 88L852 70Q829 24 798 7T729 -10Q671 -10 638 26T616 140L646 330Q652 368 650 391T636 424T602 435Q587 435 570 426T537 397T508 349T489 279L446 0H315L361 330Q366 368 364 391T352 424T322 435Q306 435 288
425T252 393T221 338T201 260L165 0H29L89 435L79 445H29L34 480Q73 480 122 481T211 485L221 475L212 409H222Q250 448 289 469T377 490Q430 490 460 467T497 403Q524 450 570 470T662 490Q736 490 764 447T782 330L747 104Q742 69 749 57T770 45Q785 45 797 57T822
88Z" />
<glyph unicode="n" horiz-adv-x="596" d="M547 88L577 70Q554 24 523 7T454 -10Q396 -10 363 26T341 140L371 330Q377 368 375 391T361 424T327 435Q309 435 290 425T253 393T221 338T201 260L165 0H29L89 435L79 445H29L34 480Q73 480 122 481T211 485L221 475L212
409H222Q250 448 290 469T382 490Q460 490 489 447T507 330L472 104Q467 69 474 57T495 45Q510 45 522 57T547 88Z" />
<glyph unicode="o" horiz-adv-x="551" d="M309 490Q362 490 410 466T490 394T522 272Q522 204 499 152T435 63T345 9T242 -10Q190 -10 141 14T61 86T29 208Q29 276 52 328T116 417T207 471T309 490ZM248 25Q278 25 300 52T337 122T359 215T367 312Q367 349 362
381T342 434T303 455Q273 455 251 428T214 358T192 265T184 168Q184 132 189 99T209 46T248 25Z" />
<glyph unicode="p" horiz-adv-x="571" d="M-68 -250L-63 -215H-1L9 -205L99 435L89 445H29L34 480Q81 480 131 481T221 490L231 480L222 419H228Q252 452 286 471T362 490Q411 490 451 467T517 396T542 273Q542 209 522 157T467 68T392 10T309 -10Q259 -10 229
16T185 72L145 -205L155 -215H233L228 -250H-68ZM199 191Q199 115 220 80T273 45Q307 45 333 79T376 169T392 288Q392 364 371 399T318 435Q285 435 258 401T215 311T199 191Z" />
<glyph unicode="q" horiz-adv-x="578" d="M29 207Q29 271 49 323T104 412T179 470T262 490Q304 490 331 473T375 430T395 381L447 480H542L446 -205L456 -215H516L511 -250Q465 -250 409 -251T313 -260L303 -250L348 69Q324 32 289 11T209 -10Q161 -10 120 13T54
84T29 207ZM179 192Q179 116 200 81T253 45Q287 45 313 79T356 170T372 289Q372 365 351 400T298 435Q265 435 238 401T195 311T179 192Z" />
<glyph unicode="r" horiz-adv-x="431" d="M27 0L89 435L79 445H29L34 480Q73 480 122 483T211 490L221 480L205 366H215Q235 403 261 431T318 475T378 491Q410 491 430 472T450 421Q450 386 428 358T374 329Q347 329 331 349T314 398Q314 413 319 428Q281 405
244 351T194 220L163 0H27Z" />
<glyph unicode="s" horiz-adv-x="460" d="M192 -10Q128 -10 89 7T31 52T13 110Q13 143 32 167T82 191Q107 191 127 174T148 124Q148 90 126 69T80 48Q65 48 52 57T39 81H72Q72 62 98 44T182 25Q219 25 247 34T291 59T307 98Q307 123 289 138T241 166T180 191T118
222T71 266T52 334Q52 385 82 420T163 472T273 490Q356 490 395 461T434 390Q434 357 413 334T362 311Q337 311 319 329T301 376Q301 405 318 427T360 450Q375 450 385 439T396 407H366Q366 425 343 440T276 455Q243 455 218 446T178 421T163 385Q163 362 181 348T228
322T289 299T350 270T397 225T416 154Q416 100 386 64T304 9T192 -10Z" />
<glyph unicode="t" horiz-adv-x="376" d="M189 -10Q128 -10 95 25T72 134L114 435L104 445H29L34 480Q105 493 163 542T248 670H283L256 480H383L378 445H260L250 435L204 104Q201 84 208 70T232 55Q248 55 268 71T303 114L333 96Q306 40 269 15T189 -10Z" />
<glyph unicode="u" horiz-adv-x="600" d="M551 88L581 70Q558 24 527 7T458 -10Q411 -10 380 13T343 81Q312 33 271 12T180 -10Q102 -10 76 33T60 150L99 435L89 445H29L34 480Q81 480 136 481T232 490L242 480L196 150Q191 113 192 90T202 56T230 45Q267 45 305
89T357 227L386 435L376 445H316L321 480Q368 480 423 481T519 490L529 480L476 104Q471 69 478 57T499 45Q514 45 526 57T551 88Z" />
<glyph unicode="v" horiz-adv-x="517" d="M482 490L492 480Q492 393 478 318T436 182T372 79T288 13T188 -10Q106 -10 79 40T63 175L99 435L89 445H29L34 480Q81 480 136 481T232 490L242 480L196 151Q193 126 192 102T201 61T241 45Q269 45 297 61T349 106T387
177T402 267Q402 326 384 372T343 446L293 445L298 480Q337 480 389 483T482 490Z" />
<glyph unicode="w" horiz-adv-x="784" d="M748 490L758 480Q758 393 745 318T707 182T647 79T568 13T474 -10Q416 -10 386 16T348 90Q336 70 316 47T263 7T184 -10Q105 -10 78 40T62 175L99 435L89 445H29L34 480Q81 480 136 481T232 490L242 480L195 151Q189
108 194 77T233 45Q254 45 279 62T325 120T356 227L385 435L375 445H315L320 480Q367 480 422 481T518 490L528 480L482 151Q476 108 482 77T526 45Q560 45 592 72T646 148T668 262Q668 324 651 371T618 446L579 445L584 480Q616 480 662 483T748 490Z" />
<glyph unicode="x" horiz-adv-x="568" d="M402 -10Q344 -10 311 21T263 101T248 198Q248 261 267 314T319 407T393 468T481 490Q536 490 560 462T584 395Q584 361 567 332T517 303Q490 303 476 323T461 371Q461 404 479 426T521 449Q534 449 549 440T565 405L540
397Q540 429 526 442T493 455Q465 455 440 432T396 370T365 278T353 169Q353 130 359 101T380 56T419 40Q444 40 466 55T502 92L532 74Q509 28 476 9T402 -10ZM90 -10Q35 -10 11 20T-14 92Q-14 133 5 155T52 177Q80 177 94 157T109 109Q109 75 91 53T49 31Q36 31
21 40T5 75L30 83Q30 52 44 39T77 25Q105 25 130 48T174 110T205 202T217 311Q217 350 211 379T190 424T152 440Q127 440 105 425T68 388L38 406Q61 452 94 471T168 490Q226 490 259 459T307 380T322 283Q322 220 303 167T252 74T177 12T90 -10Z" />
<glyph unicode="y" horiz-adv-x="569" d="M180 -260Q127 -260 90 -241T33 -193T13 -130Q13 -97 32 -70T85 -42Q111 -42 126 -59T141 -102Q141 -133 122 -157T75 -185Q90 -203 113 -214T163 -225Q204 -225 237 -199T292 -126T323 -15L335 69Q305 28 266 9T180 -10Q102
-10 76 33T60 150L99 435L89 445H29L34 480Q81 480 136 481T232 490L242 480L196 150Q191 113 192 90T202 56T230 45Q254 45 280 64T327 122T356 223L386 435L376 445H316L321 480Q368 480 423 481T519 490L528 480L461 1Q454 -48 435 -94T381 -178T298 -238T180
-260Z" />
<glyph unicode="z" horiz-adv-x="477" d="M34 -10L4 8Q29 69 64 112T140 187T225 248T310 308T387 383L382 388Q342 356 306 344T237 332Q208 332 191 338T162 350T138 356Q124 356 119 348T113 331Q113 321 117 312T126 298L96 280Q76 302 66 326T55 376Q55 408
69 433T113 474T187 490Q222 490 246 482T289 462T326 443T369 434Q395 434 419 447T458 490L488 472Q463 411 428 368T351 291T266 229T181 167T104 92L109 87Q150 118 184 133T258 148Q282 148 298 142T328 130T355 124Q367 124 373 130T379 147Q379 155 375
165T366 182L396 200Q416 178 426 154T437 104Q437 57 404 24T305 -10Q270 -10 246 -2T203 18T166 37T123 46Q98 46 74 33T34 -10Z" />
<glyph unicode="{" horiz-adv-x="310" d="M28 224Q65 224 83 211T106 176T107 130Q99 73 86 28T62 -56T51 -134Q51 -184 87 -217T191 -251L196 -216Q147 -216 122 -192T96 -127Q96 -89 106 -51T130 33T152 135Q160 183 137 214T61 243L62 235Q115 235 145 265T182
342Q188 387 188 426T189 505T196 589Q203 636 236 665T324 695L329 730Q254 730 207 691T152 594Q146 550 146 511T145 432T137 347Q132 310 110 282T32 254L28 224Z" />
<glyph unicode="|" horiz-adv-x="245" d="M31 -250L172 750H217L76 -250H31Z" />
<glyph unicode="}" horiz-adv-x="310" d="M-19 -251Q56 -251 103 -213T158 -117Q164 -72 164 -33T166 46T173 130Q178 167 200 195T278 224L282 254Q246 254 228 267T205 301T203 347Q211 404 224 449T248 533T259 611Q259 662 223 696T119 730L114 695Q163 695
188 670T213 604Q213 567 203 528T179 444T157 342Q150 294 173 264T249 235L247 243Q195 243 166 213T128 135Q122 91 122 52T121 -27T114 -112Q107 -159 74 -187T-14 -216L-19 -251Z" />
<glyph unicode="~" horiz-adv-x="510" d="M399 371Q440 371 462 347T491 282L454 268Q444 298 431 314T386 330Q362 330 331 321T265 300T197 279T134 270Q94 270 72 294T42 359L79 373Q89 343 102 327T147 311Q168 311 199 320T267 341T337 362T399 371Z" />
<glyph unicode="&#xa0;" horiz-adv-x="200" />
<glyph unicode="&#xa1;" horiz-adv-x="231" d="M54 -200Q13 -200 -5 -169T-11 -95L105 270H136L149 -95Q151 -138 123 -169T54 -200ZM151 490Q183 490 204 468T225 414Q225 389 211 368T175 333T127 320Q96 320 75 342T53 396Q53 421 67 442T103 477T151 490Z" />
<glyph unicode="&#xa2;" horiz-adv-x="515" d="M127 -100L424 580H462L165 -100H127ZM289 40Q339 40 381 70T456 137L479 114Q454 84 424 56T353 9T251 -10Q188 -10 138 15T58 89T28 206Q28 273 52 325T117 414T211 470T321 490Q381 490 417 472T476 425T515 366L484
343Q462 380 429 410T345 440Q294 440 259 409T205 321T186 189Q186 119 212 80T289 40Z" />
<glyph unicode="&#xa3;" horiz-adv-x="634" d="M571 215H606L528 0H-11L-7 30Q58 58 92 130T126 313Q126 346 125 377T123 431Q123 508 152 556T226 632T324 669T423 680Q462 680 486 674T528 657T565 630L591 670H626Q623 619 624 572T629 477L595 467Q593 474
588 493T572 537T543 585T498 624T432 640Q393 640 366 625T322 582T297 519T289 441Q289 409 292 380T295 326Q295 276 275 237T221 171T150 130H370Q428 130 465 135T527 159T571 215ZM16 352H499L494 317H11L16 352Z" />
<glyph unicode="&#xa4;" horiz-adv-x="524" d="M125 168L33 88L12 113L103 193L125 168ZM246 103Q193 103 152 128T87 195T63 289Q63 337 83 379T137 453T214 505T305 524Q358 525 399 500T463 432T487 337Q487 289 468 247T414 173T337 122T246 103ZM251 138Q300
137 343 161T415 226T452 315Q460 364 442 403T386 465T300 489Q247 489 201 463T127 392T99 295Q99 251 119 216T173 160T251 138ZM415 466L513 551L534 526L438 442L415 466ZM140 447L70 527L99 552L168 472L140 447ZM403 199L476 113L447 88L374 172L403 199Z"
/>
<glyph unicode="&#xa5;" horiz-adv-x="657" d="M511 670H724L719 635H664L424 289L390 45L400 35H453L448 0H163L168 35H225L235 45L269 289L108 635H53L58 670H361L356 635H300L290 625L409 355H414L600 625L590 635H506L511 670ZM104 307H587L582 272H99L104
307ZM90 197H573L568 162H85L90 197Z" />
<glyph unicode="&#xa6;" horiz-adv-x="245" d="M131 460L172 750H217L176 460H131ZM31 -250L72 40H117L76 -250H31Z" />
<glyph unicode="&#xa7;" horiz-adv-x="493" d="M231 550Q231 519 247 496T290 452T346 411T401 367T444 313T461 241Q461 188 439 153T380 97T302 62T222 40L226 75Q276 85 299 111T322 175Q322 208 306 233T263 279T207 321T152 365T109 418T92 487Q92 538 120
582T198 653T316 681Q370 681 404 664T455 619T472 561Q472 534 461 514T432 483T390 472Q363 472 346 489T329 530Q329 557 352 581T416 601Q403 627 379 636T328 646Q292 646 271 631T240 593T231 550ZM279 -130Q279 -98 261 -75T213 -31T152 10T90 54T43 108T24
181Q24 234 46 268T105 324T183 359T263 381L259 346Q209 336 186 311T163 247Q163 214 181 189T229 143T290 100T352 56T399 3T418 -67Q418 -117 390 -161T306 -232T169 -260Q111 -260 74 -243T20 -198T3 -140Q3 -113 14 -93T44 -62T85 -51Q112 -51 129 -68T146
-109Q146 -136 123 -160T59 -180Q72 -205 100 -215T161 -225Q202 -225 226 -215T261 -189T276 -157T279 -130Z" />
<glyph unicode="&#xa8;" horiz-adv-x="370" d="M67 556Q39 556 20 576T0 624Q0 647 13 666T46 698T89 710Q118 710 137 690T156 641Q156 619 143 600T110 568T67 556ZM283 556Q254 556 235 576T216 624Q216 659 243 684T305 710Q334 710 352 690T371 642Q371 608
344 582T283 556Z" />
<glyph unicode="&#xa9;" horiz-adv-x="777" d="M402 25Q465 25 520 49T618 116T683 215T707 335Q707 398 684 454T618 553T521 620T402 645Q339 645 284 621T186 554T121 455T97 335Q97 272 120 216T186 117T283 50T402 25ZM402 -10Q330 -10 268 16T158 90T84
200T57 335Q57 407 83 469T157 579T267 653T402 680Q474 680 536 654T646 580T720 470T747 335Q747 263 721 201T647 91T537 17T402 -10ZM416 178Q449 178 482 195T551 254L572 238Q529 186 485 165T388 144H387Q340 144 300 164T235 224T211 317Q211 368 231 406T285
471T360 510T442 523Q477 523 502 515T547 496L560 516H584Q581 482 582 450T586 386L562 379Q547 427 528 452T487 487T444 496Q402 496 375 470T335 403T322 316Q322 276 332 245T363 196T416 178Z" />
<glyph unicode="&#xaa;" horiz-adv-x="366" d="M337 368L355 357Q342 332 322 323T279 314Q239 314 217 337T200 401L233 466L221 550L255 614H329L296 384Q293 362 298 356T310 350Q318 350 324 355T337 368ZM149 619Q177 619 193 607T218 580T227 557L249 451L200
360Q185 338 165 326T119 314Q90 314 64 328T22 371T6 449Q6 501 28 539T84 598T149 619ZM178 583Q162 583 147 563T123 509T114 437Q114 391 126 370T152 349Q169 349 182 370T204 425T213 497Q213 542 203 562T178 583Z" />
<glyph unicode="&#xab;" horiz-adv-x="446" d="M262 425L144 240L210 55L185 39L0 240L241 441L262 425ZM452 425L334 240L400 55L375 39L190 240L431 441L452 425Z" />
<glyph unicode="&#xac;" horiz-adv-x="510" d="M39 337H499L476 173H441L459 302H34L39 337Z" />
<glyph unicode="&#xad;" horiz-adv-x="400" d="M49 305H369L360 240H40L49 305Z" />
<glyph unicode="&#xae;" horiz-adv-x="777" d="M402 25Q465 25 520 49T618 116T683 215T707 335Q707 398 684 454T618 553T521 620T402 645Q339 645 284 621T186 554T121 455T97 335Q97 272 120 216T186 117T283 50T402 25ZM402 -10Q330 -10 268 16T158 90T84
200T57 335Q57 407 83 469T157 579T267 653T402 680Q474 680 536 654T646 580T720 470T747 335Q747 263 721 201T647 91T537 17T402 -10ZM185 151L188 175H226L232 181L276 486L269 493H232L236 516H442Q485 516 518 508T572 480T592 428Q592 389 564 362T491 322L573
175H614L611 151H416L419 175H447L454 181L387 307H355L338 181L344 175H381L378 151H185ZM358 330H389Q427 330 453 356T479 424Q479 459 460 476T412 493H387L381 486L358 330Z" />
<glyph unicode="&#xaf;" horiz-adv-x="340" d="M10 655H340L330 585H0L10 655Z" />
<glyph unicode="&#xb0;" horiz-adv-x="341" d="M192 390Q138 390 104 426T70 514Q70 556 92 591T152 648T231 670Q284 670 318 634T353 546Q353 504 330 469T271 412T192 390ZM197 427Q228 427 254 443T296 486T312 542Q312 579 288 606T226 633Q196 633 170 617T127
575T110 518Q110 481 134 454T197 427Z" />
<glyph unicode="&#xb1;" horiz-adv-x="511" d="M39 337H499L494 302H34L39 337ZM317 550L252 90H217L282 550H317ZM-3 37H457L452 2H-8L-3 37Z" />
<glyph unicode="&#xb2;" horiz-adv-x="333" d="M332 456H353L304 320H17Q24 368 43 399T90 452T145 492T198 530T238 578T254 648Q254 674 243 689T202 704Q178 704 152 690T112 654L59 604Q63 633 84 661T142 709T234 728Q253 728 276 725T321 711T357 682T371
633Q371 595 352 573T300 537T230 508T155 471T88 412H216Q268 412 292 419T332 456ZM106 549Q84 549 70 565T59 604L112 654Q143 660 156 645T169 611Q169 585 150 567T106 549Z" />
<glyph unicode="&#xb3;" horiz-adv-x="382" d="M192 314Q128 314 90 337T57 403L108 353Q122 348 135 343T166 338Q209 338 235 366T262 449Q262 465 257 481T236 509T189 521L191 536Q261 536 302 524T361 489T379 438Q379 393 351 366T280 326T192 314ZM108
353L57 403Q60 427 79 443T120 459Q141 459 154 445T168 411Q168 388 152 371T108 353ZM189 526L192 542Q232 542 251 560T276 603T282 641Q282 668 270 686T229 704Q206 704 184 694T141 660L88 610Q93 640 114 667T171 711T258 728Q285 728 317 721T373 696T396
642Q396 607 373 583T303 546T189 526ZM135 555Q113 555 99 571T88 610L141 660Q173 666 185 651T198 617Q198 591 179 573T135 555Z" />
<glyph unicode="&#xb4;" horiz-adv-x="184" d="M184 720L30 540H0L44 720H184Z" />
<glyph unicode="&#xb5;" horiz-adv-x="617" d="M582 161H617Q606 79 565 35T452 -10Q409 -10 382 8T346 81Q315 33 290 12T227 -10Q209 -10 198 -5T181 11L143 -250H7L63 150L108 480H245L219 291L198 137Q195 116 195 95T202 59T233 45Q258 45 284 64T331 124T360
227L395 480H532L483 129Q479 96 485 76T513 55Q527 55 541 65T566 98T582 161Z" />
<glyph unicode="&#xb6;" horiz-adv-x="543" d="M337 670H582L577 635H522L511 625L449 186Q441 128 416 90T355 30T281 -1T209 -10Q141 -10 110 20T78 88Q78 129 104 154T166 180Q195 180 213 162T231 115Q231 86 213 64T169 34Q175 30 183 28T201 25Q230 25 254
49T286 130L308 290H283Q243 290 204 300T131 331T78 384T58 459Q58 513 82 552T147 618T237 657T337 670Z" />
<glyph unicode="&#xb7;" horiz-adv-x="231" d="M118 260Q87 260 66 282T44 336Q44 361 58 382T94 417T142 430Q174 430 195 408T216 354Q216 329 202 308T166 273T118 260Z" />
<glyph unicode="&#xb8;" horiz-adv-x="220" d="M14 -191Q32 -204 45 -209T72 -215Q92 -215 103 -205T115 -177Q115 -160 100 -147T50 -123L112 0H152L131 -40Q171 -49 195 -73T220 -135Q220 -168 202 -194T154 -235T87 -250Q41 -250 0 -220L14 -191Z" />
<glyph unicode="&#xb9;" horiz-adv-x="300" d="M223 341H280L277 320H39L42 341H98L106 348L145 623Q129 615 119 610T89 597L81 618Q116 633 142 649T190 684T236 722H269L217 348L223 341Z" />
<glyph unicode="&#xba;" horiz-adv-x="329" d="M184 620Q216 620 247 606T300 562T322 484Q322 425 295 387T228 332T145 314Q114 314 82 328T29 372T7 450Q7 510 34 547T102 602T184 620ZM148 335Q164 335 176 353T195 399T206 459T210 518Q210 535 209 553T202
585T182 599Q166 599 154 581T134 535T123 475T119 416Q119 399 120 380T128 348T148 335Z" />
<glyph unicode="&#xbb;" horiz-adv-x="446" d="M236 425L262 441L446 240L205 39L184 55L302 240L236 425ZM46 425L72 441L256 240L15 39L-6 55L112 240L46 425Z" />
<glyph unicode="&#xbc;" horiz-adv-x="790" d="M472 549H529L526 528H288L291 549H347L355 556L394 831Q378 823 368 818T338 805L330 826Q365 841 391 857T439 892T485 930H518L466 556L472 549ZM200 0L504 670H552L248 0H200ZM443 127H740L737 106H405L443 127ZM405
106L408 124L686 402H731L676 0H565L605 286H603L443 130V127L405 106ZM532 0L535 21H561L569 28H680L686 21H713L710 0H532Z" />
<glyph unicode="&#xbd;" horiz-adv-x="785" d="M472 549H529L526 528H288L291 549H347L355 556L394 831Q378 823 368 818T338 805L330 826Q365 841 391 857T439 892T485 930H518L466 556L472 549ZM200 0L504 670H552L248 0H200ZM739 136H760L711 0H424Q431 48
450 79T497 132T552 172T605 210T645 258T661 328Q661 354 650 369T609 384Q585 384 559 370T519 334L466 284Q470 313 491 341T549 389T641 408Q660 408 683 405T728 391T764 362T778 313Q778 275 759 253T707 217T637 188T562 151T495 92H623Q675 92 699 99T739
136ZM513 229Q491 229 477 245T466 284L519 334Q550 340 563 325T576 291Q576 265 557 247T513 229Z" />
<glyph unicode="&#xbe;" horiz-adv-x="868" d="M441 522Q377 522 339 545T306 611L357 561Q371 556 384 551T415 546Q458 546 484 574T511 657Q511 673 506 689T485 717T438 729L440 744Q510 744 551 732T610 697T628 646Q628 601 600 574T529 534T441 522ZM357
561L306 611Q309 635 328 651T369 667Q390 667 403 653T417 619Q417 596 401 579T357 561ZM438 734L441 750Q481 750 500 768T525 811T531 849Q531 876 519 894T478 912Q455 912 433 902T390 868L337 818Q342 848 363 875T420 919T507 936Q534 936 566 929T622
904T645 850Q645 815 622 791T552 754T438 734ZM384 763Q362 763 348 779T337 818L390 868Q422 874 434 859T447 825Q447 799 428 781T384 763ZM282 0L586 670H634L330 0H282ZM525 127H822L819 106H487L525 127ZM487 106L490 124L768 402H813L758 0H647L687 286H685L525
130V127L487 106ZM614 0L617 21H643L651 28H762L768 21H795L792 0H614Z" />
<glyph unicode="&#xbf;" horiz-adv-x="493" d="M263 249Q267 233 268 217T270 188Q270 150 258 121T227 67T190 19T159 -30T146 -87Q146 -125 168 -149T234 -174Q264 -174 295 -161T348 -118Q309 -125 285 -106T261 -54Q261 -16 289 10T353 36Q379 36 400 18T422
-44Q422 -93 391 -133T303 -196T172 -220Q125 -220 82 -208T12 -168T-15 -91Q-15 -46 7 -14T62 46T130 99T193 158T231 234Q232 238 232 241T233 249H263ZM282 469Q314 469 335 447T356 393Q356 368 342 347T306 312T258 299Q227 299 206 321T184 375Q184 400 198
421T234 456T282 469Z" />
<glyph unicode="&#xc0;" horiz-adv-x="692" d="M161 0H-44L-39 35H19L370 670H440L610 35H668L663 0H367L372 35H431L441 45L325 495H320L73 45L83 35H166L161 0ZM161 255H487L482 220H156L161 255ZM257 860H417L445 710H415L257 860Z" />
<glyph unicode="&#xc1;" horiz-adv-x="692" d="M161 0H-44L-39 35H19L370 670H440L610 35H668L663 0H367L372 35H431L441 45L325 495H320L73 45L83 35H166L161 0ZM161 255H487L482 220H156L161 255ZM615 860L415 710H385L455 860H615Z" />
<glyph unicode="&#xc2;" horiz-adv-x="692" d="M161 0H-44L-39 35H19L370 670H440L610 35H668L663 0H367L372 35H431L441 45L325 495H320L73 45L83 35H166L161 0ZM161 255H487L482 220H156L161 255ZM549 710L421 751L280 710H250L420 860H451L579 710H549Z" />
<glyph unicode="&#xc3;" horiz-adv-x="692" d="M161 0H-44L-39 35H19L370 670H440L610 35H668L663 0H367L372 35H431L441 45L325 495H320L73 45L83 35H166L161 0ZM161 255H487L482 220H156L161 255ZM594 865L620 850Q607 781 572 753T495 724Q465 724 433 734T372
755T320 765Q306 765 291 758T260 724L234 739Q248 808 282 836T357 865Q387 865 419 855T482 835T536 824Q548 824 563 831T594 865Z" />
<glyph unicode="&#xc4;" horiz-adv-x="692" d="M161 0H-44L-39 35H19L370 670H440L610 35H668L663 0H367L372 35H431L441 45L325 495H320L73 45L83 35H166L161 0ZM161 255H487L482 220H156L161 255ZM297 726Q268 726 249 746T230 794Q230 829 257 854T319 880Q348
880 366 860T385 812Q385 778 358 752T297 726ZM537 726Q508 726 489 746T470 794Q470 829 497 854T559 880Q588 880 606 860T625 812Q625 778 598 752T537 726Z" />
<glyph unicode="&#xc5;" horiz-adv-x="692" d="M161 0H-44L-39 35H19L370 670H440L610 35H668L663 0H367L372 35H431L441 45L325 495H320L73 45L83 35H166L161 0ZM161 255H487L482 220H156L161 255ZM425 820Q476 820 504 798T533 740Q533 711 516 689T469 653T399
640Q348 640 320 662T291 720Q291 749 307 771T354 807T425 820ZM405 670Q425 670 436 691T448 742Q448 765 440 777T418 790Q399 790 388 769T376 718Q376 695 384 683T405 670Z" />
<glyph unicode="&#xc6;" horiz-adv-x="906" d="M182 255H508L503 220H177L182 255ZM840 190H875L805 0H314L319 35H375L385 45L460 579H455L70 45L80 35H161L156 0H-54L-49 35H9L471 670H889L903 510L868 500Q852 553 822 582T752 623T664 635H632L622 625L585
365H618Q661 365 699 394T744 475H779L743 220H708Q715 271 686 300T613 330H580L540 45L550 35H590Q662 35 727 73T840 190Z" />
<glyph unicode="&#xc7;" horiz-adv-x="687" d="M390 40Q451 40 510 74T624 172L654 149Q591 70 515 30T347 -10H346Q259 -10 193 26T89 130T51 289Q51 373 82 444T169 568T298 650T456 680Q512 680 551 668T618 640L637 670H672Q669 619 667 557T666 447L632 437Q619
492 600 530T558 593T507 628T445 640Q390 640 347 613T275 537T231 427T216 295Q216 225 233 167T288 75T390 40ZM245 -191Q263 -204 276 -209T303 -215Q323 -215 334 -205T346 -177Q346 -160 331 -147T281 -123L343 0H383L362 -40Q402 -49 426 -73T451 -135Q451
-168 433 -194T385 -235T318 -250Q272 -250 231 -220L245 -191Z" />
<glyph unicode="&#xc8;" horiz-adv-x="619" d="M553 190H588L518 0H-3L2 35H58L68 45L150 625L140 635H86L91 670H592L606 510L571 500Q555 553 525 582T455 623T367 635H315L305 625L268 365H321Q364 365 402 394T447 475H482L446 220H411Q418 271 389 300T316
330H263L223 45L233 35H303Q375 35 440 73T553 190ZM213 860H373L401 710H371L213 860Z" />
<glyph unicode="&#xc9;" horiz-adv-x="619" d="M553 190H588L518 0H-3L2 35H58L68 45L150 625L140 635H86L91 670H592L606 510L571 500Q555 553 525 582T455 623T367 635H315L305 625L268 365H321Q364 365 402 394T447 475H482L446 220H411Q418 271 389 300T316
330H263L223 45L233 35H303Q375 35 440 73T553 190ZM571 860L371 710H341L411 860H571Z" />
<glyph unicode="&#xca;" horiz-adv-x="619" d="M553 190H588L518 0H-3L2 35H58L68 45L150 625L140 635H86L91 670H592L606 510L571 500Q555 553 525 582T455 623T367 635H315L305 625L268 365H321Q364 365 402 394T447 475H482L446 220H411Q418 271 389 300T316
330H263L223 45L233 35H303Q375 35 440 73T553 190ZM505 710L377 751L236 710H206L376 860H407L535 710H505Z" />
<glyph unicode="&#xcb;" horiz-adv-x="619" d="M553 190H588L518 0H-3L2 35H58L68 45L150 625L140 635H86L91 670H592L606 510L571 500Q555 553 525 582T455 623T367 635H315L305 625L268 365H321Q364 365 402 394T447 475H482L446 220H411Q418 271 389 300T316
330H263L223 45L233 35H303Q375 35 440 73T553 190ZM253 726Q224 726 205 746T186 794Q186 829 213 854T275 880Q304 880 322 860T341 812Q341 778 314 752T253 726ZM493 726Q464 726 445 746T426 794Q426 829 453 854T515 880Q544 880 562 860T581 812Q581 778
554 752T493 726Z" />
<glyph unicode="&#xcc;" horiz-adv-x="346" d="M315 635L305 625L223 45L233 35H287L282 0H-3L2 35H58L68 45L150 625L140 635H86L91 670H376L371 635H315ZM82 860H242L270 710H240L82 860Z" />
<glyph unicode="&#xcd;" horiz-adv-x="346" d="M315 635L305 625L223 45L233 35H287L282 0H-3L2 35H58L68 45L150 625L140 635H86L91 670H376L371 635H315ZM440 860L240 710H210L280 860H440Z" />
<glyph unicode="&#xce;" horiz-adv-x="346" d="M315 635L305 625L223 45L233 35H287L282 0H-3L2 35H58L68 45L150 625L140 635H86L91 670H376L371 635H315ZM374 710L246 751L105 710H75L245 860H276L404 710H374Z" />
<glyph unicode="&#xcf;" horiz-adv-x="346" d="M315 635L305 625L223 45L233 35H287L282 0H-3L2 35H58L68 45L150 625L140 635H86L91 670H376L371 635H315ZM122 726Q93 726 74 746T55 794Q55 829 82 854T144 880Q173 880 191 860T210 812Q210 778 183 752T122
726ZM362 726Q333 726 314 746T295 794Q295 829 322 854T384 880Q413 880 431 860T450 812Q450 778 423 752T362 726Z" />
<glyph unicode="&#xd0;" horiz-adv-x="756" d="M426 670Q486 670 541 655T639 608T708 523T734 396Q734 304 699 231T605 107T478 28T342 0H-3L2 35H57L68 45L150 625L141 635H86L91 670H426ZM307 35Q357 35 404 59T488 130T547 239T569 381Q569 503 522 569T391
635H316L305 625L223 45L232 35H307ZM44 352H434L430 317H40L44 352Z" />
<glyph unicode="&#xd1;" horiz-adv-x="727" d="M561 670H766L761 635H705L695 625L607 0H537L178 465H173L113 45L123 35H207L202 0H-3L2 35H58L68 45L150 625L140 635H86L91 670H226L585 205H590L650 625L640 635H556L561 670ZM609 865L635 850Q622 781 587 753T510
724Q480 724 448 734T387 755T335 765Q321 765 306 758T275 724L249 739Q263 808 297 836T372 865Q402 865 434 855T497 835T551 824Q563 824 578 831T609 865Z" />
<glyph unicode="&#xd2;" horiz-adv-x="764" d="M443 680Q538 680 604 643T705 538T740 382Q740 300 711 229T629 104T505 20T348 -10Q253 -10 187 27T86 132T51 288Q51 371 80 442T162 566T286 650T443 680ZM356 30Q399 30 438 56T508 131T557 245T575 392Q575
457 561 513T517 605T435 640Q392 640 353 614T283 539T234 425T216 278Q216 213 230 157T275 65T356 30ZM291 860H451L479 710H449L291 860Z" />
<glyph unicode="&#xd3;" horiz-adv-x="764" d="M443 680Q538 680 604 643T705 538T740 382Q740 300 711 229T629 104T505 20T348 -10Q253 -10 187 27T86 132T51 288Q51 371 80 442T162 566T286 650T443 680ZM356 30Q399 30 438 56T508 131T557 245T575 392Q575
457 561 513T517 605T435 640Q392 640 353 614T283 539T234 425T216 278Q216 213 230 157T275 65T356 30ZM649 860L449 710H419L489 860H649Z" />
<glyph unicode="&#xd4;" horiz-adv-x="764" d="M443 680Q538 680 604 643T705 538T740 382Q740 300 711 229T629 104T505 20T348 -10Q253 -10 187 27T86 132T51 288Q51 371 80 442T162 566T286 650T443 680ZM356 30Q399 30 438 56T508 131T557 245T575 392Q575
457 561 513T517 605T435 640Q392 640 353 614T283 539T234 425T216 278Q216 213 230 157T275 65T356 30ZM583 710L455 751L314 710H284L454 860H485L613 710H583Z" />
<glyph unicode="&#xd5;" horiz-adv-x="764" d="M443 680Q538 680 604 643T705 538T740 382Q740 300 711 229T629 104T505 20T348 -10Q253 -10 187 27T86 132T51 288Q51 371 80 442T162 566T286 650T443 680ZM356 30Q399 30 438 56T508 131T557 245T575 392Q575
457 561 513T517 605T435 640Q392 640 353 614T283 539T234 425T216 278Q216 213 230 157T275 65T356 30ZM628 865L654 850Q641 781 606 753T529 724Q499 724 467 734T406 755T354 765Q340 765 325 758T294 724L268 739Q282 808 316 836T391 865Q421 865 453 855T516
835T570 824Q582 824 597 831T628 865Z" />
<glyph unicode="&#xd6;" horiz-adv-x="764" d="M443 680Q538 680 604 643T705 538T740 382Q740 300 711 229T629 104T505 20T348 -10Q253 -10 187 27T86 132T51 288Q51 371 80 442T162 566T286 650T443 680ZM356 30Q399 30 438 56T508 131T557 245T575 392Q575
457 561 513T517 605T435 640Q392 640 353 614T283 539T234 425T216 278Q216 213 230 157T275 65T356 30ZM331 726Q302 726 283 746T264 794Q264 829 291 854T353 880Q382 880 400 860T419 812Q419 778 392 752T331 726ZM571 726Q542 726 523 746T504 794Q504 829
531 854T593 880Q622 880 640 860T659 812Q659 778 632 752T571 726Z" />
<glyph unicode="&#xd7;" horiz-adv-x="470" d="M10 134L461 530L482 505L31 109L10 134ZM91 531L430 135L402 110L62 506L91 531Z" />
<glyph unicode="&#xd8;" horiz-adv-x="764" d="M188 -100L566 770H604L226 -100H188ZM188 -100L566 770H604L226 -100H188ZM443 680Q538 680 604 643T705 538T740 382Q740 300 711 229T629 104T505 20T348 -10Q253 -10 187 27T86 132T51 288Q51 371 80 442T162
566T286 650T443 680ZM356 30Q399 30 438 56T508 131T557 245T575 392Q575 457 561 513T517 605T435 640Q392 640 353 614T283 539T234 425T216 278Q216 213 230 157T275 65T356 30Z" />
<glyph unicode="&#xd9;" horiz-adv-x="713" d="M547 670H752L747 635H690L680 625L627 245Q616 166 579 109T482 21T344 -10Q254 -10 193 22T104 110T85 233L140 625L130 635H77L82 670H367L362 635H305L295 625L243 255Q235 195 244 147T286 69T377 40Q424 40
467 64T542 134T582 245L635 625L625 635H542L547 670ZM295 860H455L483 710H453L295 860Z" />
<glyph unicode="&#xda;" horiz-adv-x="713" d="M547 670H752L747 635H690L680 625L627 245Q616 166 579 109T482 21T344 -10Q254 -10 193 22T104 110T85 233L140 625L130 635H77L82 670H367L362 635H305L295 625L243 255Q235 195 244 147T286 69T377 40Q424 40
467 64T542 134T582 245L635 625L625 635H542L547 670ZM653 860L453 710H423L493 860H653Z" />
<glyph unicode="&#xdb;" horiz-adv-x="713" d="M547 670H752L747 635H690L680 625L627 245Q616 166 579 109T482 21T344 -10Q254 -10 193 22T104 110T85 233L140 625L130 635H77L82 670H367L362 635H305L295 625L243 255Q235 195 244 147T286 69T377 40Q424 40
467 64T542 134T582 245L635 625L625 635H542L547 670ZM587 710L459 751L318 710H288L458 860H489L617 710H587Z" />
<glyph unicode="&#xdc;" horiz-adv-x="713" d="M547 670H752L747 635H690L680 625L627 245Q616 166 579 109T482 21T344 -10Q254 -10 193 22T104 110T85 233L140 625L130 635H77L82 670H367L362 635H305L295 625L243 255Q235 195 244 147T286 69T377 40Q424 40
467 64T542 134T582 245L635 625L625 635H542L547 670ZM335 726Q306 726 287 746T268 794Q268 829 295 854T357 880Q386 880 404 860T423 812Q423 778 396 752T335 726ZM575 726Q546 726 527 746T508 794Q508 829 535 854T597 880Q626 880 644 860T663 812Q663
778 636 752T575 726Z" />
<glyph unicode="&#xdd;" horiz-adv-x="657" d="M511 670H724L719 635H664L424 289L390 45L400 35H453L448 0H163L168 35H225L235 45L269 289L108 635H53L58 670H361L356 635H300L290 625L409 355H414L600 625L590 635H506L511 670ZM635 860L435 710H405L475 860H635Z" />
<glyph unicode="&#xde;" horiz-adv-x="695" d="M330 175Q380 175 423 197T494 265T522 377Q522 427 502 460T450 509T379 525H269L274 560H414Q464 560 513 551T601 521T664 467T688 383Q688 317 658 271T580 196T476 154T365 140H215L220 175H330ZM315 635L305
625L223 45L233 35H287L282 0H-3L2 35H58L68 45L150 625L140 635H86L91 670H376L371 635H315Z" />
<glyph unicode="&#xdf;" horiz-adv-x="651" d="M-3 -260Q-43 -260 -68 -246T-105 -211T-117 -167Q-117 -133 -96 -111T-46 -88Q-21 -88 -5 -105T12 -148Q12 -170 0 -189T-31 -219Q-28 -220 -23 -220Q13 -220 39 -190T73 -109T62 0L123 435L113 445H64L69 480H129L133
504Q146 581 187 633T287 713T408 740Q478 740 512 709T547 624Q547 586 537 556T513 500T489 451T478 404Q478 376 494 357T533 322T579 288T618 244T634 179Q634 123 607 81T534 14T435 -10Q399 -10 371 0T320 20L307 0H269Q268 39 264 77T252 155L287 165Q322
89 364 57T443 25Q464 25 481 33T508 57T519 93Q519 118 502 137T459 173T408 211T367 260T354 328Q357 372 373 403T410 457T453 503T488 552T502 619Q502 661 475 683T409 705Q369 705 341 682T296 613T268 500L189 -64Q179 -136 149 -179T79 -241T-3 -260Z"
/>
<glyph unicode="&#xe0;" horiz-adv-x="606" d="M29 207Q29 271 49 323T104 412T179 470T262 490Q301 490 327 475T370 436T393 391L440 480H535L482 104Q477 69 484 57T505 45Q520 45 532 57T557 88L587 70Q564 24 533 7T464 -10Q419 -10 389 11T350 73Q323 32
288 11T209 -10Q161 -10 120 13T54 84T29 207ZM179 192Q179 116 200 81T253 45Q287 45 313 79T356 170T372 289Q372 365 351 400T298 435Q265 435 238 401T195 311T179 192ZM214 720H354L348 540H318L214 720Z" />
<glyph unicode="&#xe1;" horiz-adv-x="606" d="M29 207Q29 271 49 323T104 412T179 470T262 490Q301 490 327 475T370 436T393 391L440 480H535L482 104Q477 69 484 57T505 45Q520 45 532 57T557 88L587 70Q564 24 533 7T464 -10Q419 -10 389 11T350 73Q323 32
288 11T209 -10Q161 -10 120 13T54 84T29 207ZM179 192Q179 116 200 81T253 45Q287 45 313 79T356 170T372 289Q372 365 351 400T298 435Q265 435 238 401T195 311T179 192ZM490 720L336 540H306L350 720H490Z" />
<glyph unicode="&#xe2;" horiz-adv-x="606" d="M29 207Q29 271 49 323T104 412T179 470T262 490Q301 490 327 475T370 436T393 391L440 480H535L482 104Q477 69 484 57T505 45Q520 45 532 57T557 88L587 70Q564 24 533 7T464 -10Q419 -10 389 11T350 73Q323 32
288 11T209 -10Q161 -10 120 13T54 84T29 207ZM179 192Q179 116 200 81T253 45Q287 45 313 79T356 170T372 289Q372 365 351 400T298 435Q265 435 238 401T195 311T179 192ZM445 540L340 601L216 540H186L340 720H371L475 540H445Z" />
<glyph unicode="&#xe3;" horiz-adv-x="606" d="M29 207Q29 271 49 323T104 412T179 470T262 490Q301 490 327 475T370 436T393 391L440 480H535L482 104Q477 69 484 57T505 45Q520 45 532 57T557 88L587 70Q564 24 533 7T464 -10Q419 -10 389 11T350 73Q323 32
288 11T209 -10Q161 -10 120 13T54 84T29 207ZM179 192Q179 116 200 81T253 45Q287 45 313 79T356 170T372 289Q372 365 351 400T298 435Q265 435 238 401T195 311T179 192ZM491 695L517 680Q504 611 469 583T392 554Q369 554 352 560T319 574T289 589T257 595Q243
595 228 588T197 554L171 569Q185 638 219 666T294 695Q316 695 334 689T368 675T399 660T433 654Q445 654 460 661T491 695Z" />
<glyph unicode="&#xe4;" horiz-adv-x="606" d="M29 207Q29 271 49 323T104 412T179 470T262 490Q301 490 327 475T370 436T393 391L440 480H535L482 104Q477 69 484 57T505 45Q520 45 532 57T557 88L587 70Q564 24 533 7T464 -10Q419 -10 389 11T350 73Q323 32
288 11T209 -10Q161 -10 120 13T54 84T29 207ZM179 192Q179 116 200 81T253 45Q287 45 313 79T356 170T372 289Q372 365 351 400T298 435Q265 435 238 401T195 311T179 192ZM226 556Q198 556 179 576T159 624Q159 647 172 666T205 698T248 710Q277 710 296 690T315
641Q315 619 302 600T269 568T226 556ZM442 556Q413 556 394 576T375 624Q375 659 402 684T464 710Q493 710 511 690T530 642Q530 608 503 582T442 556Z" />
<glyph unicode="&#xe5;" horiz-adv-x="606" d="M29 207Q29 271 49 323T104 412T179 470T262 490Q301 490 327 475T370 436T393 391L440 480H535L482 104Q477 69 484 57T505 45Q520 45 532 57T557 88L587 70Q564 24 533 7T464 -10Q419 -10 389 11T350 73Q323 32
288 11T209 -10Q161 -10 120 13T54 84T29 207ZM179 192Q179 116 200 81T253 45Q287 45 313 79T356 170T372 289Q372 365 351 400T298 435Q265 435 238 401T195 311T179 192ZM356 709Q407 709 435 687T464 629Q464 600 447 578T400 542T330 529Q279 529 251 551T222
609Q222 638 238 660T285 696T356 709ZM336 559Q356 559 367 580T379 631Q379 654 371 666T349 679Q330 679 319 658T307 607Q307 584 315 572T336 559Z" />
<glyph unicode="&#xe6;" horiz-adv-x="845" d="M209 -10Q161 -10 120 13T54 84T29 207Q29 271 49 323T104 412T179 470T262 490Q304 490 331 473T375 430T395 381L415 218Q393 144 369 93T308 16T209 -10ZM253 45Q287 45 313 79T356 170T372 289Q372 365 351 400T298
435Q265 435 238 401T195 311T179 192Q179 116 200 81T253 45ZM452 104L395 236L384 374L416 480H475L489 374L452 104ZM593 -10Q537 -10 488 11T408 80T378 205Q378 292 417 356T525 455T678 490Q718 490 755 481T818 450T843 390Q843 354 822 325T760 275T656
239T509 216V249Q571 254 609 270T668 308T695 353T703 396Q703 428 691 441T658 455Q626 455 602 429T562 361T537 276T528 195Q528 141 545 107T588 56T643 40Q676 40 713 61T778 124L808 106Q787 71 755 45T683 4T593 -10Z" />
<glyph unicode="&#xe7;" horiz-adv-x="468" d="M242 -10Q203 -10 165 1T96 37T47 104T28 205Q28 274 52 327T118 416T211 471T317 490Q370 490 403 474T451 433T466 379Q466 342 444 317T391 291Q365 291 350 310T334 354Q334 386 356 410T409 434Q434 434 445
420T456 388L420 379Q420 405 407 422T373 447T331 455Q293 455 265 431T219 368T192 282T183 192Q183 113 210 77T286 41Q318 41 344 58T401 120L431 102Q412 69 386 44T324 5T242 -10ZM130 -191Q148 -204 161 -209T188 -215Q208 -215 219 -205T231 -177Q231 -160
216 -147T166 -123L228 0H268L247 -40Q287 -49 311 -73T336 -135Q336 -168 318 -194T270 -235T203 -250Q157 -250 116 -220L130 -191Z" />
<glyph unicode="&#xe8;" horiz-adv-x="495" d="M243 -10Q187 -10 138 11T58 80T28 205Q28 292 67 356T175 455T328 490Q368 490 405 481T468 450T493 390Q493 354 472 325T410 275T306 239T159 216V249Q221 254 259 270T318 308T345 353T353 396Q353 428 341 441T308
455Q276 455 252 429T212 361T187 276T178 195Q178 141 195 107T238 56T293 40Q326 40 363 61T428 124L458 106Q437 71 405 45T333 4T243 -10ZM201 720H341L335 540H305L201 720Z" />
<glyph unicode="&#xe9;" horiz-adv-x="495" d="M243 -10Q187 -10 138 11T58 80T28 205Q28 292 67 356T175 455T328 490Q368 490 405 481T468 450T493 390Q493 354 472 325T410 275T306 239T159 216V249Q221 254 259 270T318 308T345 353T353 396Q353 428 341 441T308
455Q276 455 252 429T212 361T187 276T178 195Q178 141 195 107T238 56T293 40Q326 40 363 61T428 124L458 106Q437 71 405 45T333 4T243 -10ZM477 720L323 540H293L337 720H477Z" />
<glyph unicode="&#xea;" horiz-adv-x="495" d="M243 -10Q187 -10 138 11T58 80T28 205Q28 292 67 356T175 455T328 490Q368 490 405 481T468 450T493 390Q493 354 472 325T410 275T306 239T159 216V249Q221 254 259 270T318 308T345 353T353 396Q353 428 341 441T308
455Q276 455 252 429T212 361T187 276T178 195Q178 141 195 107T238 56T293 40Q326 40 363 61T428 124L458 106Q437 71 405 45T333 4T243 -10ZM432 540L327 601L203 540H173L327 720H358L462 540H432Z" />
<glyph unicode="&#xeb;" horiz-adv-x="495" d="M243 -10Q187 -10 138 11T58 80T28 205Q28 292 67 356T175 455T328 490Q368 490 405 481T468 450T493 390Q493 354 472 325T410 275T306 239T159 216V249Q221 254 259 270T318 308T345 353T353 396Q353 428 341 441T308
455Q276 455 252 429T212 361T187 276T178 195Q178 141 195 107T238 56T293 40Q326 40 363 61T428 124L458 106Q437 71 405 45T333 4T243 -10ZM213 556Q185 556 166 576T146 624Q146 647 159 666T192 698T235 710Q264 710 283 690T302 641Q302 619 289 600T256
568T213 556ZM429 556Q400 556 381 576T362 624Q362 659 389 684T451 710Q480 710 498 690T517 642Q517 608 490 582T429 556Z" />
<glyph unicode="&#xec;" horiz-adv-x="313" d="M264 88L294 70Q271 24 240 7T171 -10Q113 -10 80 25T56 127L99 435L89 445H29L34 480Q81 480 136 481T232 490L242 480L189 104Q184 69 191 57T212 45Q227 45 239 57T264 88ZM60 720H200L194 540H164L60 720Z" />
<glyph unicode="&#xed;" horiz-adv-x="313" d="M264 88L294 70Q271 24 240 7T171 -10Q113 -10 80 25T56 127L99 435L89 445H29L34 480Q81 480 136 481T232 490L242 480L189 104Q184 69 191 57T212 45Q227 45 239 57T264 88ZM336 720L182 540H152L196 720H336Z" />
<glyph unicode="&#xee;" horiz-adv-x="313" d="M264 88L294 70Q271 24 240 7T171 -10Q113 -10 80 25T56 127L99 435L89 445H29L34 480Q81 480 136 481T232 490L242 480L189 104Q184 69 191 57T212 45Q227 45 239 57T264 88ZM291 540L186 601L62 540H32L186 720H217L321
540H291Z" />
<glyph unicode="&#xef;" horiz-adv-x="313" d="M264 88L294 70Q271 24 240 7T171 -10Q113 -10 80 25T56 127L99 435L89 445H29L34 480Q81 480 136 481T232 490L242 480L189 104Q184 69 191 57T212 45Q227 45 239 57T264 88ZM72 556Q44 556 25 576T5 624Q5 647
18 666T51 698T94 710Q123 710 142 690T161 641Q161 619 148 600T115 568T72 556ZM288 556Q259 556 240 576T221 624Q221 659 248 684T310 710Q339 710 357 690T376 642Q376 608 349 582T288 556Z" />
<glyph unicode="&#xf0;" horiz-adv-x="529" d="M412 751L181 549L161 574L391 776L412 751ZM186 751Q293 712 363 648T469 500T505 317Q505 220 474 147T381 32T230 -10Q165 -10 120 14T50 82T26 185Q26 263 58 322T148 415T283 449Q305 449 326 443T367 424Q356
480 330 537T261 644T155 728L186 751ZM240 25Q267 25 288 47T322 106T343 185T350 266Q350 338 330 376T284 415Q257 415 236 393T202 334T181 255T174 174Q174 102 194 64T240 25Z" />
<glyph unicode="&#xf1;" horiz-adv-x="596" d="M547 88L577 70Q554 24 523 7T454 -10Q396 -10 363 26T341 140L371 330Q377 368 375 391T361 424T327 435Q309 435 290 425T253 393T221 338T201 260L165 0H29L89 435L79 445H29L34 480Q73 480 122 481T211 485L221
475L212 409H222Q250 448 290 469T382 490Q460 490 489 447T507 330L472 104Q467 69 474 57T495 45Q510 45 522 57T547 88ZM500 695L526 680Q513 611 478 583T401 554Q378 554 361 560T328 574T298 589T266 595Q252 595 237 588T206 554L180 569Q194 638 228 666T303
695Q325 695 343 689T377 675T408 660T442 654Q454 654 469 661T500 695Z" />
<glyph unicode="&#xf2;" horiz-adv-x="551" d="M309 490Q362 490 410 466T490 394T522 272Q522 204 499 152T435 63T345 9T242 -10Q190 -10 141 14T61 86T29 208Q29 276 52 328T116 417T207 471T309 490ZM248 25Q278 25 300 52T337 122T359 215T367 312Q367 349
362 381T342 434T303 455Q273 455 251 428T214 358T192 265T184 168Q184 132 189 99T209 46T248 25ZM209 720H349L343 540H313L209 720Z" />
<glyph unicode="&#xf3;" horiz-adv-x="551" d="M309 490Q362 490 410 466T490 394T522 272Q522 204 499 152T435 63T345 9T242 -10Q190 -10 141 14T61 86T29 208Q29 276 52 328T116 417T207 471T309 490ZM248 25Q278 25 300 52T337 122T359 215T367 312Q367 349
362 381T342 434T303 455Q273 455 251 428T214 358T192 265T184 168Q184 132 189 99T209 46T248 25ZM485 720L331 540H301L345 720H485Z" />
<glyph unicode="&#xf4;" horiz-adv-x="551" d="M309 490Q362 490 410 466T490 394T522 272Q522 204 499 152T435 63T345 9T242 -10Q190 -10 141 14T61 86T29 208Q29 276 52 328T116 417T207 471T309 490ZM248 25Q278 25 300 52T337 122T359 215T367 312Q367 349
362 381T342 434T303 455Q273 455 251 428T214 358T192 265T184 168Q184 132 189 99T209 46T248 25ZM440 540L335 601L211 540H181L335 720H366L470 540H440Z" />
<glyph unicode="&#xf5;" horiz-adv-x="551" d="M309 490Q362 490 410 466T490 394T522 272Q522 204 499 152T435 63T345 9T242 -10Q190 -10 141 14T61 86T29 208Q29 276 52 328T116 417T207 471T309 490ZM248 25Q278 25 300 52T337 122T359 215T367 312Q367 349
362 381T342 434T303 455Q273 455 251 428T214 358T192 265T184 168Q184 132 189 99T209 46T248 25ZM486 695L512 680Q499 611 464 583T387 554Q364 554 347 560T314 574T284 589T252 595Q238 595 223 588T192 554L166 569Q180 638 214 666T289 695Q311 695 329
689T363 675T394 660T428 654Q440 654 455 661T486 695Z" />
<glyph unicode="&#xf6;" horiz-adv-x="551" d="M309 490Q362 490 410 466T490 394T522 272Q522 204 499 152T435 63T345 9T242 -10Q190 -10 141 14T61 86T29 208Q29 276 52 328T116 417T207 471T309 490ZM248 25Q278 25 300 52T337 122T359 215T367 312Q367 349
362 381T342 434T303 455Q273 455 251 428T214 358T192 265T184 168Q184 132 189 99T209 46T248 25ZM221 556Q193 556 174 576T154 624Q154 647 167 666T200 698T243 710Q272 710 291 690T310 641Q310 619 297 600T264 568T221 556ZM437 556Q408 556 389 576T370
624Q370 659 397 684T459 710Q488 710 506 690T525 642Q525 608 498 582T437 556Z" />
<glyph unicode="&#xf7;" horiz-adv-x="510" d="M39 337H499L494 302H34L39 337ZM239 100Q213 100 197 117T180 160Q180 185 195 206T234 241T282 254Q308 254 324 237T340 193Q340 169 325 148T287 113T239 100ZM279 385Q253 385 237 402T221 445Q221 470 236
491T274 526T322 539Q348 539 364 522T380 478Q380 454 365 433T327 398T279 385Z" />
<glyph unicode="&#xf8;" horiz-adv-x="551" d="M102 -100L399 580H437L140 -100H102ZM309 490Q362 490 410 466T490 394T522 272Q522 204 499 152T435 63T345 9T242 -10Q190 -10 141 14T61 86T29 208Q29 276 52 328T116 417T207 471T309 490ZM248 25Q278 25 300
52T337 122T359 215T367 312Q367 349 362 381T342 434T303 455Q273 455 251 428T214 358T192 265T184 168Q184 132 189 99T209 46T248 25Z" />
<glyph unicode="&#xf9;" horiz-adv-x="600" d="M551 88L581 70Q558 24 527 7T458 -10Q411 -10 380 13T343 81Q312 33 271 12T180 -10Q102 -10 76 33T60 150L99 435L89 445H29L34 480Q81 480 136 481T232 490L242 480L196 150Q191 113 192 90T202 56T230 45Q267
45 305 89T357 227L386 435L376 445H316L321 480Q368 480 423 481T519 490L529 480L476 104Q471 69 478 57T499 45Q514 45 526 57T551 88ZM199 720H339L333 540H303L199 720Z" />
<glyph unicode="&#xfa;" horiz-adv-x="600" d="M551 88L581 70Q558 24 527 7T458 -10Q411 -10 380 13T343 81Q312 33 271 12T180 -10Q102 -10 76 33T60 150L99 435L89 445H29L34 480Q81 480 136 481T232 490L242 480L196 150Q191 113 192 90T202 56T230 45Q267
45 305 89T357 227L386 435L376 445H316L321 480Q368 480 423 481T519 490L529 480L476 104Q471 69 478 57T499 45Q514 45 526 57T551 88ZM475 720L321 540H291L335 720H475Z" />
<glyph unicode="&#xfb;" horiz-adv-x="600" d="M551 88L581 70Q558 24 527 7T458 -10Q411 -10 380 13T343 81Q312 33 271 12T180 -10Q102 -10 76 33T60 150L99 435L89 445H29L34 480Q81 480 136 481T232 490L242 480L196 150Q191 113 192 90T202 56T230 45Q267
45 305 89T357 227L386 435L376 445H316L321 480Q368 480 423 481T519 490L529 480L476 104Q471 69 478 57T499 45Q514 45 526 57T551 88ZM430 540L325 601L201 540H171L325 720H356L460 540H430Z" />
<glyph unicode="&#xfc;" horiz-adv-x="600" d="M551 88L581 70Q558 24 527 7T458 -10Q411 -10 380 13T343 81Q312 33 271 12T180 -10Q102 -10 76 33T60 150L99 435L89 445H29L34 480Q81 480 136 481T232 490L242 480L196 150Q191 113 192 90T202 56T230 45Q267
45 305 89T357 227L386 435L376 445H316L321 480Q368 480 423 481T519 490L529 480L476 104Q471 69 478 57T499 45Q514 45 526 57T551 88ZM211 556Q183 556 164 576T144 624Q144 647 157 666T190 698T233 710Q262 710 281 690T300 641Q300 619 287 600T254 568T211
556ZM427 556Q398 556 379 576T360 624Q360 659 387 684T449 710Q478 710 496 690T515 642Q515 608 488 582T427 556Z" />
<glyph unicode="&#xfd;" horiz-adv-x="569" d="M180 -260Q127 -260 90 -241T33 -193T13 -130Q13 -97 32 -70T85 -42Q111 -42 126 -59T141 -102Q141 -133 122 -157T75 -185Q90 -203 113 -214T163 -225Q204 -225 237 -199T292 -126T323 -15L335 69Q305 28 266 9T180
-10Q102 -10 76 33T60 150L99 435L89 445H29L34 480Q81 480 136 481T232 490L242 480L196 150Q191 113 192 90T202 56T230 45Q254 45 280 64T327 122T356 223L386 435L376 445H316L321 480Q368 480 423 481T519 490L528 480L461 1Q454 -48 435 -94T381 -178T298
-238T180 -260ZM475 720L321 540H291L335 720H475Z" />
<glyph unicode="&#xfe;" horiz-adv-x="567" d="M-62 -250L-57 -215H-7L4 -205L129 685L119 695H59L64 730Q111 730 166 731T262 740L272 730L220 364L185 262L188 139L139 -205L148 -215H228L223 -250H-62ZM305 -10Q264 -10 236 7T193 50T172 99L152 262L219 411Q243
448 278 469T358 490Q407 490 447 467T513 396T538 273Q538 209 518 157T463 68T388 10T305 -10ZM269 45Q303 45 329 79T372 169T388 288Q388 364 367 399T314 435Q281 435 254 401T211 311T195 191Q195 115 216 80T269 45Z" />
<glyph unicode="&#xff;" horiz-adv-x="569" d="M180 -260Q127 -260 90 -241T33 -193T13 -130Q13 -97 32 -70T85 -42Q111 -42 126 -59T141 -102Q141 -133 122 -157T75 -185Q90 -203 113 -214T163 -225Q204 -225 237 -199T292 -126T323 -15L335 69Q305 28 266 9T180
-10Q102 -10 76 33T60 150L99 435L89 445H29L34 480Q81 480 136 481T232 490L242 480L196 150Q191 113 192 90T202 56T230 45Q254 45 280 64T327 122T356 223L386 435L376 445H316L321 480Q368 480 423 481T519 490L528 480L461 1Q454 -48 435 -94T381 -178T298
-238T180 -260ZM211 556Q183 556 164 576T144 624Q144 647 157 666T190 698T233 710Q262 710 281 690T300 641Q300 619 287 600T254 568T211 556ZM427 556Q398 556 379 576T360 624Q360 659 387 684T449 710Q478 710 496 690T515 642Q515 608 488 582T427 556Z"
/>
<glyph unicode="&#x2013;" horiz-adv-x="500" d="M9 305H509L504 270H4L9 305Z" />
<glyph unicode="&#x2014;" horiz-adv-x="800" d="M9 305H809L804 270H4L9 305Z" />
<glyph unicode="&#x2018;" horiz-adv-x="236" d="M137 348Q102 348 81 370T59 433Q59 478 83 523T145 609T226 683L250 660Q207 622 179 587T141 516Q146 517 150 517T160 518Q192 518 213 496T234 442Q234 405 206 377T137 348Z" />
<glyph unicode="&#x2019;" horiz-adv-x="236" d="M176 680Q211 680 232 658T254 595Q254 551 230 506T168 419T87 345L63 368Q106 406 134 442T172 512Q168 511 163 511T153 510Q122 510 101 532T79 586Q79 623 107 651T176 680Z" />
<glyph unicode="&#x201a;" horiz-adv-x="236" d="M103 160Q138 160 159 138T181 75Q181 31 157 -14T95 -101T14 -175L-10 -152Q33 -114 61 -78T99 -8Q95 -9 90 -9T80 -10Q49 -10 28 12T6 66Q6 103 34 131T103 160Z" />
<glyph unicode="&#x201c;" horiz-adv-x="436" d="M137 348Q102 348 81 370T59 433Q59 478 83 523T145 609T226 683L250 660Q207 622 179 587T141 516Q146 517 150 517T160 518Q192 518 213 496T234 442Q234 405 206 377T137 348ZM337 348Q302 348 281 370T259
433Q259 478 283 523T345 609T426 683L450 660Q407 622 379 587T341 516Q346 517 350 517T360 518Q392 518 413 496T434 442Q434 405 406 377T337 348Z" />
<glyph unicode="&#x201d;" horiz-adv-x="436" d="M376 680Q411 680 432 658T454 595Q454 551 430 506T368 419T287 345L263 368Q306 406 334 442T372 512Q368 511 363 511T353 510Q322 510 301 532T279 586Q279 623 307 651T376 680ZM176 680Q211 680 232 658T254
595Q254 551 230 506T168 419T87 345L63 368Q106 406 134 442T172 512Q168 511 163 511T153 510Q122 510 101 532T79 586Q79 623 107 651T176 680Z" />
<glyph unicode="&#x201e;" horiz-adv-x="436" d="M303 160Q338 160 359 138T381 75Q381 31 357 -14T295 -101T214 -175L190 -152Q233 -114 261 -78T299 -8Q295 -9 290 -9T280 -10Q249 -10 228 12T206 66Q206 103 234 131T303 160ZM103 160Q138 160 159 138T181
75Q181 31 157 -14T95 -101T14 -175L-10 -152Q33 -114 61 -78T99 -8Q95 -9 90 -9T80 -10Q49 -10 28 12T6 66Q6 103 34 131T103 160Z" />
<glyph unicode="&#x2022;" horiz-adv-x="313" d="M153 219Q107 219 76 252T44 331Q44 368 65 399T119 450T189 470Q236 470 267 438T298 358Q298 321 277 290T223 239T153 219Z" />
<glyph unicode="&#x2039;" horiz-adv-x="256" d="M262 425L144 240L210 55L185 39L0 240L241 441L262 425Z" />
<glyph unicode="&#x203a;" horiz-adv-x="256" d="M46 425L72 441L256 240L15 39L-6 55L112 240L46 425Z" />
</font>
</defs>
</svg>
